<?xml version="1.0" encoding="UTF-8"?>
<svg xmlns="http://www.w3.org/2000/svg" xmlns:xlink="http://www.w3.org/1999/xlink" width="161pt" height="142pt" viewBox="0 0 161 142" version="1.1">
<g id="surface4870">
<path style=" stroke:none;fill-rule:evenodd;fill:rgb(62.745098%,12.54902%,94.117647%);fill-opacity:1;" d="M 112.320312 86.402344 C 126.128906 110.316406 129.566406 134.179688 120 139.703125 C 110.433594 145.226562 91.488281 130.316406 77.679688 106.402344 C 63.871094 82.488281 60.433594 58.625 70 53.101562 C 79.566406 47.578125 98.511719 62.488281 112.320312 86.402344 Z M 112.320312 86.402344 "/>
<path style=" stroke:none;fill-rule:evenodd;fill:rgb(62.745098%,12.54902%,94.117647%);fill-opacity:1;" d="M 90 53.101562 C 99.566406 58.625 96.128906 82.488281 82.320312 106.402344 C 68.511719 130.316406 49.566406 145.226562 40 139.703125 C 30.433594 134.179688 33.871094 110.316406 47.679688 86.402344 C 61.488281 62.488281 80.433594 47.578125 90 53.101562 Z M 90 53.101562 "/>
<path style=" stroke:none;fill-rule:evenodd;fill:rgb(62.745098%,12.54902%,94.117647%);fill-opacity:1;" d="M 100 70.421875 C 100 81.46875 77.613281 90.421875 50 90.421875 C 22.386719 90.421875 0 81.46875 0 70.421875 C 0 59.375 22.386719 50.421875 50 50.421875 C 77.613281 50.421875 100 59.375 100 70.421875 Z M 100 70.421875 "/>
<path style=" stroke:none;fill-rule:evenodd;fill:rgb(62.745098%,12.54902%,94.117647%);fill-opacity:1;" d="M 82.320312 34.441406 C 96.128906 58.355469 99.566406 82.21875 90 87.742188 C 80.433594 93.265625 61.488281 78.355469 47.679688 54.441406 C 33.871094 30.527344 30.433594 6.664062 40 1.140625 C 49.566406 -4.382812 68.511719 10.527344 82.320312 34.441406 Z M 82.320312 34.441406 "/>
<path style=" stroke:none;fill-rule:evenodd;fill:rgb(62.745098%,12.54902%,94.117647%);fill-opacity:1;" d="M 120 1.140625 C 129.566406 6.664062 126.128906 30.527344 112.320312 54.441406 C 98.511719 78.355469 79.566406 93.265625 70 87.742188 C 60.433594 82.21875 63.871094 58.355469 77.679688 34.441406 C 91.488281 10.527344 110.433594 -4.382812 120 1.140625 Z M 120 1.140625 "/>
<path style=" stroke:none;fill-rule:evenodd;fill:rgb(62.745098%,12.54902%,94.117647%);fill-opacity:1;" d="M 160 70.421875 C 160 81.46875 137.613281 90.421875 110 90.421875 C 82.386719 90.421875 60 81.46875 60 70.421875 C 60 59.375 82.386719 50.421875 110 50.421875 C 137.613281 50.421875 160 59.375 160 70.421875 Z M 160 70.421875 "/>
<path style=" stroke:none;fill-rule:evenodd;fill:rgb(100%,100%,0%);fill-opacity:1;" d="M 110 70.421875 C 110 86.992188 96.570312 100.421875 80 100.421875 C 63.429688 100.421875 50 86.992188 50 70.421875 C 50 53.851562 63.429688 40.421875 80 40.421875 C 96.570312 40.421875 110 53.851562 110 70.421875 Z M 110 70.421875 "/>
</g>
</svg>
