<?xml version="1.0" encoding="UTF-8"?>
<svg xmlns="http://www.w3.org/2000/svg" xmlns:xlink="http://www.w3.org/1999/xlink" width="201pt" height="201pt" viewBox="0 0 201 201" version="1.1">
<g id="surface4055">
<path style=" stroke:none;fill-rule:evenodd;fill:rgb(0%,0%,0%);fill-opacity:1;" d="M 200 100 C 200 155.226562 155.226562 200 100 200 C 44.773438 200 0 155.226562 0 100 C 0 44.773438 44.773438 0 100 0 C 155.226562 0 200 44.773438 200 100 Z M 200 100 "/>
<path style=" stroke:none;fill-rule:evenodd;fill:rgb(100%,100%,100%);fill-opacity:1;" d="M 135.980469 48.15625 C 135.980469 74.117188 114.9375 95.15625 88.980469 95.15625 C 63.023438 95.15625 41.980469 74.117188 41.980469 48.15625 C 41.980469 22.199219 63.023438 1.15625 88.980469 1.15625 C 114.9375 1.15625 135.980469 22.199219 135.980469 48.15625 Z M 135.980469 48.15625 "/>
<path style=" stroke:none;fill-rule:evenodd;fill:rgb(100%,100%,100%);fill-opacity:1;" d="M 139.054688 47.019531 C 139.054688 72.703125 118.234375 93.519531 92.554688 93.519531 C 66.871094 93.519531 46.054688 72.703125 46.054688 47.019531 C 46.054688 21.339844 66.871094 0.519531 92.554688 0.519531 C 118.234375 0.519531 139.054688 21.339844 139.054688 47.019531 Z M 139.054688 47.019531 "/>
<path style=" stroke:none;fill-rule:evenodd;fill:rgb(100%,100%,100%);fill-opacity:1;" d="M 142.234375 46.132812 C 142.234375 71.535156 121.636719 92.132812 96.234375 92.132812 C 70.828125 92.132812 50.234375 71.535156 50.234375 46.132812 C 50.234375 20.726562 70.828125 0.132812 96.234375 0.132812 C 121.636719 0.132812 142.234375 20.726562 142.234375 46.132812 Z M 142.234375 46.132812 "/>
<path style=" stroke:none;fill-rule:evenodd;fill:rgb(100%,100%,100%);fill-opacity:1;" d="M 145.5 45.5 C 145.5 70.628906 125.128906 91 100 91 C 74.871094 91 54.5 70.628906 54.5 45.5 C 54.5 20.371094 74.871094 0 100 0 C 125.128906 0 145.5 20.371094 145.5 45.5 Z M 145.5 45.5 "/>
<path style=" stroke:none;fill-rule:evenodd;fill:rgb(100%,100%,100%);fill-opacity:1;" d="M 148.835938 45.132812 C 148.835938 69.988281 128.6875 90.132812 103.835938 90.132812 C 78.984375 90.132812 58.835938 69.988281 58.835938 45.132812 C 58.835938 20.28125 78.984375 0.132812 103.835938 0.132812 C 128.6875 0.132812 148.835938 20.28125 148.835938 45.132812 Z M 148.835938 45.132812 "/>
<path style=" stroke:none;fill-rule:evenodd;fill:rgb(100%,100%,100%);fill-opacity:1;" d="M 152.222656 45.039062 C 152.222656 69.617188 132.300781 89.539062 107.722656 89.539062 C 83.148438 89.539062 63.222656 69.617188 63.222656 45.039062 C 63.222656 20.464844 83.148438 0.539062 107.722656 0.539062 C 132.300781 0.539062 152.222656 20.464844 152.222656 45.039062 Z M 152.222656 45.039062 "/>
<path style=" stroke:none;fill-rule:evenodd;fill:rgb(100%,100%,100%);fill-opacity:1;" d="M 155.644531 45.222656 C 155.644531 69.523438 135.945312 89.222656 111.644531 89.222656 C 87.34375 89.222656 67.644531 69.523438 67.644531 45.222656 C 67.644531 20.921875 87.34375 1.222656 111.644531 1.222656 C 135.945312 1.222656 155.644531 20.921875 155.644531 45.222656 Z M 155.644531 45.222656 "/>
<path style=" stroke:none;fill-rule:evenodd;fill:rgb(100%,100%,100%);fill-opacity:1;" d="M 159.074219 45.6875 C 159.074219 69.714844 139.597656 89.1875 115.574219 89.1875 C 91.550781 89.1875 72.074219 69.714844 72.074219 45.6875 C 72.074219 21.664062 91.550781 2.1875 115.574219 2.1875 C 139.597656 2.1875 159.074219 21.664062 159.074219 45.6875 Z M 159.074219 45.6875 "/>
<path style=" stroke:none;fill-rule:evenodd;fill:rgb(100%,100%,100%);fill-opacity:1;" d="M 162.496094 46.4375 C 162.496094 70.1875 143.242188 89.4375 119.496094 89.4375 C 95.746094 89.4375 76.496094 70.1875 76.496094 46.4375 C 76.496094 22.6875 95.746094 3.4375 119.496094 3.4375 C 143.242188 3.4375 162.496094 22.6875 162.496094 46.4375 Z M 162.496094 46.4375 "/>
<path style=" stroke:none;fill-rule:evenodd;fill:rgb(100%,100%,100%);fill-opacity:1;" d="M 165.886719 47.472656 C 165.886719 70.941406 146.859375 89.972656 123.386719 89.972656 C 99.914062 89.972656 80.886719 70.941406 80.886719 47.472656 C 80.886719 24 99.914062 4.972656 123.386719 4.972656 C 146.859375 4.972656 165.886719 24 165.886719 47.472656 Z M 165.886719 47.472656 "/>
<path style=" stroke:none;fill-rule:evenodd;fill:rgb(100%,100%,100%);fill-opacity:1;" d="M 169.230469 48.789062 C 169.230469 71.984375 150.425781 90.789062 127.230469 90.789062 C 104.035156 90.789062 85.230469 71.984375 85.230469 48.789062 C 85.230469 25.59375 104.035156 6.789062 127.230469 6.789062 C 150.425781 6.789062 169.230469 25.59375 169.230469 48.789062 Z M 169.230469 48.789062 "/>
<path style=" stroke:none;fill-rule:evenodd;fill:rgb(100%,100%,100%);fill-opacity:1;" d="M 172.5 50.390625 C 172.5 73.308594 153.921875 91.890625 131 91.890625 C 108.082031 91.890625 89.5 73.308594 89.5 50.390625 C 89.5 27.46875 108.082031 8.890625 131 8.890625 C 153.921875 8.890625 172.5 27.46875 172.5 50.390625 Z M 172.5 50.390625 "/>
<path style=" stroke:none;fill-rule:evenodd;fill:rgb(100%,100%,100%);fill-opacity:1;" d="M 175.679688 52.269531 C 175.679688 74.910156 157.324219 93.269531 134.679688 93.269531 C 112.035156 93.269531 93.679688 74.910156 93.679688 52.269531 C 93.679688 29.625 112.035156 11.269531 134.679688 11.269531 C 157.324219 11.269531 175.679688 29.625 175.679688 52.269531 Z M 175.679688 52.269531 "/>
<path style=" stroke:none;fill-rule:evenodd;fill:rgb(100%,100%,100%);fill-opacity:1;" d="M 178.746094 54.421875 C 178.746094 76.789062 160.613281 94.921875 138.246094 94.921875 C 115.878906 94.921875 97.746094 76.789062 97.746094 54.421875 C 97.746094 32.054688 115.878906 13.921875 138.246094 13.921875 C 160.613281 13.921875 178.746094 32.054688 178.746094 54.421875 Z M 178.746094 54.421875 "/>
<path style=" stroke:none;fill-rule:evenodd;fill:rgb(100%,100%,100%);fill-opacity:1;" d="M 181.679688 56.839844 C 181.679688 78.929688 163.769531 96.839844 141.679688 96.839844 C 119.589844 96.839844 101.679688 78.929688 101.679688 56.839844 C 101.679688 34.75 119.589844 16.839844 141.679688 16.839844 C 163.769531 16.839844 181.679688 34.75 181.679688 56.839844 Z M 181.679688 56.839844 "/>
<path style=" stroke:none;fill-rule:evenodd;fill:rgb(100%,100%,100%);fill-opacity:1;" d="M 184.460938 59.519531 C 184.460938 81.332031 166.777344 99.019531 144.960938 99.019531 C 123.144531 99.019531 105.460938 81.332031 105.460938 59.519531 C 105.460938 37.703125 123.144531 20.019531 144.960938 20.019531 C 166.777344 20.019531 184.460938 37.703125 184.460938 59.519531 Z M 184.460938 59.519531 "/>
<path style=" stroke:none;fill-rule:evenodd;fill:rgb(100%,100%,100%);fill-opacity:1;" d="M 187.070312 62.445312 C 187.070312 83.984375 169.609375 101.445312 148.070312 101.445312 C 126.53125 101.445312 109.070312 83.984375 109.070312 62.445312 C 109.070312 40.90625 126.53125 23.445312 148.070312 23.445312 C 169.609375 23.445312 187.070312 40.90625 187.070312 62.445312 Z M 187.070312 62.445312 "/>
<path style=" stroke:none;fill-rule:evenodd;fill:rgb(100%,100%,100%);fill-opacity:1;" d="M 189.484375 65.609375 C 189.484375 86.871094 172.25 104.109375 150.984375 104.109375 C 129.722656 104.109375 112.484375 86.871094 112.484375 65.609375 C 112.484375 44.347656 129.722656 27.109375 150.984375 27.109375 C 172.25 27.109375 189.484375 44.347656 189.484375 65.609375 Z M 189.484375 65.609375 "/>
<path style=" stroke:none;fill-rule:evenodd;fill:rgb(100%,100%,100%);fill-opacity:1;" d="M 191.695312 69 C 191.695312 89.988281 174.679688 107 153.695312 107 C 132.707031 107 115.695312 89.988281 115.695312 69 C 115.695312 48.011719 132.707031 31 153.695312 31 C 174.679688 31 191.695312 48.011719 191.695312 69 Z M 191.695312 69 "/>
<path style=" stroke:none;fill-rule:evenodd;fill:rgb(100%,100%,100%);fill-opacity:1;" d="M 193.675781 72.601562 C 193.675781 93.3125 176.886719 110.101562 156.175781 110.101562 C 135.464844 110.101562 118.675781 93.3125 118.675781 72.601562 C 118.675781 51.890625 135.464844 35.101562 156.175781 35.101562 C 176.886719 35.101562 193.675781 51.890625 193.675781 72.601562 Z M 193.675781 72.601562 "/>
<path style=" stroke:none;fill-rule:evenodd;fill:rgb(100%,100%,100%);fill-opacity:1;" d="M 195.414062 76.398438 C 195.414062 96.835938 178.847656 113.398438 158.414062 113.398438 C 137.976562 113.398438 121.414062 96.835938 121.414062 76.398438 C 121.414062 55.964844 137.976562 39.398438 158.414062 39.398438 C 178.847656 39.398438 195.414062 55.964844 195.414062 76.398438 Z M 195.414062 76.398438 "/>
<path style=" stroke:none;fill-rule:evenodd;fill:rgb(100%,100%,100%);fill-opacity:1;" d="M 196.890625 80.378906 C 196.890625 100.535156 180.550781 116.878906 160.390625 116.878906 C 140.234375 116.878906 123.890625 100.535156 123.890625 80.378906 C 123.890625 60.21875 140.234375 43.878906 160.390625 43.878906 C 180.550781 43.878906 196.890625 60.21875 196.890625 80.378906 Z M 196.890625 80.378906 "/>
<path style=" stroke:none;fill-rule:evenodd;fill:rgb(100%,100%,100%);fill-opacity:1;" d="M 198.097656 84.515625 C 198.097656 104.398438 181.980469 120.515625 162.097656 120.515625 C 142.214844 120.515625 126.097656 104.398438 126.097656 84.515625 C 126.097656 64.632812 142.214844 48.515625 162.097656 48.515625 C 181.980469 48.515625 198.097656 64.632812 198.097656 84.515625 Z M 198.097656 84.515625 "/>
<path style=" stroke:none;fill-rule:evenodd;fill:rgb(100%,100%,100%);fill-opacity:1;" d="M 199.019531 88.800781 C 199.019531 108.40625 183.125 124.300781 163.519531 124.300781 C 143.914062 124.300781 128.019531 108.40625 128.019531 88.800781 C 128.019531 69.195312 143.914062 53.300781 163.519531 53.300781 C 183.125 53.300781 199.019531 69.195312 199.019531 88.800781 Z M 199.019531 88.800781 "/>
<path style=" stroke:none;fill-rule:evenodd;fill:rgb(100%,100%,100%);fill-opacity:1;" d="M 199.644531 93.207031 C 199.644531 112.535156 183.972656 128.207031 164.644531 128.207031 C 145.3125 128.207031 129.644531 112.535156 129.644531 93.207031 C 129.644531 73.875 145.3125 58.207031 164.644531 58.207031 C 183.972656 58.207031 199.644531 73.875 199.644531 93.207031 Z M 199.644531 93.207031 "/>
<path style=" stroke:none;fill-rule:evenodd;fill:rgb(100%,100%,100%);fill-opacity:1;" d="M 199.960938 97.714844 C 199.960938 116.769531 184.515625 132.214844 165.460938 132.214844 C 146.40625 132.214844 130.960938 116.769531 130.960938 97.714844 C 130.960938 78.660156 146.40625 63.214844 165.460938 63.214844 C 184.515625 63.214844 199.960938 78.660156 199.960938 97.714844 Z M 199.960938 97.714844 "/>
<path style=" stroke:none;fill-rule:evenodd;fill:rgb(100%,100%,100%);fill-opacity:1;" d="M 199.960938 102.304688 C 199.960938 121.082031 184.738281 136.304688 165.960938 136.304688 C 147.183594 136.304688 131.960938 121.082031 131.960938 102.304688 C 131.960938 83.527344 147.183594 68.304688 165.960938 68.304688 C 184.738281 68.304688 199.960938 83.527344 199.960938 102.304688 Z M 199.960938 102.304688 "/>
<path style=" stroke:none;fill-rule:evenodd;fill:rgb(100%,100%,100%);fill-opacity:1;" d="M 199.636719 106.949219 C 199.636719 125.453125 184.636719 140.449219 166.136719 140.449219 C 147.632812 140.449219 132.636719 125.453125 132.636719 106.949219 C 132.636719 88.449219 147.632812 73.449219 166.136719 73.449219 C 184.636719 73.449219 199.636719 88.449219 199.636719 106.949219 Z M 199.636719 106.949219 "/>
<path style=" stroke:none;fill-rule:evenodd;fill:rgb(100%,100%,100%);fill-opacity:1;" d="M 198.980469 111.632812 C 198.980469 129.859375 184.207031 144.632812 165.980469 144.632812 C 147.757812 144.632812 132.980469 129.859375 132.980469 111.632812 C 132.980469 93.410156 147.757812 78.632812 165.980469 78.632812 C 184.207031 78.632812 198.980469 93.410156 198.980469 111.632812 Z M 198.980469 111.632812 "/>
<path style=" stroke:none;fill-rule:evenodd;fill:rgb(100%,100%,100%);fill-opacity:1;" d="M 197.996094 116.328125 C 197.996094 134.277344 183.445312 148.828125 165.496094 148.828125 C 147.546875 148.828125 132.996094 134.277344 132.996094 116.328125 C 132.996094 98.378906 147.546875 83.828125 165.496094 83.828125 C 183.445312 83.828125 197.996094 98.378906 197.996094 116.328125 Z M 197.996094 116.328125 "/>
<path style=" stroke:none;fill-rule:evenodd;fill:rgb(100%,100%,100%);fill-opacity:1;" d="M 196.671875 121.011719 C 196.671875 138.6875 182.34375 153.011719 164.671875 153.011719 C 147 153.011719 132.671875 138.6875 132.671875 121.011719 C 132.671875 103.339844 147 89.011719 164.671875 89.011719 C 182.34375 89.011719 196.671875 103.339844 196.671875 121.011719 Z M 196.671875 121.011719 "/>
<path style=" stroke:none;fill-rule:evenodd;fill:rgb(100%,100%,100%);fill-opacity:1;" d="M 195.011719 125.660156 C 195.011719 143.058594 180.910156 157.160156 163.511719 157.160156 C 146.113281 157.160156 132.011719 143.058594 132.011719 125.660156 C 132.011719 108.261719 146.113281 94.160156 163.511719 94.160156 C 180.910156 94.160156 195.011719 108.261719 195.011719 125.660156 Z M 195.011719 125.660156 "/>
<path style=" stroke:none;fill-rule:evenodd;fill:rgb(100%,100%,100%);fill-opacity:1;" d="M 193.015625 130.246094 C 193.015625 147.367188 179.136719 161.246094 162.015625 161.246094 C 144.894531 161.246094 131.015625 147.367188 131.015625 130.246094 C 131.015625 113.125 144.894531 99.246094 162.015625 99.246094 C 179.136719 99.246094 193.015625 113.125 193.015625 130.246094 Z M 193.015625 130.246094 "/>
<path style=" stroke:none;fill-rule:evenodd;fill:rgb(100%,100%,100%);fill-opacity:1;" d="M 190.6875 134.75 C 190.6875 151.59375 177.035156 165.25 160.1875 165.25 C 143.34375 165.25 129.6875 151.59375 129.6875 134.75 C 129.6875 117.90625 143.34375 104.25 160.1875 104.25 C 177.035156 104.25 190.6875 117.90625 190.6875 134.75 Z M 190.6875 134.75 "/>
<path style=" stroke:none;fill-rule:evenodd;fill:rgb(100%,100%,100%);fill-opacity:1;" d="M 188.03125 139.144531 C 188.03125 155.710938 174.601562 169.144531 158.03125 169.144531 C 141.464844 169.144531 128.03125 155.710938 128.03125 139.144531 C 128.03125 122.574219 141.464844 109.144531 158.03125 109.144531 C 174.601562 109.144531 188.03125 122.574219 188.03125 139.144531 Z M 188.03125 139.144531 "/>
<path style=" stroke:none;fill-rule:evenodd;fill:rgb(100%,100%,100%);fill-opacity:1;" d="M 185.054688 143.402344 C 185.054688 159.695312 171.847656 172.902344 155.554688 172.902344 C 139.261719 172.902344 126.054688 159.695312 126.054688 143.402344 C 126.054688 127.113281 139.261719 113.902344 155.554688 113.902344 C 171.847656 113.902344 185.054688 127.113281 185.054688 143.402344 Z M 185.054688 143.402344 "/>
<path style=" stroke:none;fill-rule:evenodd;fill:rgb(100%,100%,100%);fill-opacity:1;" d="M 181.761719 147.507812 C 181.761719 163.523438 168.78125 176.507812 152.761719 176.507812 C 136.746094 176.507812 123.761719 163.523438 123.761719 147.507812 C 123.761719 131.492188 136.746094 118.507812 152.761719 118.507812 C 168.78125 118.507812 181.761719 131.492188 181.761719 147.507812 Z M 181.761719 147.507812 "/>
<path style=" stroke:none;fill-rule:evenodd;fill:rgb(100%,100%,100%);fill-opacity:1;" d="M 178.167969 151.433594 C 178.167969 167.171875 165.40625 179.933594 149.667969 179.933594 C 133.929688 179.933594 121.167969 167.171875 121.167969 151.433594 C 121.167969 135.691406 133.929688 122.933594 149.667969 122.933594 C 165.40625 122.933594 178.167969 135.691406 178.167969 151.433594 Z M 178.167969 151.433594 "/>
<path style=" stroke:none;fill-rule:evenodd;fill:rgb(100%,100%,100%);fill-opacity:1;" d="M 174.28125 155.15625 C 174.28125 170.621094 161.746094 183.15625 146.28125 183.15625 C 130.816406 183.15625 118.28125 170.621094 118.28125 155.15625 C 118.28125 139.691406 130.816406 127.15625 146.28125 127.15625 C 161.746094 127.15625 174.28125 139.691406 174.28125 155.15625 Z M 174.28125 155.15625 "/>
<path style=" stroke:none;fill-rule:evenodd;fill:rgb(100%,100%,100%);fill-opacity:1;" d="M 170.113281 158.652344 C 170.113281 173.839844 157.800781 186.152344 142.613281 186.152344 C 127.425781 186.152344 115.113281 173.839844 115.113281 158.652344 C 115.113281 143.464844 127.425781 131.152344 142.613281 131.152344 C 157.800781 131.152344 170.113281 143.464844 170.113281 158.652344 Z M 170.113281 158.652344 "/>
<path style=" stroke:none;fill-rule:evenodd;fill:rgb(100%,100%,100%);fill-opacity:1;" d="M 165.683594 161.90625 C 165.683594 176.820312 153.597656 188.90625 138.683594 188.90625 C 123.773438 188.90625 111.683594 176.820312 111.683594 161.90625 C 111.683594 146.996094 123.773438 134.90625 138.683594 134.90625 C 153.597656 134.90625 165.683594 146.996094 165.683594 161.90625 Z M 165.683594 161.90625 "/>
<path style=" stroke:none;fill-rule:evenodd;fill:rgb(100%,100%,100%);fill-opacity:1;" d="M 161.007812 164.898438 C 161.007812 179.53125 149.140625 191.398438 134.507812 191.398438 C 119.871094 191.398438 108.007812 179.53125 108.007812 164.898438 C 108.007812 150.261719 119.871094 138.398438 134.507812 138.398438 C 149.140625 138.398438 161.007812 150.261719 161.007812 164.898438 Z M 161.007812 164.898438 "/>
<path style=" stroke:none;fill-rule:evenodd;fill:rgb(100%,100%,100%);fill-opacity:1;" d="M 156.097656 167.601562 C 156.097656 181.960938 144.457031 193.601562 130.097656 193.601562 C 115.738281 193.601562 104.097656 181.960938 104.097656 167.601562 C 104.097656 153.242188 115.738281 141.601562 130.097656 141.601562 C 144.457031 141.601562 156.097656 153.242188 156.097656 167.601562 Z M 156.097656 167.601562 "/>
<path style=" stroke:none;fill-rule:evenodd;fill:rgb(100%,100%,100%);fill-opacity:1;" d="M 150.980469 170.007812 C 150.980469 184.089844 139.5625 195.507812 125.480469 195.507812 C 111.398438 195.507812 99.980469 184.089844 99.980469 170.007812 C 99.980469 155.925781 111.398438 144.507812 125.480469 144.507812 C 139.5625 144.507812 150.980469 155.925781 150.980469 170.007812 Z M 150.980469 170.007812 "/>
<path style=" stroke:none;fill-rule:evenodd;fill:rgb(100%,100%,100%);fill-opacity:1;" d="M 145.671875 172.09375 C 145.671875 185.902344 134.480469 197.09375 120.671875 197.09375 C 106.867188 197.09375 95.671875 185.902344 95.671875 172.09375 C 95.671875 158.289062 106.867188 147.09375 120.671875 147.09375 C 134.480469 147.09375 145.671875 158.289062 145.671875 172.09375 Z M 145.671875 172.09375 "/>
<path style=" stroke:none;fill-rule:evenodd;fill:rgb(100%,100%,100%);fill-opacity:1;" d="M 140.199219 173.851562 C 140.199219 187.382812 129.226562 198.351562 115.699219 198.351562 C 102.167969 198.351562 91.199219 187.382812 91.199219 173.851562 C 91.199219 160.320312 102.167969 149.351562 115.699219 149.351562 C 129.226562 149.351562 140.199219 160.320312 140.199219 173.851562 Z M 140.199219 173.851562 "/>
<path style=" stroke:none;fill-rule:evenodd;fill:rgb(100%,100%,100%);fill-opacity:1;" d="M 134.578125 175.261719 C 134.578125 188.515625 123.832031 199.261719 110.578125 199.261719 C 97.324219 199.261719 86.578125 188.515625 86.578125 175.261719 C 86.578125 162.003906 97.324219 151.261719 110.578125 151.261719 C 123.832031 151.261719 134.578125 162.003906 134.578125 175.261719 Z M 134.578125 175.261719 "/>
<path style=" stroke:none;fill-rule:evenodd;fill:rgb(100%,100%,100%);fill-opacity:1;" d="M 128.835938 176.3125 C 128.835938 189.292969 118.316406 199.8125 105.335938 199.8125 C 92.359375 199.8125 81.835938 189.292969 81.835938 176.3125 C 81.835938 163.335938 92.359375 152.8125 105.335938 152.8125 C 118.316406 152.8125 128.835938 163.335938 128.835938 176.3125 Z M 128.835938 176.3125 "/>
<path style=" stroke:none;fill-rule:evenodd;fill:rgb(100%,100%,100%);fill-opacity:1;" d="M 123 177 C 123 189.703125 112.703125 200 100 200 C 87.296875 200 77 189.703125 77 177 C 77 164.296875 87.296875 154 100 154 C 112.703125 154 123 164.296875 123 177 Z M 123 177 "/>
<path style=" stroke:none;fill-rule:evenodd;fill:rgb(100%,100%,100%);fill-opacity:1;" d="M 117.09375 177.3125 C 117.09375 189.738281 107.019531 199.8125 94.59375 199.8125 C 82.167969 199.8125 72.09375 189.738281 72.09375 177.3125 C 72.09375 164.886719 82.167969 154.8125 94.59375 154.8125 C 107.019531 154.8125 117.09375 164.886719 117.09375 177.3125 Z M 117.09375 177.3125 "/>
<path style=" stroke:none;fill-rule:evenodd;fill:rgb(100%,100%,100%);fill-opacity:1;" d="M 111.144531 177.242188 C 111.144531 189.390625 101.292969 199.242188 89.144531 199.242188 C 76.996094 199.242188 67.144531 189.390625 67.144531 177.242188 C 67.144531 165.089844 76.996094 155.242188 89.144531 155.242188 C 101.292969 155.242188 111.144531 165.089844 111.144531 177.242188 Z M 111.144531 177.242188 "/>
<path style=" stroke:none;fill-rule:evenodd;fill:rgb(100%,100%,100%);fill-opacity:1;" d="M 105.179688 176.785156 C 105.179688 188.660156 95.554688 198.285156 83.679688 198.285156 C 71.804688 198.285156 62.179688 188.660156 62.179688 176.785156 C 62.179688 164.910156 71.804688 155.285156 83.679688 155.285156 C 95.554688 155.285156 105.179688 164.910156 105.179688 176.785156 Z M 105.179688 176.785156 "/>
<path style=" stroke:none;fill-rule:evenodd;fill:rgb(100%,100%,100%);fill-opacity:1;" d="M 99.226562 175.941406 C 99.226562 187.539062 89.824219 196.941406 78.226562 196.941406 C 66.625 196.941406 57.226562 187.539062 57.226562 175.941406 C 57.226562 164.339844 66.625 154.941406 78.226562 154.941406 C 89.824219 154.941406 99.226562 164.339844 99.226562 175.941406 Z M 99.226562 175.941406 "/>
<path style=" stroke:none;fill-rule:evenodd;fill:rgb(100%,100%,100%);fill-opacity:1;" d="M 93.308594 174.707031 C 93.308594 186.027344 84.132812 195.207031 72.808594 195.207031 C 61.488281 195.207031 52.308594 186.027344 52.308594 174.707031 C 52.308594 163.382812 61.488281 154.207031 72.808594 154.207031 C 84.132812 154.207031 93.308594 163.382812 93.308594 174.707031 Z M 93.308594 174.707031 "/>
<path style=" stroke:none;fill-rule:evenodd;fill:rgb(100%,100%,100%);fill-opacity:1;" d="M 87.460938 173.082031 C 87.460938 184.128906 78.507812 193.082031 67.460938 193.082031 C 56.414062 193.082031 47.460938 184.128906 47.460938 173.082031 C 47.460938 162.039062 56.414062 153.082031 67.460938 153.082031 C 78.507812 153.082031 87.460938 162.039062 87.460938 173.082031 Z M 87.460938 173.082031 "/>
<path style=" stroke:none;fill-rule:evenodd;fill:rgb(100%,100%,100%);fill-opacity:1;" d="M 81.707031 171.078125 C 81.707031 181.847656 72.976562 190.578125 62.207031 190.578125 C 51.4375 190.578125 42.707031 181.847656 42.707031 171.078125 C 42.707031 160.308594 51.4375 151.578125 62.207031 151.578125 C 72.976562 151.578125 81.707031 160.308594 81.707031 171.078125 Z M 81.707031 171.078125 "/>
<path style=" stroke:none;fill-rule:evenodd;fill:rgb(100%,100%,100%);fill-opacity:1;" d="M 76.078125 168.691406 C 76.078125 179.183594 67.570312 187.691406 57.078125 187.691406 C 46.582031 187.691406 38.078125 179.183594 38.078125 168.691406 C 38.078125 158.199219 46.582031 149.691406 57.078125 149.691406 C 67.570312 149.691406 76.078125 158.199219 76.078125 168.691406 Z M 76.078125 168.691406 "/>
<path style=" stroke:none;fill-rule:evenodd;fill:rgb(100%,100%,100%);fill-opacity:1;" d="M 70.59375 165.933594 C 70.59375 176.152344 62.3125 184.433594 52.09375 184.433594 C 41.878906 184.433594 33.59375 176.152344 33.59375 165.933594 C 33.59375 155.71875 41.878906 147.433594 52.09375 147.433594 C 62.3125 147.433594 70.59375 155.71875 70.59375 165.933594 Z M 70.59375 165.933594 "/>
<path style=" stroke:none;fill-rule:evenodd;fill:rgb(100%,100%,100%);fill-opacity:1;" d="M 65.292969 162.816406 C 65.292969 172.757812 57.234375 180.816406 47.292969 180.816406 C 37.351562 180.816406 29.292969 172.757812 29.292969 162.816406 C 29.292969 152.875 37.351562 144.816406 47.292969 144.816406 C 57.234375 144.816406 65.292969 152.875 65.292969 162.816406 Z M 65.292969 162.816406 "/>
<path style=" stroke:none;fill-rule:evenodd;fill:rgb(100%,100%,100%);fill-opacity:1;" d="M 60.191406 159.34375 C 60.191406 169.011719 52.355469 176.84375 42.691406 176.84375 C 33.027344 176.84375 25.191406 169.011719 25.191406 159.34375 C 25.191406 149.679688 33.027344 141.84375 42.691406 141.84375 C 52.355469 141.84375 60.191406 149.679688 60.191406 159.34375 Z M 60.191406 159.34375 "/>
<path style=" stroke:none;fill-rule:evenodd;fill:rgb(100%,100%,100%);fill-opacity:1;" d="M 55.320312 155.539062 C 55.320312 164.925781 47.707031 172.539062 38.320312 172.539062 C 28.929688 172.539062 21.320312 164.925781 21.320312 155.539062 C 21.320312 146.148438 28.929688 138.539062 38.320312 138.539062 C 47.707031 138.539062 55.320312 146.148438 55.320312 155.539062 Z M 55.320312 155.539062 "/>
<path style=" stroke:none;fill-rule:evenodd;fill:rgb(100%,100%,100%);fill-opacity:1;" d="M 50.699219 151.40625 C 50.699219 160.519531 43.3125 167.90625 34.199219 167.90625 C 25.089844 167.90625 17.699219 160.519531 17.699219 151.40625 C 17.699219 142.296875 25.089844 134.90625 34.199219 134.90625 C 43.3125 134.90625 50.699219 142.296875 50.699219 151.40625 Z M 50.699219 151.40625 "/>
<path style=" stroke:none;fill-rule:evenodd;fill:rgb(100%,100%,100%);fill-opacity:1;" d="M 46.359375 146.972656 C 46.359375 155.808594 39.199219 162.972656 30.359375 162.972656 C 21.523438 162.972656 14.359375 155.808594 14.359375 146.972656 C 14.359375 138.136719 21.523438 130.972656 30.359375 130.972656 C 39.199219 130.972656 46.359375 138.136719 46.359375 146.972656 Z M 46.359375 146.972656 "/>
<path style=" stroke:none;fill-rule:evenodd;fill:rgb(100%,100%,100%);fill-opacity:1;" d="M 42.320312 142.25 C 42.320312 150.808594 35.382812 157.75 26.820312 157.75 C 18.261719 157.75 11.320312 150.808594 11.320312 142.25 C 11.320312 133.691406 18.261719 126.75 26.820312 126.75 C 35.382812 126.75 42.320312 133.691406 42.320312 142.25 Z M 42.320312 142.25 "/>
<path style=" stroke:none;fill-rule:evenodd;fill:rgb(100%,100%,100%);fill-opacity:1;" d="M 38.601562 137.261719 C 38.601562 145.546875 31.886719 152.261719 23.601562 152.261719 C 15.316406 152.261719 8.601562 145.546875 8.601562 137.261719 C 8.601562 128.976562 15.316406 122.261719 23.601562 122.261719 C 31.886719 122.261719 38.601562 128.976562 38.601562 137.261719 Z M 38.601562 137.261719 "/>
<path style=" stroke:none;fill-rule:evenodd;fill:rgb(100%,100%,100%);fill-opacity:1;" d="M 35.226562 132.027344 C 35.226562 140.035156 28.734375 146.527344 20.726562 146.527344 C 12.71875 146.527344 6.226562 140.035156 6.226562 132.027344 C 6.226562 124.019531 12.71875 117.527344 20.726562 117.527344 C 28.734375 117.527344 35.226562 124.019531 35.226562 132.027344 Z M 35.226562 132.027344 "/>
<path style=" stroke:none;fill-rule:evenodd;fill:rgb(100%,100%,100%);fill-opacity:1;" d="M 32.210938 126.574219 C 32.210938 134.308594 25.941406 140.574219 18.210938 140.574219 C 10.476562 140.574219 4.210938 134.308594 4.210938 126.574219 C 4.210938 118.84375 10.476562 112.574219 18.210938 112.574219 C 25.941406 112.574219 32.210938 118.84375 32.210938 126.574219 Z M 32.210938 126.574219 "/>
<path style=" stroke:none;fill-rule:evenodd;fill:rgb(100%,100%,100%);fill-opacity:1;" d="M 29.570312 120.925781 C 29.570312 128.382812 23.523438 134.425781 16.070312 134.425781 C 8.613281 134.425781 2.570312 128.382812 2.570312 120.925781 C 2.570312 113.46875 8.613281 107.425781 16.070312 107.425781 C 23.523438 107.425781 29.570312 113.46875 29.570312 120.925781 Z M 29.570312 120.925781 "/>
<path style=" stroke:none;fill-rule:evenodd;fill:rgb(100%,100%,100%);fill-opacity:1;" d="M 27.320312 115.105469 C 27.320312 122.285156 21.5 128.105469 14.320312 128.105469 C 7.140625 128.105469 1.320312 122.285156 1.320312 115.105469 C 1.320312 107.925781 7.140625 102.105469 14.320312 102.105469 C 21.5 102.105469 27.320312 107.925781 27.320312 115.105469 Z M 27.320312 115.105469 "/>
<path style=" stroke:none;fill-rule:evenodd;fill:rgb(100%,100%,100%);fill-opacity:1;" d="M 25.480469 109.144531 C 25.480469 116.050781 19.882812 121.644531 12.980469 121.644531 C 6.074219 121.644531 0.480469 116.050781 0.480469 109.144531 C 0.480469 102.242188 6.074219 96.644531 12.980469 96.644531 C 19.882812 96.644531 25.480469 102.242188 25.480469 109.144531 Z M 25.480469 109.144531 "/>
<path style=" stroke:none;fill-rule:evenodd;fill:rgb(100%,100%,100%);fill-opacity:1;" d="M 24.054688 103.070312 C 24.054688 109.699219 18.679688 115.070312 12.054688 115.070312 C 5.425781 115.070312 0.0546875 109.699219 0.0546875 103.070312 C 0.0546875 96.445312 5.425781 91.070312 12.054688 91.070312 C 18.679688 91.070312 24.054688 96.445312 24.054688 103.070312 Z M 24.054688 103.070312 "/>
<path style=" stroke:none;fill-rule:evenodd;fill:rgb(100%,100%,100%);fill-opacity:1;" d="M 23.054688 96.910156 C 23.054688 103.261719 17.90625 108.410156 11.554688 108.410156 C 5.203125 108.410156 0.0546875 103.261719 0.0546875 96.910156 C 0.0546875 90.558594 5.203125 85.410156 11.554688 85.410156 C 17.90625 85.410156 23.054688 90.558594 23.054688 96.910156 Z M 23.054688 96.910156 "/>
<path style=" stroke:none;fill-rule:evenodd;fill:rgb(100%,100%,100%);fill-opacity:1;" d="M 22.488281 90.695312 C 22.488281 96.773438 17.5625 101.695312 11.488281 101.695312 C 5.414062 101.695312 0.488281 96.773438 0.488281 90.695312 C 0.488281 84.621094 5.414062 79.695312 11.488281 79.695312 C 17.5625 79.695312 22.488281 84.621094 22.488281 90.695312 Z M 22.488281 90.695312 "/>
<path style=" stroke:none;fill-rule:evenodd;fill:rgb(100%,100%,100%);fill-opacity:1;" d="M 22.359375 84.457031 C 22.359375 90.257812 17.660156 94.957031 11.859375 94.957031 C 6.0625 94.957031 1.359375 90.257812 1.359375 84.457031 C 1.359375 78.660156 6.0625 73.957031 11.859375 73.957031 C 17.660156 73.957031 22.359375 78.660156 22.359375 84.457031 Z M 22.359375 84.457031 "/>
<path style=" stroke:none;fill-rule:evenodd;fill:rgb(100%,100%,100%);fill-opacity:1;" d="M 22.671875 78.226562 C 22.671875 83.75 18.195312 88.226562 12.671875 88.226562 C 7.152344 88.226562 2.671875 83.75 2.671875 78.226562 C 2.671875 72.703125 7.152344 68.226562 12.671875 68.226562 C 18.195312 68.226562 22.671875 72.703125 22.671875 78.226562 Z M 22.671875 78.226562 "/>
<path style=" stroke:none;fill-rule:evenodd;fill:rgb(100%,100%,100%);fill-opacity:1;" d="M 23.429688 72.035156 C 23.429688 77.28125 19.175781 81.535156 13.929688 81.535156 C 8.683594 81.535156 4.429688 77.28125 4.429688 72.035156 C 4.429688 66.789062 8.683594 62.535156 13.929688 62.535156 C 19.175781 62.535156 23.429688 66.789062 23.429688 72.035156 Z M 23.429688 72.035156 "/>
<path style=" stroke:none;fill-rule:evenodd;fill:rgb(100%,100%,100%);fill-opacity:1;" d="M 24.625 65.910156 C 24.625 70.882812 20.597656 74.910156 15.625 74.910156 C 10.65625 74.910156 6.625 70.882812 6.625 65.910156 C 6.625 60.941406 10.65625 56.910156 15.625 56.910156 C 20.597656 56.910156 24.625 60.941406 24.625 65.910156 Z M 24.625 65.910156 "/>
<path style=" stroke:none;fill-rule:evenodd;fill:rgb(100%,100%,100%);fill-opacity:1;" d="M 26.261719 59.890625 C 26.261719 64.582031 22.453125 68.390625 17.761719 68.390625 C 13.066406 68.390625 9.261719 64.582031 9.261719 59.890625 C 9.261719 55.195312 13.066406 51.390625 17.761719 51.390625 C 22.453125 51.390625 26.261719 55.195312 26.261719 59.890625 Z M 26.261719 59.890625 "/>
<path style=" stroke:none;fill-rule:evenodd;fill:rgb(100%,100%,100%);fill-opacity:1;" d="M 28.324219 54 C 28.324219 58.417969 24.742188 62 20.324219 62 C 15.90625 62 12.324219 58.417969 12.324219 54 C 12.324219 49.582031 15.90625 46 20.324219 46 C 24.742188 46 28.324219 49.582031 28.324219 54 Z M 28.324219 54 "/>
<path style=" stroke:none;fill-rule:evenodd;fill:rgb(100%,100%,100%);fill-opacity:1;" d="M 30.8125 48.273438 C 30.8125 52.417969 27.457031 55.773438 23.3125 55.773438 C 19.171875 55.773438 15.8125 52.417969 15.8125 48.273438 C 15.8125 44.132812 19.171875 40.773438 23.3125 40.773438 C 27.457031 40.773438 30.8125 44.132812 30.8125 48.273438 Z M 30.8125 48.273438 "/>
<path style=" stroke:none;fill-rule:evenodd;fill:rgb(100%,100%,100%);fill-opacity:1;" d="M 33.714844 42.742188 C 33.714844 46.609375 30.582031 49.742188 26.714844 49.742188 C 22.847656 49.742188 19.714844 46.609375 19.714844 42.742188 C 19.714844 38.878906 22.847656 35.742188 26.714844 35.742188 C 30.582031 35.742188 33.714844 38.878906 33.714844 42.742188 Z M 33.714844 42.742188 "/>
<path style=" stroke:none;fill-rule:evenodd;fill:rgb(100%,100%,100%);fill-opacity:1;" d="M 37.015625 37.4375 C 37.015625 41.027344 34.105469 43.9375 30.515625 43.9375 C 26.925781 43.9375 24.015625 41.027344 24.015625 37.4375 C 24.015625 33.847656 26.925781 30.9375 30.515625 30.9375 C 34.105469 30.9375 37.015625 33.847656 37.015625 37.4375 Z M 37.015625 37.4375 "/>
<path style=" stroke:none;fill-rule:evenodd;fill:rgb(100%,100%,100%);fill-opacity:1;" d="M 40.703125 32.382812 C 40.703125 35.695312 38.015625 38.382812 34.703125 38.382812 C 31.386719 38.382812 28.703125 35.695312 28.703125 32.382812 C 28.703125 29.066406 31.386719 26.382812 34.703125 26.382812 C 38.015625 26.382812 40.703125 29.066406 40.703125 32.382812 Z M 40.703125 32.382812 "/>
<path style=" stroke:none;fill-rule:evenodd;fill:rgb(100%,100%,100%);fill-opacity:1;" d="M 44.757812 27.609375 C 44.757812 30.644531 42.292969 33.109375 39.257812 33.109375 C 36.21875 33.109375 33.757812 30.644531 33.757812 27.609375 C 33.757812 24.570312 36.21875 22.109375 39.257812 22.109375 C 42.292969 22.109375 44.757812 24.570312 44.757812 27.609375 Z M 44.757812 27.609375 "/>
<path style=" stroke:none;fill-rule:evenodd;fill:rgb(100%,100%,100%);fill-opacity:1;" d="M 49.160156 23.144531 C 49.160156 25.90625 46.921875 28.144531 44.160156 28.144531 C 41.398438 28.144531 39.160156 25.90625 39.160156 23.144531 C 39.160156 20.382812 41.398438 18.144531 44.160156 18.144531 C 46.921875 18.144531 49.160156 20.382812 49.160156 23.144531 Z M 49.160156 23.144531 "/>
<path style=" stroke:none;fill-rule:evenodd;fill:rgb(100%,100%,100%);fill-opacity:1;" d="M 53.894531 19.011719 C 53.894531 21.496094 51.878906 23.511719 49.394531 23.511719 C 46.90625 23.511719 44.894531 21.496094 44.894531 19.011719 C 44.894531 16.527344 46.90625 14.511719 49.394531 14.511719 C 51.878906 14.511719 53.894531 16.527344 53.894531 19.011719 Z M 53.894531 19.011719 "/>
<path style=" stroke:none;fill-rule:evenodd;fill:rgb(100%,100%,100%);fill-opacity:1;" d="M 58.929688 15.238281 C 58.929688 17.445312 57.140625 19.238281 54.929688 19.238281 C 52.722656 19.238281 50.929688 17.445312 50.929688 15.238281 C 50.929688 13.027344 52.722656 11.238281 54.929688 11.238281 C 57.140625 11.238281 58.929688 13.027344 58.929688 15.238281 Z M 58.929688 15.238281 "/>
<path style=" stroke:none;fill-rule:evenodd;fill:rgb(100%,100%,100%);fill-opacity:1;" d="M 64.25 11.84375 C 64.25 13.777344 62.683594 15.34375 60.75 15.34375 C 58.816406 15.34375 57.25 13.777344 57.25 11.84375 C 57.25 9.910156 58.816406 8.34375 60.75 8.34375 C 62.683594 8.34375 64.25 9.910156 64.25 11.84375 Z M 64.25 11.84375 "/>
<path style=" stroke:none;fill-rule:evenodd;fill:rgb(100%,100%,100%);fill-opacity:1;" d="M 69.824219 8.851562 C 69.824219 10.507812 68.480469 11.851562 66.824219 11.851562 C 65.167969 11.851562 63.824219 10.507812 63.824219 8.851562 C 63.824219 7.191406 65.167969 5.851562 66.824219 5.851562 C 68.480469 5.851562 69.824219 7.191406 69.824219 8.851562 Z M 69.824219 8.851562 "/>
<path style=" stroke:none;fill-rule:evenodd;fill:rgb(100%,100%,100%);fill-opacity:1;" d="M 75.625 6.277344 C 75.625 7.65625 74.507812 8.777344 73.125 8.777344 C 71.746094 8.777344 70.625 7.65625 70.625 6.277344 C 70.625 4.894531 71.746094 3.777344 73.125 3.777344 C 74.507812 3.777344 75.625 4.894531 75.625 6.277344 Z M 75.625 6.277344 "/>
<path style=" stroke:none;fill-rule:evenodd;fill:rgb(100%,100%,100%);fill-opacity:1;" d="M 81.625 4.140625 C 81.625 5.246094 80.730469 6.140625 79.625 6.140625 C 78.519531 6.140625 77.625 5.246094 77.625 4.140625 C 77.625 3.035156 78.519531 2.140625 79.625 2.140625 C 80.730469 2.140625 81.625 3.035156 81.625 4.140625 Z M 81.625 4.140625 "/>
<path style=" stroke:none;fill-rule:evenodd;fill:rgb(100%,100%,100%);fill-opacity:1;" d="M 87.792969 2.457031 C 87.792969 3.285156 87.121094 3.957031 86.292969 3.957031 C 85.464844 3.957031 84.792969 3.285156 84.792969 2.457031 C 84.792969 1.628906 85.464844 0.957031 86.292969 0.957031 C 87.121094 0.957031 87.792969 1.628906 87.792969 2.457031 Z M 87.792969 2.457031 "/>
<path style=" stroke:none;fill-rule:evenodd;fill:rgb(100%,100%,100%);fill-opacity:1;" d="M 94.09375 1.242188 C 94.09375 1.792969 93.644531 2.242188 93.09375 2.242188 C 92.542969 2.242188 92.09375 1.792969 92.09375 1.242188 C 92.09375 0.6875 92.542969 0.242188 93.09375 0.242188 C 93.644531 0.242188 94.09375 0.6875 94.09375 1.242188 Z M 94.09375 1.242188 "/>
<path style=" stroke:none;fill-rule:evenodd;fill:rgb(100%,100%,100%);fill-opacity:1;" d="M 100.5 0.5 C 100.5 0.777344 100.277344 1 100 1 C 99.722656 1 99.5 0.777344 99.5 0.5 C 99.5 0.222656 99.722656 0 100 0 C 100.277344 0 100.5 0.222656 100.5 0.5 Z M 100.5 0.5 "/>
</g>
</svg>
