<?xml version="1.0" encoding="UTF-8"?>
<svg xmlns="http://www.w3.org/2000/svg" xmlns:xlink="http://www.w3.org/1999/xlink" width="25pt" height="25pt" viewBox="0 0 25 25" version="1.1">
<defs>
<clipPath id="clip1">
  <path d="M 0 0 L 24 0 L 24 24 L 0 24 Z M 0 0 "/>
</clipPath>
</defs>
<g id="surface4717">
<g clip-path="url(#clip1)" clip-rule="evenodd">
<path style=" stroke:none;fill-rule:nonzero;fill:rgb(85.490196%,64.705882%,12.54902%);fill-opacity:1;" d="M 0 0 L 24 0 L 24 24 L 0 24 Z M 0 0 "/>
<path style=" stroke:none;fill-rule:evenodd;fill:rgb(100%,100%,100%);fill-opacity:1;" d="M 12 14 C 12 16.210938 10.210938 18 8 18 C 5.789062 18 4 16.210938 4 14 C 4 11.789062 5.789062 10 8 10 C 10.210938 10 12 11.789062 12 14 Z M 12 14 "/>
<path style=" stroke:none;fill-rule:evenodd;fill:rgb(100%,100%,100%);fill-opacity:1;" d="M 18 2 C 18 4.210938 16.210938 6 14 6 C 11.789062 6 10 4.210938 10 2 C 10 -0.210938 11.789062 -2 14 -2 C 16.210938 -2 18 -0.210938 18 2 Z M 18 2 "/>
<path style=" stroke:none;fill-rule:evenodd;fill:rgb(100%,100%,100%);fill-opacity:1;" d="M 4 6 C 4 8.210938 2.210938 10 0 10 C -2.210938 10 -4 8.210938 -4 6 C -4 3.789062 -2.210938 2 0 2 C 2.210938 2 4 3.789062 4 6 Z M 4 6 "/>
<path style=" stroke:none;fill-rule:evenodd;fill:rgb(100%,100%,100%);fill-opacity:1;" d="M 22 20 C 22 22.210938 20.210938 24 18 24 C 15.789062 24 14 22.210938 14 20 C 14 17.789062 15.789062 16 18 16 C 20.210938 16 22 17.789062 22 20 Z M 22 20 "/>
</g>
</g>
</svg>
