<?xml version="1.0" encoding="UTF-8"?>
<svg xmlns="http://www.w3.org/2000/svg" xmlns:xlink="http://www.w3.org/1999/xlink" width="87pt" height="87pt" viewBox="0 0 87 87" version="1.1">
<g id="surface4547">
<path style=" stroke:none;fill-rule:evenodd;fill:rgb(78.431373%,0%,0%);fill-opacity:0.498039;" d="M 73 56 C 73 72.570312 59.570312 86 43 86 C 26.429688 86 13 72.570312 13 56 C 13 39.429688 26.429688 26 43 26 C 59.570312 26 73 39.429688 73 56 Z M 73 56 "/>
<path style=" stroke:none;fill-rule:evenodd;fill:rgb(0%,0%,100%);fill-opacity:0.498039;" d="M 86 30 C 86 46.570312 72.570312 60 56 60 C 39.429688 60 26 46.570312 26 30 C 26 13.429688 39.429688 0 56 0 C 72.570312 0 86 13.429688 86 30 Z M 86 30 "/>
<path style=" stroke:none;fill-rule:evenodd;fill:rgb(0%,58.823529%,0%);fill-opacity:0.498039;" d="M 60 30 C 60 46.570312 46.570312 60 30 60 C 13.429688 60 0 46.570312 0 30 C 0 13.429688 13.429688 0 30 0 C 46.570312 0 60 13.429688 60 30 Z M 60 30 "/>
</g>
</svg>
