<?xml version="1.0" encoding="UTF-8"?>
<svg xmlns="http://www.w3.org/2000/svg" xmlns:xlink="http://www.w3.org/1999/xlink" width="79pt" height="79pt" viewBox="0 0 79 79" version="1.1">
<g id="surface4432">
<path style="fill:none;stroke-width:1;stroke-linecap:round;stroke-linejoin:miter;stroke:rgb(0%,0%,0%);stroke-opacity:1;stroke-miterlimit:10;" d="M 67.5 33.5 L 76.5 27.5 L 65.5 27.5 L 73.5 20.5 L 62.5 22.5 L 68.5 14.5 L 59.5 18.5 L 63.5 8.5 L 54.5 14.5 L 57.5 4.5 L 49.5 12.5 L 50.5 1.5 L 44.5 10.5 L 42.5 0.5 L 38.5 9.5 L 34.5 0.5 L 33.5 10.5 L 27.5 1.5 L 27.5 12.5 L 20.5 4.5 L 22.5 14.5 L 14.5 8.5 L 18.5 18.5 L 8.5 14.5 L 14.5 22.5 L 4.5 20.5 L 12.5 27.5 L 1.5 27.5 L 10.5 33.5 L 0.5 34.5 L 9.5 38.5 L 0.5 42.5 L 10.5 44.5 L 1.5 50.5 L 12.5 49.5 L 4.5 57.5 L 14.5 54.5 L 8.5 63.5 L 18.5 59.5 L 14.5 68.5 L 22.5 62.5 L 20.5 73.5 L 27.5 65.5 L 27.5 76.5 L 33.5 67.5 L 34.5 77.5 L 38.5 67.5 L 42.5 77.5 L 44.5 67.5 L 50.5 76.5 L 49.5 65.5 L 57.5 73.5 L 54.5 62.5 L 63.5 68.5 L 59.5 59.5 L 68.5 63.5 L 62.5 54.5 L 73.5 57.5 L 65.5 49.5 L 76.5 50.5 L 67.5 44.5 L 77.5 42.5 L 67.5 38.5 L 77.5 34.5 Z M 67.5 33.5 "/>
</g>
</svg>
