<?xml version="1.0" encoding="UTF-8"?>
<svg xmlns="http://www.w3.org/2000/svg" xmlns:xlink="http://www.w3.org/1999/xlink" width="41pt" height="41pt" viewBox="0 0 41 41" version="1.1">
<g id="surface4647">
<path style=" stroke:none;fill-rule:evenodd;fill:rgb(74.509804%,74.509804%,74.509804%);fill-opacity:1;" d="M 40 20 C 40 31.046875 31.046875 40 20 40 C 8.953125 40 0 31.046875 0 20 C 0 8.953125 8.953125 0 20 0 C 31.046875 0 40 8.953125 40 20 Z M 40 20 "/>
<path style=" stroke:none;fill-rule:evenodd;fill:rgb(13.333333%,54.509804%,13.333333%);fill-opacity:1;" d="M 20 20 C 20 22.761719 17.761719 25 15 25 C 12.238281 25 10 22.761719 10 20 C 10 17.238281 12.238281 15 15 15 C 17.761719 15 20 17.238281 20 20 Z M 20 20 "/>
<path style=" stroke:none;fill-rule:evenodd;fill:rgb(13.333333%,54.509804%,13.333333%);fill-opacity:1;" d="M 30 20 C 30 22.761719 27.761719 25 25 25 C 22.238281 25 20 22.761719 20 20 C 20 17.238281 22.238281 15 25 15 C 27.761719 15 30 17.238281 30 20 Z M 30 20 "/>
</g>
</svg>
