<?xml version="1.0" encoding="UTF-8"?>
<svg xmlns="http://www.w3.org/2000/svg" xmlns:xlink="http://www.w3.org/1999/xlink" width="137pt" height="137pt" viewBox="0 0 137 137" version="1.1">
<g id="surface4557">
<path style=" stroke:none;fill-rule:evenodd;fill:rgb(39.215686%,58.431373%,92.941176%);fill-opacity:1;" d="M 60 106.273438 C 60 122.84375 46.570312 136.273438 30 136.273438 C 13.429688 136.273438 0 122.84375 0 106.273438 C 0 89.707031 13.429688 76.273438 30 76.273438 C 46.570312 76.273438 60 89.707031 60 106.273438 Z M 60 106.273438 "/>
<path style=" stroke:none;fill-rule:nonzero;fill:rgb(14.117647%,14.117647%,54.901961%);fill-opacity:1;" d="M 63.136719 126.273438 L 118.339844 108.339844 L 136.273438 53.136719 L 102.160156 6.179688 L 44.117188 6.179688 L 10 53.136719 L 27.9375 108.339844 L 83.136719 126.273438 L 130.09375 92.160156 L 130.09375 34.117188 L 83.136719 0 L 27.9375 17.9375 L 10 73.136719 L 44.117188 120.09375 L 102.160156 120.09375 L 136.273438 73.136719 L 118.339844 17.9375 L 63.136719 0 L 16.179688 34.117188 L 16.179688 92.160156 Z M 63.136719 126.273438 "/>
</g>
</svg>
