<?xml version="1.0" encoding="UTF-8"?>
<svg xmlns="http://www.w3.org/2000/svg" xmlns:xlink="http://www.w3.org/1999/xlink" width="41pt" height="41pt" viewBox="0 0 41 41" version="1.1">
<g id="surface4577">
<path style=" stroke:none;fill-rule:evenodd;fill:rgb(13.333333%,54.509804%,13.333333%);fill-opacity:1;" d="M 30 20 C 30 22.761719 27.761719 25 25 25 C 22.238281 25 20 22.761719 20 20 C 20 17.238281 22.238281 15 25 15 C 27.761719 15 30 17.238281 30 20 Z M 30 20 "/>
<path style=" stroke:none;fill-rule:evenodd;fill:rgb(13.333333%,54.509804%,13.333333%);fill-opacity:1;" d="M 20 20 C 20 22.761719 17.761719 25 15 25 C 12.238281 25 10 22.761719 10 20 C 10 17.238281 12.238281 15 15 15 C 17.761719 15 20 17.238281 20 20 Z M 20 20 "/>
<path style="fill:none;stroke-width:1;stroke-linecap:round;stroke-linejoin:miter;stroke:rgb(0%,0%,0%);stroke-opacity:1;stroke-miterlimit:10;" d="M 40.5 20.5 C 40.5 31.5 31.5 40.5 19.5 40.5 C 8.5 40.5 -0.5 31.5 0.5 19.5 C 0.5 8.5 8.5 0.5 20.5 0.5 C 31.5 0.5 40.5 8.5 40.5 20.5 Z M 40.5 20.5 "/>
</g>
</svg>
