<?xml version="1.0" encoding="UTF-8"?>
<svg xmlns="http://www.w3.org/2000/svg" xmlns:xlink="http://www.w3.org/1999/xlink" width="81pt" height="81pt" viewBox="0 0 81 81" version="1.1">
<g id="surface4617">
<path style=" stroke:none;fill-rule:evenodd;fill:rgb(74.509804%,74.509804%,74.509804%);fill-opacity:1;" d="M 80 40 C 80 62.089844 62.089844 80 40 80 C 17.910156 80 0 62.089844 0 40 C 0 17.910156 17.910156 0 40 0 C 62.089844 0 80 17.910156 80 40 Z M 80 40 "/>
<path style=" stroke:none;fill-rule:evenodd;fill:rgb(14.117647%,14.117647%,54.901961%);fill-opacity:1;" d="M 65 30 C 65 35.523438 60.523438 40 55 40 C 49.476562 40 45 35.523438 45 30 C 45 24.476562 49.476562 20 55 20 C 60.523438 20 65 24.476562 65 30 Z M 65 30 "/>
<path style=" stroke:none;fill-rule:evenodd;fill:rgb(14.117647%,14.117647%,54.901961%);fill-opacity:1;" d="M 35 30 C 35 35.523438 30.523438 40 25 40 C 19.476562 40 15 35.523438 15 30 C 15 24.476562 19.476562 20 25 20 C 30.523438 20 35 24.476562 35 30 Z M 35 30 "/>
</g>
</svg>
