<?xml version="1.0" encoding="UTF-8"?>
<svg xmlns="http://www.w3.org/2000/svg" xmlns:xlink="http://www.w3.org/1999/xlink" width="121pt" height="121pt" viewBox="0 0 121 121" version="1.1">
<g id="surface4050">
<path style=" stroke:none;fill-rule:nonzero;fill:rgb(0%,0%,100%);fill-opacity:0.00392157;" d="M 62.023438 1.78125 L 91.054688 118.21875 L 28.945312 117.132812 Z M 62.023438 1.78125 "/>
<path style=" stroke:none;fill-rule:nonzero;fill:rgb(0%,0%,100%);fill-opacity:0.00392157;" d="M 64.046875 1.539062 L 91.039062 118.460938 L 28.960938 116.292969 Z M 64.046875 1.539062 "/>
<path style=" stroke:none;fill-rule:nonzero;fill:rgb(0%,0%,100%);fill-opacity:0.00392157;" d="M 66.066406 1.3125 L 91.015625 118.6875 L 28.984375 115.4375 Z M 66.066406 1.3125 "/>
<path style=" stroke:none;fill-rule:nonzero;fill:rgb(0%,0%,100%);fill-opacity:0.00392157;" d="M 68.085938 1.101562 L 90.984375 118.898438 L 29.015625 114.566406 Z M 68.085938 1.101562 "/>
<path style=" stroke:none;fill-rule:nonzero;fill:rgb(0%,0%,100%);fill-opacity:0.00392157;" d="M 70.101562 0.910156 L 90.941406 119.089844 L 29.058594 113.675781 Z M 70.101562 0.910156 "/>
<path style=" stroke:none;fill-rule:nonzero;fill:rgb(0%,0%,100%);fill-opacity:0.00392157;" d="M 72.117188 0.738281 L 90.886719 119.261719 L 29.113281 112.769531 Z M 72.117188 0.738281 "/>
<path style=" stroke:none;fill-rule:nonzero;fill:rgb(0%,0%,100%);fill-opacity:0.00392157;" d="M 74.125 0.582031 L 90.828125 119.417969 L 29.171875 111.847656 Z M 74.125 0.582031 "/>
<path style=" stroke:none;fill-rule:nonzero;fill:rgb(0%,0%,100%);fill-opacity:0.00392157;" d="M 76.132812 0.445312 L 90.757812 119.554688 L 29.242188 110.90625 Z M 76.132812 0.445312 "/>
<path style=" stroke:none;fill-rule:nonzero;fill:rgb(0%,0%,100%);fill-opacity:0.00392157;" d="M 78.132812 0.328125 L 90.675781 119.671875 L 29.324219 109.953125 Z M 78.132812 0.328125 "/>
<path style=" stroke:none;fill-rule:nonzero;fill:rgb(0%,0%,100%);fill-opacity:0.00392157;" d="M 80.128906 0.226562 L 90.585938 119.773438 L 29.414062 108.984375 Z M 80.128906 0.226562 "/>
<path style=" stroke:none;fill-rule:nonzero;fill:rgb(0%,0%,100%);fill-opacity:0.00392157;" d="M 82.117188 0.144531 L 90.488281 119.855469 L 29.511719 108 Z M 82.117188 0.144531 "/>
<path style=" stroke:none;fill-rule:nonzero;fill:rgb(0%,0%,100%);fill-opacity:0.00392157;" d="M 84.097656 0.0820312 L 90.378906 119.917969 L 29.621094 107.003906 Z M 84.097656 0.0820312 "/>
<path style=" stroke:none;fill-rule:nonzero;fill:rgb(0%,0%,100%);fill-opacity:0.00392157;" d="M 86.074219 0.0351562 L 90.261719 119.964844 L 29.738281 105.992188 Z M 86.074219 0.0351562 "/>
<path style=" stroke:none;fill-rule:nonzero;fill:rgb(0%,0%,100%);fill-opacity:0.00392157;" d="M 88.042969 0.0078125 L 90.136719 119.992188 L 29.863281 104.964844 Z M 88.042969 0.0078125 "/>
<path style=" stroke:none;fill-rule:nonzero;fill:rgb(0%,0%,100%);fill-opacity:0.00392157;" d="M 90 0 L 90 120 L 30 103.921875 Z M 90 0 "/>
<path style=" stroke:none;fill-rule:nonzero;fill:rgb(0%,0%,100%);fill-opacity:0.00392157;" d="M 90.902344 0.0078125 L 88.808594 119.992188 L 29.097656 102.871094 Z M 90.902344 0.0078125 "/>
<path style=" stroke:none;fill-rule:nonzero;fill:rgb(0%,0%,100%);fill-opacity:0.00392157;" d="M 91.796875 0.0351562 L 87.605469 119.964844 L 28.203125 101.800781 Z M 91.796875 0.0351562 "/>
<path style=" stroke:none;fill-rule:nonzero;fill:rgb(0%,0%,100%);fill-opacity:0.00392157;" d="M 92.679688 0.0820312 L 86.398438 119.917969 L 27.320312 100.722656 Z M 92.679688 0.0820312 "/>
<path style=" stroke:none;fill-rule:nonzero;fill:rgb(0%,0%,100%);fill-opacity:0.00392157;" d="M 93.550781 0.144531 L 85.179688 119.855469 L 26.449219 99.628906 Z M 93.550781 0.144531 "/>
<path style=" stroke:none;fill-rule:nonzero;fill:rgb(0%,0%,100%);fill-opacity:0.00392157;" d="M 94.414062 0.226562 L 83.957031 119.773438 L 25.585938 98.527344 Z M 94.414062 0.226562 "/>
<path style=" stroke:none;fill-rule:nonzero;fill:rgb(0%,0%,100%);fill-opacity:0.00392157;" d="M 95.265625 0.328125 L 82.722656 119.671875 L 24.734375 97.410156 Z M 95.265625 0.328125 "/>
<path style=" stroke:none;fill-rule:nonzero;fill:rgb(0%,0%,100%);fill-opacity:0.00392157;" d="M 96.109375 0.445312 L 81.484375 119.554688 L 23.890625 96.285156 Z M 96.109375 0.445312 "/>
<path style=" stroke:none;fill-rule:nonzero;fill:rgb(0%,0%,100%);fill-opacity:0.00392157;" d="M 96.941406 0.582031 L 80.238281 119.417969 L 23.058594 95.144531 Z M 96.941406 0.582031 "/>
<path style=" stroke:none;fill-rule:nonzero;fill:rgb(0%,0%,100%);fill-opacity:0.00392157;" d="M 97.757812 0.738281 L 78.988281 119.261719 L 22.242188 93.996094 Z M 97.757812 0.738281 "/>
<path style=" stroke:none;fill-rule:nonzero;fill:rgb(0%,0%,100%);fill-opacity:0.00392157;" d="M 98.566406 0.910156 L 77.730469 119.089844 L 21.433594 92.835938 Z M 98.566406 0.910156 "/>
<path style=" stroke:none;fill-rule:nonzero;fill:rgb(0%,0%,100%);fill-opacity:0.00392157;" d="M 99.363281 1.101562 L 76.464844 118.898438 L 20.636719 91.667969 Z M 99.363281 1.101562 "/>
<path style=" stroke:none;fill-rule:nonzero;fill:rgb(0%,0%,100%);fill-opacity:0.00392157;" d="M 100.148438 1.3125 L 75.199219 118.6875 L 19.851562 90.488281 Z M 100.148438 1.3125 "/>
<path style=" stroke:none;fill-rule:nonzero;fill:rgb(0%,0%,100%);fill-opacity:0.00392157;" d="M 100.917969 1.539062 L 73.925781 118.460938 L 19.082031 89.300781 Z M 100.917969 1.539062 "/>
<path style=" stroke:none;fill-rule:nonzero;fill:rgb(0%,0%,100%);fill-opacity:0.00392157;" d="M 101.679688 1.78125 L 72.648438 118.21875 L 18.320312 88.101562 Z M 101.679688 1.78125 "/>
<path style=" stroke:none;fill-rule:nonzero;fill:rgb(0%,0%,100%);fill-opacity:0.00392157;" d="M 102.425781 2.042969 L 71.367188 117.957031 L 17.574219 86.898438 Z M 102.425781 2.042969 "/>
<path style=" stroke:none;fill-rule:nonzero;fill:rgb(0%,0%,100%);fill-opacity:0.00392157;" d="M 103.160156 2.324219 L 70.082031 117.675781 L 16.839844 85.683594 Z M 103.160156 2.324219 "/>
<path style=" stroke:none;fill-rule:nonzero;fill:rgb(0%,0%,100%);fill-opacity:0.00392157;" d="M 103.882812 2.621094 L 68.796875 117.378906 L 16.117188 84.460938 Z M 103.882812 2.621094 "/>
<path style=" stroke:none;fill-rule:nonzero;fill:rgb(0%,0%,100%);fill-opacity:0.00392157;" d="M 104.589844 2.9375 L 67.507812 117.0625 L 15.410156 83.230469 Z M 104.589844 2.9375 "/>
<path style=" stroke:none;fill-rule:nonzero;fill:rgb(0%,0%,100%);fill-opacity:0.00392157;" d="M 105.28125 3.269531 L 66.214844 116.730469 L 14.71875 81.996094 Z M 105.28125 3.269531 "/>
<path style=" stroke:none;fill-rule:nonzero;fill:rgb(0%,0%,100%);fill-opacity:0.00392157;" d="M 105.960938 3.617188 L 64.921875 116.382812 L 14.039062 80.753906 Z M 105.960938 3.617188 "/>
<path style=" stroke:none;fill-rule:nonzero;fill:rgb(0%,0%,100%);fill-opacity:0.00392157;" d="M 106.628906 3.984375 L 63.625 116.015625 L 13.371094 79.503906 Z M 106.628906 3.984375 "/>
<path style=" stroke:none;fill-rule:nonzero;fill:rgb(0%,0%,100%);fill-opacity:0.00392157;" d="M 107.28125 4.367188 L 62.328125 115.632812 L 12.71875 78.25 Z M 107.28125 4.367188 "/>
<path style=" stroke:none;fill-rule:nonzero;fill:rgb(0%,0%,100%);fill-opacity:0.00392157;" d="M 107.917969 4.769531 L 61.03125 115.230469 L 12.082031 76.988281 Z M 107.917969 4.769531 "/>
<path style=" stroke:none;fill-rule:nonzero;fill:rgb(0%,0%,100%);fill-opacity:0.00392157;" d="M 108.542969 5.1875 L 59.734375 114.8125 L 11.457031 75.722656 Z M 108.542969 5.1875 "/>
<path style=" stroke:none;fill-rule:nonzero;fill:rgb(0%,0%,100%);fill-opacity:0.00392157;" d="M 109.148438 5.621094 L 58.433594 114.378906 L 10.851562 74.449219 Z M 109.148438 5.621094 "/>
<path style=" stroke:none;fill-rule:nonzero;fill:rgb(0%,0%,100%);fill-opacity:0.00392157;" d="M 109.742188 6.074219 L 57.136719 113.925781 L 10.257812 73.175781 Z M 109.742188 6.074219 "/>
<path style=" stroke:none;fill-rule:nonzero;fill:rgb(0%,0%,100%);fill-opacity:0.00392157;" d="M 110.320312 6.539062 L 55.839844 113.460938 L 9.679688 71.894531 Z M 110.320312 6.539062 "/>
<path style=" stroke:none;fill-rule:nonzero;fill:rgb(0%,0%,100%);fill-opacity:0.00392157;" d="M 110.882812 7.023438 L 54.546875 112.976562 L 9.117188 70.613281 Z M 110.882812 7.023438 "/>
<path style=" stroke:none;fill-rule:nonzero;fill:rgb(0%,0%,100%);fill-opacity:0.00392157;" d="M 111.429688 7.523438 L 53.253906 112.476562 L 8.570312 69.328125 Z M 111.429688 7.523438 "/>
<path style=" stroke:none;fill-rule:nonzero;fill:rgb(0%,0%,100%);fill-opacity:0.00392157;" d="M 111.960938 8.039062 L 51.960938 111.960938 L 8.039062 68.039062 Z M 111.960938 8.039062 "/>
<path style=" stroke:none;fill-rule:nonzero;fill:rgb(0%,0%,100%);fill-opacity:0.00392157;" d="M 112.476562 8.570312 L 50.671875 111.429688 L 7.523438 66.746094 Z M 112.476562 8.570312 "/>
<path style=" stroke:none;fill-rule:nonzero;fill:rgb(0%,0%,100%);fill-opacity:0.00392157;" d="M 112.976562 9.117188 L 49.386719 110.882812 L 7.023438 65.453125 Z M 112.976562 9.117188 "/>
<path style=" stroke:none;fill-rule:nonzero;fill:rgb(0%,0%,100%);fill-opacity:0.00392157;" d="M 113.460938 9.679688 L 48.105469 110.320312 L 6.539062 64.160156 Z M 113.460938 9.679688 "/>
<path style=" stroke:none;fill-rule:nonzero;fill:rgb(0%,0%,100%);fill-opacity:0.00392157;" d="M 113.925781 10.257812 L 46.824219 109.742188 L 6.074219 62.863281 Z M 113.925781 10.257812 "/>
<path style=" stroke:none;fill-rule:nonzero;fill:rgb(0%,0%,100%);fill-opacity:0.00392157;" d="M 114.378906 10.851562 L 45.550781 109.148438 L 5.621094 61.566406 Z M 114.378906 10.851562 "/>
<path style=" stroke:none;fill-rule:nonzero;fill:rgb(0%,0%,100%);fill-opacity:0.00392157;" d="M 114.8125 11.457031 L 44.277344 108.542969 L 5.1875 60.265625 Z M 114.8125 11.457031 "/>
<path style=" stroke:none;fill-rule:nonzero;fill:rgb(0%,0%,100%);fill-opacity:0.00392157;" d="M 115.230469 12.082031 L 43.011719 107.917969 L 4.769531 58.96875 Z M 115.230469 12.082031 "/>
<path style=" stroke:none;fill-rule:nonzero;fill:rgb(0%,0%,100%);fill-opacity:0.00392157;" d="M 115.632812 12.71875 L 41.75 107.28125 L 4.367188 57.671875 Z M 115.632812 12.71875 "/>
<path style=" stroke:none;fill-rule:nonzero;fill:rgb(0%,0%,100%);fill-opacity:0.00392157;" d="M 116.015625 13.371094 L 40.496094 106.628906 L 3.984375 56.375 Z M 116.015625 13.371094 "/>
<path style=" stroke:none;fill-rule:nonzero;fill:rgb(0%,0%,100%);fill-opacity:0.00392157;" d="M 116.382812 14.039062 L 39.246094 105.960938 L 3.617188 55.078125 Z M 116.382812 14.039062 "/>
<path style=" stroke:none;fill-rule:nonzero;fill:rgb(0%,0%,100%);fill-opacity:0.00392157;" d="M 116.730469 14.71875 L 38.003906 105.28125 L 3.269531 53.785156 Z M 116.730469 14.71875 "/>
<path style=" stroke:none;fill-rule:nonzero;fill:rgb(0%,0%,100%);fill-opacity:0.00392157;" d="M 117.0625 15.410156 L 36.769531 104.589844 L 2.9375 52.492188 Z M 117.0625 15.410156 "/>
<path style=" stroke:none;fill-rule:nonzero;fill:rgb(0%,0%,100%);fill-opacity:0.00392157;" d="M 117.378906 16.117188 L 35.539062 103.882812 L 2.621094 51.203125 Z M 117.378906 16.117188 "/>
<path style=" stroke:none;fill-rule:nonzero;fill:rgb(0%,0%,100%);fill-opacity:0.00392157;" d="M 117.675781 16.839844 L 34.316406 103.160156 L 2.324219 49.917969 Z M 117.675781 16.839844 "/>
<path style=" stroke:none;fill-rule:nonzero;fill:rgb(0%,0%,100%);fill-opacity:0.00392157;" d="M 117.957031 17.574219 L 33.101562 102.425781 L 2.042969 48.632812 Z M 117.957031 17.574219 "/>
<path style=" stroke:none;fill-rule:nonzero;fill:rgb(0%,0%,100%);fill-opacity:0.00392157;" d="M 118.21875 18.320312 L 31.898438 101.679688 L 1.78125 47.351562 Z M 118.21875 18.320312 "/>
<path style=" stroke:none;fill-rule:nonzero;fill:rgb(0%,0%,100%);fill-opacity:0.00392157;" d="M 118.460938 19.082031 L 30.699219 100.917969 L 1.539062 46.074219 Z M 118.460938 19.082031 "/>
<path style=" stroke:none;fill-rule:nonzero;fill:rgb(0%,0%,100%);fill-opacity:0.00392157;" d="M 118.6875 19.851562 L 29.511719 100.148438 L 1.3125 44.800781 Z M 118.6875 19.851562 "/>
<path style=" stroke:none;fill-rule:nonzero;fill:rgb(0%,0%,100%);fill-opacity:0.00392157;" d="M 118.898438 20.636719 L 28.332031 99.363281 L 1.101562 43.535156 Z M 118.898438 20.636719 "/>
<path style=" stroke:none;fill-rule:nonzero;fill:rgb(0%,0%,100%);fill-opacity:0.00392157;" d="M 119.089844 21.433594 L 27.164062 98.566406 L 0.910156 42.269531 Z M 119.089844 21.433594 "/>
<path style=" stroke:none;fill-rule:nonzero;fill:rgb(0%,0%,100%);fill-opacity:0.00392157;" d="M 119.261719 22.242188 L 26.003906 97.757812 L 0.738281 41.011719 Z M 119.261719 22.242188 "/>
<path style=" stroke:none;fill-rule:nonzero;fill:rgb(0%,0%,100%);fill-opacity:0.00392157;" d="M 119.417969 23.058594 L 24.855469 96.941406 L 0.582031 39.761719 Z M 119.417969 23.058594 "/>
<path style=" stroke:none;fill-rule:nonzero;fill:rgb(0%,0%,100%);fill-opacity:0.00392157;" d="M 119.554688 23.890625 L 23.714844 96.109375 L 0.445312 38.515625 Z M 119.554688 23.890625 "/>
<path style=" stroke:none;fill-rule:nonzero;fill:rgb(0%,0%,100%);fill-opacity:0.00392157;" d="M 119.671875 24.734375 L 22.589844 95.265625 L 0.328125 37.277344 Z M 119.671875 24.734375 "/>
<path style=" stroke:none;fill-rule:nonzero;fill:rgb(0%,0%,100%);fill-opacity:0.00392157;" d="M 119.773438 25.585938 L 21.472656 94.414062 L 0.226562 36.042969 Z M 119.773438 25.585938 "/>
<path style=" stroke:none;fill-rule:nonzero;fill:rgb(0%,0%,100%);fill-opacity:0.00392157;" d="M 119.855469 26.449219 L 20.371094 93.550781 L 0.144531 34.820312 Z M 119.855469 26.449219 "/>
<path style=" stroke:none;fill-rule:nonzero;fill:rgb(0%,0%,100%);fill-opacity:0.00392157;" d="M 119.917969 27.320312 L 19.277344 92.679688 L 0.0820312 33.601562 Z M 119.917969 27.320312 "/>
<path style=" stroke:none;fill-rule:nonzero;fill:rgb(0%,0%,100%);fill-opacity:0.00392157;" d="M 119.964844 28.203125 L 18.199219 91.796875 L 0.0351562 32.394531 Z M 119.964844 28.203125 "/>
<path style=" stroke:none;fill-rule:nonzero;fill:rgb(0%,0%,100%);fill-opacity:0.00392157;" d="M 119.992188 29.097656 L 17.128906 90.902344 L 0.0078125 31.191406 Z M 119.992188 29.097656 "/>
<path style=" stroke:none;fill-rule:nonzero;fill:rgb(0%,0%,100%);fill-opacity:0.00392157;" d="M 120 30 L 16.078125 90 L 0 30 Z M 120 30 "/>
<path style=" stroke:none;fill-rule:nonzero;fill:rgb(0%,0%,100%);fill-opacity:0.00392157;" d="M 119.992188 31.957031 L 15.035156 90.136719 L 0.0078125 29.863281 Z M 119.992188 31.957031 "/>
<path style=" stroke:none;fill-rule:nonzero;fill:rgb(0%,0%,100%);fill-opacity:0.00392157;" d="M 119.964844 33.925781 L 14.007812 90.261719 L 0.0351562 29.738281 Z M 119.964844 33.925781 "/>
<path style=" stroke:none;fill-rule:nonzero;fill:rgb(0%,0%,100%);fill-opacity:0.00392157;" d="M 119.917969 35.902344 L 12.996094 90.378906 L 0.0820312 29.621094 Z M 119.917969 35.902344 "/>
<path style=" stroke:none;fill-rule:nonzero;fill:rgb(0%,0%,100%);fill-opacity:0.00392157;" d="M 119.855469 37.882812 L 12 90.488281 L 0.144531 29.511719 Z M 119.855469 37.882812 "/>
<path style=" stroke:none;fill-rule:nonzero;fill:rgb(0%,0%,100%);fill-opacity:0.00392157;" d="M 119.773438 39.871094 L 11.015625 90.585938 L 0.226562 29.414062 Z M 119.773438 39.871094 "/>
<path style=" stroke:none;fill-rule:nonzero;fill:rgb(0%,0%,100%);fill-opacity:0.00392157;" d="M 119.671875 41.867188 L 10.046875 90.675781 L 0.328125 29.324219 Z M 119.671875 41.867188 "/>
<path style=" stroke:none;fill-rule:nonzero;fill:rgb(0%,0%,100%);fill-opacity:0.00392157;" d="M 119.554688 43.867188 L 9.09375 90.757812 L 0.445312 29.242188 Z M 119.554688 43.867188 "/>
<path style=" stroke:none;fill-rule:nonzero;fill:rgb(0%,0%,100%);fill-opacity:0.00392157;" d="M 119.417969 45.875 L 8.152344 90.828125 L 0.582031 29.171875 Z M 119.417969 45.875 "/>
<path style=" stroke:none;fill-rule:nonzero;fill:rgb(0%,0%,100%);fill-opacity:0.00392157;" d="M 119.261719 47.882812 L 7.230469 90.886719 L 0.738281 29.113281 Z M 119.261719 47.882812 "/>
<path style=" stroke:none;fill-rule:nonzero;fill:rgb(0%,0%,100%);fill-opacity:0.00392157;" d="M 119.089844 49.898438 L 6.324219 90.941406 L 0.910156 29.058594 Z M 119.089844 49.898438 "/>
<path style=" stroke:none;fill-rule:nonzero;fill:rgb(0%,0%,100%);fill-opacity:0.00392157;" d="M 118.898438 51.914062 L 5.433594 90.984375 L 1.101562 29.015625 Z M 118.898438 51.914062 "/>
<path style=" stroke:none;fill-rule:nonzero;fill:rgb(0%,0%,100%);fill-opacity:0.00392157;" d="M 118.6875 53.933594 L 4.5625 91.015625 L 1.3125 28.984375 Z M 118.6875 53.933594 "/>
<path style=" stroke:none;fill-rule:nonzero;fill:rgb(0%,0%,100%);fill-opacity:0.00392157;" d="M 118.460938 55.953125 L 3.707031 91.039062 L 1.539062 28.960938 Z M 118.460938 55.953125 "/>
<path style=" stroke:none;fill-rule:nonzero;fill:rgb(0%,0%,100%);fill-opacity:0.00392157;" d="M 118.21875 57.976562 L 2.867188 91.054688 L 1.78125 28.945312 Z M 118.21875 57.976562 "/>
<path style=" stroke:none;fill-rule:nonzero;fill:rgb(0%,0%,100%);fill-opacity:0.00392157;" d="M 117.957031 60 L 2.042969 91.058594 L 2.042969 28.941406 Z M 117.957031 60 "/>
<path style=" stroke:none;fill-rule:nonzero;fill:rgb(0%,0%,100%);fill-opacity:0.00392157;" d="M 118.21875 62.023438 L 1.78125 91.054688 L 2.867188 28.945312 Z M 118.21875 62.023438 "/>
<path style=" stroke:none;fill-rule:nonzero;fill:rgb(0%,0%,100%);fill-opacity:0.00392157;" d="M 118.460938 64.046875 L 1.539062 91.039062 L 3.707031 28.960938 Z M 118.460938 64.046875 "/>
<path style=" stroke:none;fill-rule:nonzero;fill:rgb(0%,0%,100%);fill-opacity:0.00392157;" d="M 118.6875 66.066406 L 1.3125 91.015625 L 4.5625 28.984375 Z M 118.6875 66.066406 "/>
<path style=" stroke:none;fill-rule:nonzero;fill:rgb(0%,0%,100%);fill-opacity:0.00392157;" d="M 118.898438 68.085938 L 1.101562 90.984375 L 5.433594 29.015625 Z M 118.898438 68.085938 "/>
<path style=" stroke:none;fill-rule:nonzero;fill:rgb(0%,0%,100%);fill-opacity:0.00392157;" d="M 119.089844 70.101562 L 0.910156 90.941406 L 6.324219 29.058594 Z M 119.089844 70.101562 "/>
<path style=" stroke:none;fill-rule:nonzero;fill:rgb(0%,0%,100%);fill-opacity:0.00392157;" d="M 119.261719 72.117188 L 0.738281 90.886719 L 7.230469 29.113281 Z M 119.261719 72.117188 "/>
<path style=" stroke:none;fill-rule:nonzero;fill:rgb(0%,0%,100%);fill-opacity:0.00392157;" d="M 119.417969 74.125 L 0.582031 90.828125 L 8.152344 29.171875 Z M 119.417969 74.125 "/>
<path style=" stroke:none;fill-rule:nonzero;fill:rgb(0%,0%,100%);fill-opacity:0.00392157;" d="M 119.554688 76.132812 L 0.445312 90.757812 L 9.09375 29.242188 Z M 119.554688 76.132812 "/>
<path style=" stroke:none;fill-rule:nonzero;fill:rgb(0%,0%,100%);fill-opacity:0.00392157;" d="M 119.671875 78.132812 L 0.328125 90.675781 L 10.046875 29.324219 Z M 119.671875 78.132812 "/>
<path style=" stroke:none;fill-rule:nonzero;fill:rgb(0%,0%,100%);fill-opacity:0.00392157;" d="M 119.773438 80.128906 L 0.226562 90.585938 L 11.015625 29.414062 Z M 119.773438 80.128906 "/>
<path style=" stroke:none;fill-rule:nonzero;fill:rgb(0%,0%,100%);fill-opacity:0.00392157;" d="M 119.855469 82.117188 L 0.144531 90.488281 L 12 29.511719 Z M 119.855469 82.117188 "/>
<path style=" stroke:none;fill-rule:nonzero;fill:rgb(0%,0%,100%);fill-opacity:0.00392157;" d="M 119.917969 84.097656 L 0.0820312 90.378906 L 12.996094 29.621094 Z M 119.917969 84.097656 "/>
<path style=" stroke:none;fill-rule:nonzero;fill:rgb(0%,0%,100%);fill-opacity:0.00392157;" d="M 119.964844 86.074219 L 0.0351562 90.261719 L 14.007812 29.738281 Z M 119.964844 86.074219 "/>
<path style=" stroke:none;fill-rule:nonzero;fill:rgb(0%,0%,100%);fill-opacity:0.00392157;" d="M 119.992188 88.042969 L 0.0078125 90.136719 L 15.035156 29.863281 Z M 119.992188 88.042969 "/>
<path style=" stroke:none;fill-rule:nonzero;fill:rgb(0%,0%,100%);fill-opacity:0.00392157;" d="M 120 90 L 0 90 L 16.078125 30 Z M 120 90 "/>
<path style=" stroke:none;fill-rule:nonzero;fill:rgb(0%,0%,100%);fill-opacity:0.00392157;" d="M 119.992188 90.902344 L 0.0078125 88.808594 L 17.128906 29.097656 Z M 119.992188 90.902344 "/>
<path style=" stroke:none;fill-rule:nonzero;fill:rgb(0%,0%,100%);fill-opacity:0.00392157;" d="M 119.964844 91.796875 L 0.0351562 87.605469 L 18.199219 28.203125 Z M 119.964844 91.796875 "/>
<path style=" stroke:none;fill-rule:nonzero;fill:rgb(0%,0%,100%);fill-opacity:0.00392157;" d="M 119.917969 92.679688 L 0.0820312 86.398438 L 19.277344 27.320312 Z M 119.917969 92.679688 "/>
<path style=" stroke:none;fill-rule:nonzero;fill:rgb(0%,0%,100%);fill-opacity:0.00392157;" d="M 119.855469 93.550781 L 0.144531 85.179688 L 20.371094 26.449219 Z M 119.855469 93.550781 "/>
<path style=" stroke:none;fill-rule:nonzero;fill:rgb(0%,0%,100%);fill-opacity:0.00392157;" d="M 119.773438 94.414062 L 0.226562 83.957031 L 21.472656 25.585938 Z M 119.773438 94.414062 "/>
<path style=" stroke:none;fill-rule:nonzero;fill:rgb(0%,0%,100%);fill-opacity:0.00392157;" d="M 119.671875 95.265625 L 0.328125 82.722656 L 22.589844 24.734375 Z M 119.671875 95.265625 "/>
<path style=" stroke:none;fill-rule:nonzero;fill:rgb(0%,0%,100%);fill-opacity:0.00392157;" d="M 119.554688 96.109375 L 0.445312 81.484375 L 23.714844 23.890625 Z M 119.554688 96.109375 "/>
<path style=" stroke:none;fill-rule:nonzero;fill:rgb(0%,0%,100%);fill-opacity:0.00392157;" d="M 119.417969 96.941406 L 0.582031 80.238281 L 24.855469 23.058594 Z M 119.417969 96.941406 "/>
<path style=" stroke:none;fill-rule:nonzero;fill:rgb(0%,0%,100%);fill-opacity:0.00392157;" d="M 119.261719 97.757812 L 0.738281 78.988281 L 26.003906 22.242188 Z M 119.261719 97.757812 "/>
<path style=" stroke:none;fill-rule:nonzero;fill:rgb(0%,0%,100%);fill-opacity:0.00392157;" d="M 119.089844 98.566406 L 0.910156 77.730469 L 27.164062 21.433594 Z M 119.089844 98.566406 "/>
<path style=" stroke:none;fill-rule:nonzero;fill:rgb(0%,0%,100%);fill-opacity:0.00392157;" d="M 118.898438 99.363281 L 1.101562 76.464844 L 28.332031 20.636719 Z M 118.898438 99.363281 "/>
<path style=" stroke:none;fill-rule:nonzero;fill:rgb(0%,0%,100%);fill-opacity:0.00392157;" d="M 118.6875 100.148438 L 1.3125 75.199219 L 29.511719 19.851562 Z M 118.6875 100.148438 "/>
<path style=" stroke:none;fill-rule:nonzero;fill:rgb(0%,0%,100%);fill-opacity:0.00392157;" d="M 118.460938 100.917969 L 1.539062 73.925781 L 30.699219 19.082031 Z M 118.460938 100.917969 "/>
<path style=" stroke:none;fill-rule:nonzero;fill:rgb(0%,0%,100%);fill-opacity:0.00392157;" d="M 118.21875 101.679688 L 1.78125 72.648438 L 31.898438 18.320312 Z M 118.21875 101.679688 "/>
<path style=" stroke:none;fill-rule:nonzero;fill:rgb(0%,0%,100%);fill-opacity:0.00392157;" d="M 117.957031 102.425781 L 2.042969 71.367188 L 33.101562 17.574219 Z M 117.957031 102.425781 "/>
<path style=" stroke:none;fill-rule:nonzero;fill:rgb(0%,0%,100%);fill-opacity:0.00392157;" d="M 117.675781 103.160156 L 2.324219 70.082031 L 34.316406 16.839844 Z M 117.675781 103.160156 "/>
<path style=" stroke:none;fill-rule:nonzero;fill:rgb(0%,0%,100%);fill-opacity:0.00392157;" d="M 117.378906 103.882812 L 2.621094 68.796875 L 35.539062 16.117188 Z M 117.378906 103.882812 "/>
<path style=" stroke:none;fill-rule:nonzero;fill:rgb(0%,0%,100%);fill-opacity:0.00392157;" d="M 117.0625 104.589844 L 2.9375 67.507812 L 36.769531 15.410156 Z M 117.0625 104.589844 "/>
<path style=" stroke:none;fill-rule:nonzero;fill:rgb(0%,0%,100%);fill-opacity:0.00392157;" d="M 116.730469 105.28125 L 3.269531 66.214844 L 38.003906 14.71875 Z M 116.730469 105.28125 "/>
<path style=" stroke:none;fill-rule:nonzero;fill:rgb(0%,0%,100%);fill-opacity:0.00392157;" d="M 116.382812 105.960938 L 3.617188 64.921875 L 39.246094 14.039062 Z M 116.382812 105.960938 "/>
<path style=" stroke:none;fill-rule:nonzero;fill:rgb(0%,0%,100%);fill-opacity:0.00392157;" d="M 116.015625 106.628906 L 3.984375 63.625 L 40.496094 13.371094 Z M 116.015625 106.628906 "/>
<path style=" stroke:none;fill-rule:nonzero;fill:rgb(0%,0%,100%);fill-opacity:0.00392157;" d="M 115.632812 107.28125 L 4.367188 62.328125 L 41.75 12.71875 Z M 115.632812 107.28125 "/>
<path style=" stroke:none;fill-rule:nonzero;fill:rgb(0%,0%,100%);fill-opacity:0.00392157;" d="M 115.230469 107.917969 L 4.769531 61.03125 L 43.011719 12.082031 Z M 115.230469 107.917969 "/>
<path style=" stroke:none;fill-rule:nonzero;fill:rgb(0%,0%,100%);fill-opacity:0.00392157;" d="M 114.8125 108.542969 L 5.1875 59.734375 L 44.277344 11.457031 Z M 114.8125 108.542969 "/>
<path style=" stroke:none;fill-rule:nonzero;fill:rgb(0%,0%,100%);fill-opacity:0.00392157;" d="M 114.378906 109.148438 L 5.621094 58.433594 L 45.550781 10.851562 Z M 114.378906 109.148438 "/>
<path style=" stroke:none;fill-rule:nonzero;fill:rgb(0%,0%,100%);fill-opacity:0.00392157;" d="M 113.925781 109.742188 L 6.074219 57.136719 L 46.824219 10.257812 Z M 113.925781 109.742188 "/>
<path style=" stroke:none;fill-rule:nonzero;fill:rgb(0%,0%,100%);fill-opacity:0.00392157;" d="M 113.460938 110.320312 L 6.539062 55.839844 L 48.105469 9.679688 Z M 113.460938 110.320312 "/>
<path style=" stroke:none;fill-rule:nonzero;fill:rgb(0%,0%,100%);fill-opacity:0.00392157;" d="M 112.976562 110.882812 L 7.023438 54.546875 L 49.386719 9.117188 Z M 112.976562 110.882812 "/>
<path style=" stroke:none;fill-rule:nonzero;fill:rgb(0%,0%,100%);fill-opacity:0.00392157;" d="M 112.476562 111.429688 L 7.523438 53.253906 L 50.671875 8.570312 Z M 112.476562 111.429688 "/>
<path style=" stroke:none;fill-rule:nonzero;fill:rgb(0%,0%,100%);fill-opacity:0.00392157;" d="M 111.960938 111.960938 L 8.039062 51.960938 L 51.960938 8.039062 Z M 111.960938 111.960938 "/>
<path style=" stroke:none;fill-rule:nonzero;fill:rgb(0%,0%,100%);fill-opacity:0.00392157;" d="M 111.429688 112.476562 L 8.570312 50.671875 L 53.253906 7.523438 Z M 111.429688 112.476562 "/>
<path style=" stroke:none;fill-rule:nonzero;fill:rgb(0%,0%,100%);fill-opacity:0.00392157;" d="M 110.882812 112.976562 L 9.117188 49.386719 L 54.546875 7.023438 Z M 110.882812 112.976562 "/>
<path style=" stroke:none;fill-rule:nonzero;fill:rgb(0%,0%,100%);fill-opacity:0.00392157;" d="M 110.320312 113.460938 L 9.679688 48.105469 L 55.839844 6.539062 Z M 110.320312 113.460938 "/>
<path style=" stroke:none;fill-rule:nonzero;fill:rgb(0%,0%,100%);fill-opacity:0.00392157;" d="M 109.742188 113.925781 L 10.257812 46.824219 L 57.136719 6.074219 Z M 109.742188 113.925781 "/>
<path style=" stroke:none;fill-rule:nonzero;fill:rgb(0%,0%,100%);fill-opacity:0.00392157;" d="M 109.148438 114.378906 L 10.851562 45.550781 L 58.433594 5.621094 Z M 109.148438 114.378906 "/>
<path style=" stroke:none;fill-rule:nonzero;fill:rgb(0%,0%,100%);fill-opacity:0.00392157;" d="M 108.542969 114.8125 L 11.457031 44.277344 L 59.734375 5.1875 Z M 108.542969 114.8125 "/>
<path style=" stroke:none;fill-rule:nonzero;fill:rgb(0%,0%,100%);fill-opacity:0.00392157;" d="M 107.917969 115.230469 L 12.082031 43.011719 L 61.03125 4.769531 Z M 107.917969 115.230469 "/>
<path style=" stroke:none;fill-rule:nonzero;fill:rgb(0%,0%,100%);fill-opacity:0.00392157;" d="M 107.28125 115.632812 L 12.71875 41.75 L 62.328125 4.367188 Z M 107.28125 115.632812 "/>
<path style=" stroke:none;fill-rule:nonzero;fill:rgb(0%,0%,100%);fill-opacity:0.00392157;" d="M 106.628906 116.015625 L 13.371094 40.496094 L 63.625 3.984375 Z M 106.628906 116.015625 "/>
<path style=" stroke:none;fill-rule:nonzero;fill:rgb(0%,0%,100%);fill-opacity:0.00392157;" d="M 105.960938 116.382812 L 14.039062 39.246094 L 64.921875 3.617188 Z M 105.960938 116.382812 "/>
<path style=" stroke:none;fill-rule:nonzero;fill:rgb(0%,0%,100%);fill-opacity:0.00392157;" d="M 105.28125 116.730469 L 14.71875 38.003906 L 66.214844 3.269531 Z M 105.28125 116.730469 "/>
<path style=" stroke:none;fill-rule:nonzero;fill:rgb(0%,0%,100%);fill-opacity:0.00392157;" d="M 104.589844 117.0625 L 15.410156 36.769531 L 67.507812 2.9375 Z M 104.589844 117.0625 "/>
<path style=" stroke:none;fill-rule:nonzero;fill:rgb(0%,0%,100%);fill-opacity:0.00392157;" d="M 103.882812 117.378906 L 16.117188 35.539062 L 68.796875 2.621094 Z M 103.882812 117.378906 "/>
<path style=" stroke:none;fill-rule:nonzero;fill:rgb(0%,0%,100%);fill-opacity:0.00392157;" d="M 103.160156 117.675781 L 16.839844 34.316406 L 70.082031 2.324219 Z M 103.160156 117.675781 "/>
<path style=" stroke:none;fill-rule:nonzero;fill:rgb(0%,0%,100%);fill-opacity:0.00392157;" d="M 102.425781 117.957031 L 17.574219 33.101562 L 71.367188 2.042969 Z M 102.425781 117.957031 "/>
<path style=" stroke:none;fill-rule:nonzero;fill:rgb(0%,0%,100%);fill-opacity:0.00392157;" d="M 101.679688 118.21875 L 18.320312 31.898438 L 72.648438 1.78125 Z M 101.679688 118.21875 "/>
<path style=" stroke:none;fill-rule:nonzero;fill:rgb(0%,0%,100%);fill-opacity:0.00392157;" d="M 100.917969 118.460938 L 19.082031 30.699219 L 73.925781 1.539062 Z M 100.917969 118.460938 "/>
<path style=" stroke:none;fill-rule:nonzero;fill:rgb(0%,0%,100%);fill-opacity:0.00392157;" d="M 100.148438 118.6875 L 19.851562 29.511719 L 75.199219 1.3125 Z M 100.148438 118.6875 "/>
<path style=" stroke:none;fill-rule:nonzero;fill:rgb(0%,0%,100%);fill-opacity:0.00392157;" d="M 99.363281 118.898438 L 20.636719 28.332031 L 76.464844 1.101562 Z M 99.363281 118.898438 "/>
<path style=" stroke:none;fill-rule:nonzero;fill:rgb(0%,0%,100%);fill-opacity:0.00392157;" d="M 98.566406 119.089844 L 21.433594 27.164062 L 77.730469 0.910156 Z M 98.566406 119.089844 "/>
<path style=" stroke:none;fill-rule:nonzero;fill:rgb(0%,0%,100%);fill-opacity:0.00392157;" d="M 97.757812 119.261719 L 22.242188 26.003906 L 78.988281 0.738281 Z M 97.757812 119.261719 "/>
<path style=" stroke:none;fill-rule:nonzero;fill:rgb(0%,0%,100%);fill-opacity:0.00392157;" d="M 96.941406 119.417969 L 23.058594 24.855469 L 80.238281 0.582031 Z M 96.941406 119.417969 "/>
<path style=" stroke:none;fill-rule:nonzero;fill:rgb(0%,0%,100%);fill-opacity:0.00392157;" d="M 96.109375 119.554688 L 23.890625 23.714844 L 81.484375 0.445312 Z M 96.109375 119.554688 "/>
<path style=" stroke:none;fill-rule:nonzero;fill:rgb(0%,0%,100%);fill-opacity:0.00392157;" d="M 95.265625 119.671875 L 24.734375 22.589844 L 82.722656 0.328125 Z M 95.265625 119.671875 "/>
<path style=" stroke:none;fill-rule:nonzero;fill:rgb(0%,0%,100%);fill-opacity:0.00392157;" d="M 94.414062 119.773438 L 25.585938 21.472656 L 83.957031 0.226562 Z M 94.414062 119.773438 "/>
<path style=" stroke:none;fill-rule:nonzero;fill:rgb(0%,0%,100%);fill-opacity:0.00392157;" d="M 93.550781 119.855469 L 26.449219 20.371094 L 85.179688 0.144531 Z M 93.550781 119.855469 "/>
<path style=" stroke:none;fill-rule:nonzero;fill:rgb(0%,0%,100%);fill-opacity:0.00392157;" d="M 92.679688 119.917969 L 27.320312 19.277344 L 86.398438 0.0820312 Z M 92.679688 119.917969 "/>
<path style=" stroke:none;fill-rule:nonzero;fill:rgb(0%,0%,100%);fill-opacity:0.00392157;" d="M 91.796875 119.964844 L 28.203125 18.199219 L 87.605469 0.0351562 Z M 91.796875 119.964844 "/>
<path style=" stroke:none;fill-rule:nonzero;fill:rgb(0%,0%,100%);fill-opacity:0.00392157;" d="M 90.902344 119.992188 L 29.097656 17.128906 L 88.808594 0.0078125 Z M 90.902344 119.992188 "/>
<path style=" stroke:none;fill-rule:nonzero;fill:rgb(0%,0%,100%);fill-opacity:0.00392157;" d="M 90 120 L 30 16.078125 L 90 0 Z M 90 120 "/>
<path style=" stroke:none;fill-rule:nonzero;fill:rgb(0%,0%,100%);fill-opacity:0.00392157;" d="M 88.042969 119.992188 L 29.863281 15.035156 L 90.136719 0.0078125 Z M 88.042969 119.992188 "/>
<path style=" stroke:none;fill-rule:nonzero;fill:rgb(0%,0%,100%);fill-opacity:0.00392157;" d="M 86.074219 119.964844 L 29.738281 14.007812 L 90.261719 0.0351562 Z M 86.074219 119.964844 "/>
<path style=" stroke:none;fill-rule:nonzero;fill:rgb(0%,0%,100%);fill-opacity:0.00392157;" d="M 84.097656 119.917969 L 29.621094 12.996094 L 90.378906 0.0820312 Z M 84.097656 119.917969 "/>
<path style=" stroke:none;fill-rule:nonzero;fill:rgb(0%,0%,100%);fill-opacity:0.00392157;" d="M 82.117188 119.855469 L 29.511719 12 L 90.488281 0.144531 Z M 82.117188 119.855469 "/>
<path style=" stroke:none;fill-rule:nonzero;fill:rgb(0%,0%,100%);fill-opacity:0.00392157;" d="M 80.128906 119.773438 L 29.414062 11.015625 L 90.585938 0.226562 Z M 80.128906 119.773438 "/>
<path style=" stroke:none;fill-rule:nonzero;fill:rgb(0%,0%,100%);fill-opacity:0.00392157;" d="M 78.132812 119.671875 L 29.324219 10.046875 L 90.675781 0.328125 Z M 78.132812 119.671875 "/>
<path style=" stroke:none;fill-rule:nonzero;fill:rgb(0%,0%,100%);fill-opacity:0.00392157;" d="M 76.132812 119.554688 L 29.242188 9.09375 L 90.757812 0.445312 Z M 76.132812 119.554688 "/>
<path style=" stroke:none;fill-rule:nonzero;fill:rgb(0%,0%,100%);fill-opacity:0.00392157;" d="M 74.125 119.417969 L 29.171875 8.152344 L 90.828125 0.582031 Z M 74.125 119.417969 "/>
<path style=" stroke:none;fill-rule:nonzero;fill:rgb(0%,0%,100%);fill-opacity:0.00392157;" d="M 72.117188 119.261719 L 29.113281 7.230469 L 90.886719 0.738281 Z M 72.117188 119.261719 "/>
<path style=" stroke:none;fill-rule:nonzero;fill:rgb(0%,0%,100%);fill-opacity:0.00392157;" d="M 70.101562 119.089844 L 29.058594 6.324219 L 90.941406 0.910156 Z M 70.101562 119.089844 "/>
<path style=" stroke:none;fill-rule:nonzero;fill:rgb(0%,0%,100%);fill-opacity:0.00392157;" d="M 68.085938 118.898438 L 29.015625 5.433594 L 90.984375 1.101562 Z M 68.085938 118.898438 "/>
<path style=" stroke:none;fill-rule:nonzero;fill:rgb(0%,0%,100%);fill-opacity:0.00392157;" d="M 66.066406 118.6875 L 28.984375 4.5625 L 91.015625 1.3125 Z M 66.066406 118.6875 "/>
<path style=" stroke:none;fill-rule:nonzero;fill:rgb(0%,0%,100%);fill-opacity:0.00392157;" d="M 64.046875 118.460938 L 28.960938 3.707031 L 91.039062 1.539062 Z M 64.046875 118.460938 "/>
<path style=" stroke:none;fill-rule:nonzero;fill:rgb(0%,0%,100%);fill-opacity:0.00392157;" d="M 62.023438 118.21875 L 28.945312 2.867188 L 91.054688 1.78125 Z M 62.023438 118.21875 "/>
<path style=" stroke:none;fill-rule:nonzero;fill:rgb(0%,0%,100%);fill-opacity:0.00392157;" d="M 60 117.957031 L 28.941406 2.042969 L 91.058594 2.042969 Z M 60 117.957031 "/>
<path style=" stroke:none;fill-rule:nonzero;fill:rgb(0%,0%,100%);fill-opacity:0.00392157;" d="M 57.976562 118.21875 L 28.945312 1.78125 L 91.054688 2.867188 Z M 57.976562 118.21875 "/>
<path style=" stroke:none;fill-rule:nonzero;fill:rgb(0%,0%,100%);fill-opacity:0.00392157;" d="M 55.953125 118.460938 L 28.960938 1.539062 L 91.039062 3.707031 Z M 55.953125 118.460938 "/>
<path style=" stroke:none;fill-rule:nonzero;fill:rgb(0%,0%,100%);fill-opacity:0.00392157;" d="M 53.933594 118.6875 L 28.984375 1.3125 L 91.015625 4.5625 Z M 53.933594 118.6875 "/>
<path style=" stroke:none;fill-rule:nonzero;fill:rgb(0%,0%,100%);fill-opacity:0.00392157;" d="M 51.914062 118.898438 L 29.015625 1.101562 L 90.984375 5.433594 Z M 51.914062 118.898438 "/>
<path style=" stroke:none;fill-rule:nonzero;fill:rgb(0%,0%,100%);fill-opacity:0.00392157;" d="M 49.898438 119.089844 L 29.058594 0.910156 L 90.941406 6.324219 Z M 49.898438 119.089844 "/>
<path style=" stroke:none;fill-rule:nonzero;fill:rgb(0%,0%,100%);fill-opacity:0.00392157;" d="M 47.882812 119.261719 L 29.113281 0.738281 L 90.886719 7.230469 Z M 47.882812 119.261719 "/>
<path style=" stroke:none;fill-rule:nonzero;fill:rgb(0%,0%,100%);fill-opacity:0.00392157;" d="M 45.875 119.417969 L 29.171875 0.582031 L 90.828125 8.152344 Z M 45.875 119.417969 "/>
<path style=" stroke:none;fill-rule:nonzero;fill:rgb(0%,0%,100%);fill-opacity:0.00392157;" d="M 43.867188 119.554688 L 29.242188 0.445312 L 90.757812 9.09375 Z M 43.867188 119.554688 "/>
<path style=" stroke:none;fill-rule:nonzero;fill:rgb(0%,0%,100%);fill-opacity:0.00392157;" d="M 41.867188 119.671875 L 29.324219 0.328125 L 90.675781 10.046875 Z M 41.867188 119.671875 "/>
<path style=" stroke:none;fill-rule:nonzero;fill:rgb(0%,0%,100%);fill-opacity:0.00392157;" d="M 39.871094 119.773438 L 29.414062 0.226562 L 90.585938 11.015625 Z M 39.871094 119.773438 "/>
<path style=" stroke:none;fill-rule:nonzero;fill:rgb(0%,0%,100%);fill-opacity:0.00392157;" d="M 37.882812 119.855469 L 29.511719 0.144531 L 90.488281 12 Z M 37.882812 119.855469 "/>
<path style=" stroke:none;fill-rule:nonzero;fill:rgb(0%,0%,100%);fill-opacity:0.00392157;" d="M 35.902344 119.917969 L 29.621094 0.0820312 L 90.378906 12.996094 Z M 35.902344 119.917969 "/>
<path style=" stroke:none;fill-rule:nonzero;fill:rgb(0%,0%,100%);fill-opacity:0.00392157;" d="M 33.925781 119.964844 L 29.738281 0.0351562 L 90.261719 14.007812 Z M 33.925781 119.964844 "/>
<path style=" stroke:none;fill-rule:nonzero;fill:rgb(0%,0%,100%);fill-opacity:0.00392157;" d="M 31.957031 119.992188 L 29.863281 0.0078125 L 90.136719 15.035156 Z M 31.957031 119.992188 "/>
<path style=" stroke:none;fill-rule:nonzero;fill:rgb(0%,0%,100%);fill-opacity:0.00392157;" d="M 30 120 L 30 0 L 90 16.078125 Z M 30 120 "/>
<path style=" stroke:none;fill-rule:nonzero;fill:rgb(0%,0%,100%);fill-opacity:0.00392157;" d="M 29.097656 119.992188 L 31.191406 0.0078125 L 90.902344 17.128906 Z M 29.097656 119.992188 "/>
<path style=" stroke:none;fill-rule:nonzero;fill:rgb(0%,0%,100%);fill-opacity:0.00392157;" d="M 28.203125 119.964844 L 32.394531 0.0351562 L 91.796875 18.199219 Z M 28.203125 119.964844 "/>
<path style=" stroke:none;fill-rule:nonzero;fill:rgb(0%,0%,100%);fill-opacity:0.00392157;" d="M 27.320312 119.917969 L 33.601562 0.0820312 L 92.679688 19.277344 Z M 27.320312 119.917969 "/>
<path style=" stroke:none;fill-rule:nonzero;fill:rgb(0%,0%,100%);fill-opacity:0.00392157;" d="M 26.449219 119.855469 L 34.820312 0.144531 L 93.550781 20.371094 Z M 26.449219 119.855469 "/>
<path style=" stroke:none;fill-rule:nonzero;fill:rgb(0%,0%,100%);fill-opacity:0.00392157;" d="M 25.585938 119.773438 L 36.042969 0.226562 L 94.414062 21.472656 Z M 25.585938 119.773438 "/>
<path style=" stroke:none;fill-rule:nonzero;fill:rgb(0%,0%,100%);fill-opacity:0.00392157;" d="M 24.734375 119.671875 L 37.277344 0.328125 L 95.265625 22.589844 Z M 24.734375 119.671875 "/>
<path style=" stroke:none;fill-rule:nonzero;fill:rgb(0%,0%,100%);fill-opacity:0.00392157;" d="M 23.890625 119.554688 L 38.515625 0.445312 L 96.109375 23.714844 Z M 23.890625 119.554688 "/>
<path style=" stroke:none;fill-rule:nonzero;fill:rgb(0%,0%,100%);fill-opacity:0.00392157;" d="M 23.058594 119.417969 L 39.761719 0.582031 L 96.941406 24.855469 Z M 23.058594 119.417969 "/>
<path style=" stroke:none;fill-rule:nonzero;fill:rgb(0%,0%,100%);fill-opacity:0.00392157;" d="M 22.242188 119.261719 L 41.011719 0.738281 L 97.757812 26.003906 Z M 22.242188 119.261719 "/>
<path style=" stroke:none;fill-rule:nonzero;fill:rgb(0%,0%,100%);fill-opacity:0.00392157;" d="M 21.433594 119.089844 L 42.269531 0.910156 L 98.566406 27.164062 Z M 21.433594 119.089844 "/>
<path style=" stroke:none;fill-rule:nonzero;fill:rgb(0%,0%,100%);fill-opacity:0.00392157;" d="M 20.636719 118.898438 L 43.535156 1.101562 L 99.363281 28.332031 Z M 20.636719 118.898438 "/>
<path style=" stroke:none;fill-rule:nonzero;fill:rgb(0%,0%,100%);fill-opacity:0.00392157;" d="M 19.851562 118.6875 L 44.800781 1.3125 L 100.148438 29.511719 Z M 19.851562 118.6875 "/>
<path style=" stroke:none;fill-rule:nonzero;fill:rgb(0%,0%,100%);fill-opacity:0.00392157;" d="M 19.082031 118.460938 L 46.074219 1.539062 L 100.917969 30.699219 Z M 19.082031 118.460938 "/>
<path style=" stroke:none;fill-rule:nonzero;fill:rgb(0%,0%,100%);fill-opacity:0.00392157;" d="M 18.320312 118.21875 L 47.351562 1.78125 L 101.679688 31.898438 Z M 18.320312 118.21875 "/>
<path style=" stroke:none;fill-rule:nonzero;fill:rgb(0%,0%,100%);fill-opacity:0.00392157;" d="M 17.574219 117.957031 L 48.632812 2.042969 L 102.425781 33.101562 Z M 17.574219 117.957031 "/>
<path style=" stroke:none;fill-rule:nonzero;fill:rgb(0%,0%,100%);fill-opacity:0.00392157;" d="M 16.839844 117.675781 L 49.917969 2.324219 L 103.160156 34.316406 Z M 16.839844 117.675781 "/>
<path style=" stroke:none;fill-rule:nonzero;fill:rgb(0%,0%,100%);fill-opacity:0.00392157;" d="M 16.117188 117.378906 L 51.203125 2.621094 L 103.882812 35.539062 Z M 16.117188 117.378906 "/>
<path style=" stroke:none;fill-rule:nonzero;fill:rgb(0%,0%,100%);fill-opacity:0.00392157;" d="M 15.410156 117.0625 L 52.492188 2.9375 L 104.589844 36.769531 Z M 15.410156 117.0625 "/>
<path style=" stroke:none;fill-rule:nonzero;fill:rgb(0%,0%,100%);fill-opacity:0.00392157;" d="M 14.71875 116.730469 L 53.785156 3.269531 L 105.28125 38.003906 Z M 14.71875 116.730469 "/>
<path style=" stroke:none;fill-rule:nonzero;fill:rgb(0%,0%,100%);fill-opacity:0.00392157;" d="M 14.039062 116.382812 L 55.078125 3.617188 L 105.960938 39.246094 Z M 14.039062 116.382812 "/>
<path style=" stroke:none;fill-rule:nonzero;fill:rgb(0%,0%,100%);fill-opacity:0.00392157;" d="M 13.371094 116.015625 L 56.375 3.984375 L 106.628906 40.496094 Z M 13.371094 116.015625 "/>
<path style=" stroke:none;fill-rule:nonzero;fill:rgb(0%,0%,100%);fill-opacity:0.00392157;" d="M 12.71875 115.632812 L 57.671875 4.367188 L 107.28125 41.75 Z M 12.71875 115.632812 "/>
<path style=" stroke:none;fill-rule:nonzero;fill:rgb(0%,0%,100%);fill-opacity:0.00392157;" d="M 12.082031 115.230469 L 58.96875 4.769531 L 107.917969 43.011719 Z M 12.082031 115.230469 "/>
<path style=" stroke:none;fill-rule:nonzero;fill:rgb(0%,0%,100%);fill-opacity:0.00392157;" d="M 11.457031 114.8125 L 60.265625 5.1875 L 108.542969 44.277344 Z M 11.457031 114.8125 "/>
<path style=" stroke:none;fill-rule:nonzero;fill:rgb(0%,0%,100%);fill-opacity:0.00392157;" d="M 10.851562 114.378906 L 61.566406 5.621094 L 109.148438 45.550781 Z M 10.851562 114.378906 "/>
<path style=" stroke:none;fill-rule:nonzero;fill:rgb(0%,0%,100%);fill-opacity:0.00392157;" d="M 10.257812 113.925781 L 62.863281 6.074219 L 109.742188 46.824219 Z M 10.257812 113.925781 "/>
<path style=" stroke:none;fill-rule:nonzero;fill:rgb(0%,0%,100%);fill-opacity:0.00392157;" d="M 9.679688 113.460938 L 64.160156 6.539062 L 110.320312 48.105469 Z M 9.679688 113.460938 "/>
<path style=" stroke:none;fill-rule:nonzero;fill:rgb(0%,0%,100%);fill-opacity:0.00392157;" d="M 9.117188 112.976562 L 65.453125 7.023438 L 110.882812 49.386719 Z M 9.117188 112.976562 "/>
<path style=" stroke:none;fill-rule:nonzero;fill:rgb(0%,0%,100%);fill-opacity:0.00392157;" d="M 8.570312 112.476562 L 66.746094 7.523438 L 111.429688 50.671875 Z M 8.570312 112.476562 "/>
<path style=" stroke:none;fill-rule:nonzero;fill:rgb(0%,0%,100%);fill-opacity:0.00392157;" d="M 8.039062 111.960938 L 68.039062 8.039062 L 111.960938 51.960938 Z M 8.039062 111.960938 "/>
<path style=" stroke:none;fill-rule:nonzero;fill:rgb(0%,0%,100%);fill-opacity:0.00392157;" d="M 7.523438 111.429688 L 69.328125 8.570312 L 112.476562 53.253906 Z M 7.523438 111.429688 "/>
<path style=" stroke:none;fill-rule:nonzero;fill:rgb(0%,0%,100%);fill-opacity:0.00392157;" d="M 7.023438 110.882812 L 70.613281 9.117188 L 112.976562 54.546875 Z M 7.023438 110.882812 "/>
<path style=" stroke:none;fill-rule:nonzero;fill:rgb(0%,0%,100%);fill-opacity:0.00392157;" d="M 6.539062 110.320312 L 71.894531 9.679688 L 113.460938 55.839844 Z M 6.539062 110.320312 "/>
<path style=" stroke:none;fill-rule:nonzero;fill:rgb(0%,0%,100%);fill-opacity:0.00392157;" d="M 6.074219 109.742188 L 73.175781 10.257812 L 113.925781 57.136719 Z M 6.074219 109.742188 "/>
<path style=" stroke:none;fill-rule:nonzero;fill:rgb(0%,0%,100%);fill-opacity:0.00392157;" d="M 5.621094 109.148438 L 74.449219 10.851562 L 114.378906 58.433594 Z M 5.621094 109.148438 "/>
<path style=" stroke:none;fill-rule:nonzero;fill:rgb(0%,0%,100%);fill-opacity:0.00392157;" d="M 5.1875 108.542969 L 75.722656 11.457031 L 114.8125 59.734375 Z M 5.1875 108.542969 "/>
<path style=" stroke:none;fill-rule:nonzero;fill:rgb(0%,0%,100%);fill-opacity:0.00392157;" d="M 4.769531 107.917969 L 76.988281 12.082031 L 115.230469 61.03125 Z M 4.769531 107.917969 "/>
<path style=" stroke:none;fill-rule:nonzero;fill:rgb(0%,0%,100%);fill-opacity:0.00392157;" d="M 4.367188 107.28125 L 78.25 12.71875 L 115.632812 62.328125 Z M 4.367188 107.28125 "/>
<path style=" stroke:none;fill-rule:nonzero;fill:rgb(0%,0%,100%);fill-opacity:0.00392157;" d="M 3.984375 106.628906 L 79.503906 13.371094 L 116.015625 63.625 Z M 3.984375 106.628906 "/>
<path style=" stroke:none;fill-rule:nonzero;fill:rgb(0%,0%,100%);fill-opacity:0.00392157;" d="M 3.617188 105.960938 L 80.753906 14.039062 L 116.382812 64.921875 Z M 3.617188 105.960938 "/>
<path style=" stroke:none;fill-rule:nonzero;fill:rgb(0%,0%,100%);fill-opacity:0.00392157;" d="M 3.269531 105.28125 L 81.996094 14.71875 L 116.730469 66.214844 Z M 3.269531 105.28125 "/>
<path style=" stroke:none;fill-rule:nonzero;fill:rgb(0%,0%,100%);fill-opacity:0.00392157;" d="M 2.9375 104.589844 L 83.230469 15.410156 L 117.0625 67.507812 Z M 2.9375 104.589844 "/>
<path style=" stroke:none;fill-rule:nonzero;fill:rgb(0%,0%,100%);fill-opacity:0.00392157;" d="M 2.621094 103.882812 L 84.460938 16.117188 L 117.378906 68.796875 Z M 2.621094 103.882812 "/>
<path style=" stroke:none;fill-rule:nonzero;fill:rgb(0%,0%,100%);fill-opacity:0.00392157;" d="M 2.324219 103.160156 L 85.683594 16.839844 L 117.675781 70.082031 Z M 2.324219 103.160156 "/>
<path style=" stroke:none;fill-rule:nonzero;fill:rgb(0%,0%,100%);fill-opacity:0.00392157;" d="M 2.042969 102.425781 L 86.898438 17.574219 L 117.957031 71.367188 Z M 2.042969 102.425781 "/>
<path style=" stroke:none;fill-rule:nonzero;fill:rgb(0%,0%,100%);fill-opacity:0.00392157;" d="M 1.78125 101.679688 L 88.101562 18.320312 L 118.21875 72.648438 Z M 1.78125 101.679688 "/>
<path style=" stroke:none;fill-rule:nonzero;fill:rgb(0%,0%,100%);fill-opacity:0.00392157;" d="M 1.539062 100.917969 L 89.300781 19.082031 L 118.460938 73.925781 Z M 1.539062 100.917969 "/>
<path style=" stroke:none;fill-rule:nonzero;fill:rgb(0%,0%,100%);fill-opacity:0.00392157;" d="M 1.3125 100.148438 L 90.488281 19.851562 L 118.6875 75.199219 Z M 1.3125 100.148438 "/>
<path style=" stroke:none;fill-rule:nonzero;fill:rgb(0%,0%,100%);fill-opacity:0.00392157;" d="M 1.101562 99.363281 L 91.667969 20.636719 L 118.898438 76.464844 Z M 1.101562 99.363281 "/>
<path style=" stroke:none;fill-rule:nonzero;fill:rgb(0%,0%,100%);fill-opacity:0.00392157;" d="M 0.910156 98.566406 L 92.835938 21.433594 L 119.089844 77.730469 Z M 0.910156 98.566406 "/>
<path style=" stroke:none;fill-rule:nonzero;fill:rgb(0%,0%,100%);fill-opacity:0.00392157;" d="M 0.738281 97.757812 L 93.996094 22.242188 L 119.261719 78.988281 Z M 0.738281 97.757812 "/>
<path style=" stroke:none;fill-rule:nonzero;fill:rgb(0%,0%,100%);fill-opacity:0.00392157;" d="M 0.582031 96.941406 L 95.144531 23.058594 L 119.417969 80.238281 Z M 0.582031 96.941406 "/>
<path style=" stroke:none;fill-rule:nonzero;fill:rgb(0%,0%,100%);fill-opacity:0.00392157;" d="M 0.445312 96.109375 L 96.285156 23.890625 L 119.554688 81.484375 Z M 0.445312 96.109375 "/>
<path style=" stroke:none;fill-rule:nonzero;fill:rgb(0%,0%,100%);fill-opacity:0.00392157;" d="M 0.328125 95.265625 L 97.410156 24.734375 L 119.671875 82.722656 Z M 0.328125 95.265625 "/>
<path style=" stroke:none;fill-rule:nonzero;fill:rgb(0%,0%,100%);fill-opacity:0.00392157;" d="M 0.226562 94.414062 L 98.527344 25.585938 L 119.773438 83.957031 Z M 0.226562 94.414062 "/>
<path style=" stroke:none;fill-rule:nonzero;fill:rgb(0%,0%,100%);fill-opacity:0.00392157;" d="M 0.144531 93.550781 L 99.628906 26.449219 L 119.855469 85.179688 Z M 0.144531 93.550781 "/>
<path style=" stroke:none;fill-rule:nonzero;fill:rgb(0%,0%,100%);fill-opacity:0.00392157;" d="M 0.0820312 92.679688 L 100.722656 27.320312 L 119.917969 86.398438 Z M 0.0820312 92.679688 "/>
<path style=" stroke:none;fill-rule:nonzero;fill:rgb(0%,0%,100%);fill-opacity:0.00392157;" d="M 0.0351562 91.796875 L 101.800781 28.203125 L 119.964844 87.605469 Z M 0.0351562 91.796875 "/>
<path style=" stroke:none;fill-rule:nonzero;fill:rgb(0%,0%,100%);fill-opacity:0.00392157;" d="M 0.0078125 90.902344 L 102.871094 29.097656 L 119.992188 88.808594 Z M 0.0078125 90.902344 "/>
<path style=" stroke:none;fill-rule:nonzero;fill:rgb(0%,0%,100%);fill-opacity:0.00392157;" d="M 0 90 L 103.921875 30 L 120 90 Z M 0 90 "/>
<path style=" stroke:none;fill-rule:nonzero;fill:rgb(0%,0%,100%);fill-opacity:0.00392157;" d="M 0.0078125 88.042969 L 104.964844 29.863281 L 119.992188 90.136719 Z M 0.0078125 88.042969 "/>
<path style=" stroke:none;fill-rule:nonzero;fill:rgb(0%,0%,100%);fill-opacity:0.00392157;" d="M 0.0351562 86.074219 L 105.992188 29.738281 L 119.964844 90.261719 Z M 0.0351562 86.074219 "/>
<path style=" stroke:none;fill-rule:nonzero;fill:rgb(0%,0%,100%);fill-opacity:0.00392157;" d="M 0.0820312 84.097656 L 107.003906 29.621094 L 119.917969 90.378906 Z M 0.0820312 84.097656 "/>
<path style=" stroke:none;fill-rule:nonzero;fill:rgb(0%,0%,100%);fill-opacity:0.00392157;" d="M 0.144531 82.117188 L 108 29.511719 L 119.855469 90.488281 Z M 0.144531 82.117188 "/>
<path style=" stroke:none;fill-rule:nonzero;fill:rgb(0%,0%,100%);fill-opacity:0.00392157;" d="M 0.226562 80.128906 L 108.984375 29.414062 L 119.773438 90.585938 Z M 0.226562 80.128906 "/>
<path style=" stroke:none;fill-rule:nonzero;fill:rgb(0%,0%,100%);fill-opacity:0.00392157;" d="M 0.328125 78.132812 L 109.953125 29.324219 L 119.671875 90.675781 Z M 0.328125 78.132812 "/>
<path style=" stroke:none;fill-rule:nonzero;fill:rgb(0%,0%,100%);fill-opacity:0.00392157;" d="M 0.445312 76.132812 L 110.90625 29.242188 L 119.554688 90.757812 Z M 0.445312 76.132812 "/>
<path style=" stroke:none;fill-rule:nonzero;fill:rgb(0%,0%,100%);fill-opacity:0.00392157;" d="M 0.582031 74.125 L 111.847656 29.171875 L 119.417969 90.828125 Z M 0.582031 74.125 "/>
<path style=" stroke:none;fill-rule:nonzero;fill:rgb(0%,0%,100%);fill-opacity:0.00392157;" d="M 0.738281 72.117188 L 112.769531 29.113281 L 119.261719 90.886719 Z M 0.738281 72.117188 "/>
<path style=" stroke:none;fill-rule:nonzero;fill:rgb(0%,0%,100%);fill-opacity:0.00392157;" d="M 0.910156 70.101562 L 113.675781 29.058594 L 119.089844 90.941406 Z M 0.910156 70.101562 "/>
<path style=" stroke:none;fill-rule:nonzero;fill:rgb(0%,0%,100%);fill-opacity:0.00392157;" d="M 1.101562 68.085938 L 114.566406 29.015625 L 118.898438 90.984375 Z M 1.101562 68.085938 "/>
<path style=" stroke:none;fill-rule:nonzero;fill:rgb(0%,0%,100%);fill-opacity:0.00392157;" d="M 1.3125 66.066406 L 115.4375 28.984375 L 118.6875 91.015625 Z M 1.3125 66.066406 "/>
<path style=" stroke:none;fill-rule:nonzero;fill:rgb(0%,0%,100%);fill-opacity:0.00392157;" d="M 1.539062 64.046875 L 116.292969 28.960938 L 118.460938 91.039062 Z M 1.539062 64.046875 "/>
<path style=" stroke:none;fill-rule:nonzero;fill:rgb(0%,0%,100%);fill-opacity:0.00392157;" d="M 1.78125 62.023438 L 117.132812 28.945312 L 118.21875 91.054688 Z M 1.78125 62.023438 "/>
<path style=" stroke:none;fill-rule:nonzero;fill:rgb(0%,0%,100%);fill-opacity:0.00392157;" d="M 2.042969 60 L 117.957031 28.941406 L 117.957031 91.058594 Z M 2.042969 60 "/>
<path style=" stroke:none;fill-rule:nonzero;fill:rgb(0%,0%,100%);fill-opacity:0.00392157;" d="M 1.78125 57.976562 L 118.21875 28.945312 L 117.132812 91.054688 Z M 1.78125 57.976562 "/>
<path style=" stroke:none;fill-rule:nonzero;fill:rgb(0%,0%,100%);fill-opacity:0.00392157;" d="M 1.539062 55.953125 L 118.460938 28.960938 L 116.292969 91.039062 Z M 1.539062 55.953125 "/>
<path style=" stroke:none;fill-rule:nonzero;fill:rgb(0%,0%,100%);fill-opacity:0.00392157;" d="M 1.3125 53.933594 L 118.6875 28.984375 L 115.4375 91.015625 Z M 1.3125 53.933594 "/>
<path style=" stroke:none;fill-rule:nonzero;fill:rgb(0%,0%,100%);fill-opacity:0.00392157;" d="M 1.101562 51.914062 L 118.898438 29.015625 L 114.566406 90.984375 Z M 1.101562 51.914062 "/>
<path style=" stroke:none;fill-rule:nonzero;fill:rgb(0%,0%,100%);fill-opacity:0.00392157;" d="M 0.910156 49.898438 L 119.089844 29.058594 L 113.675781 90.941406 Z M 0.910156 49.898438 "/>
<path style=" stroke:none;fill-rule:nonzero;fill:rgb(0%,0%,100%);fill-opacity:0.00392157;" d="M 0.738281 47.882812 L 119.261719 29.113281 L 112.769531 90.886719 Z M 0.738281 47.882812 "/>
<path style=" stroke:none;fill-rule:nonzero;fill:rgb(0%,0%,100%);fill-opacity:0.00392157;" d="M 0.582031 45.875 L 119.417969 29.171875 L 111.847656 90.828125 Z M 0.582031 45.875 "/>
<path style=" stroke:none;fill-rule:nonzero;fill:rgb(0%,0%,100%);fill-opacity:0.00392157;" d="M 0.445312 43.867188 L 119.554688 29.242188 L 110.90625 90.757812 Z M 0.445312 43.867188 "/>
<path style=" stroke:none;fill-rule:nonzero;fill:rgb(0%,0%,100%);fill-opacity:0.00392157;" d="M 0.328125 41.867188 L 119.671875 29.324219 L 109.953125 90.675781 Z M 0.328125 41.867188 "/>
<path style=" stroke:none;fill-rule:nonzero;fill:rgb(0%,0%,100%);fill-opacity:0.00392157;" d="M 0.226562 39.871094 L 119.773438 29.414062 L 108.984375 90.585938 Z M 0.226562 39.871094 "/>
<path style=" stroke:none;fill-rule:nonzero;fill:rgb(0%,0%,100%);fill-opacity:0.00392157;" d="M 0.144531 37.882812 L 119.855469 29.511719 L 108 90.488281 Z M 0.144531 37.882812 "/>
<path style=" stroke:none;fill-rule:nonzero;fill:rgb(0%,0%,100%);fill-opacity:0.00392157;" d="M 0.0820312 35.902344 L 119.917969 29.621094 L 107.003906 90.378906 Z M 0.0820312 35.902344 "/>
<path style=" stroke:none;fill-rule:nonzero;fill:rgb(0%,0%,100%);fill-opacity:0.00392157;" d="M 0.0351562 33.925781 L 119.964844 29.738281 L 105.992188 90.261719 Z M 0.0351562 33.925781 "/>
<path style=" stroke:none;fill-rule:nonzero;fill:rgb(0%,0%,100%);fill-opacity:0.00392157;" d="M 0.0078125 31.957031 L 119.992188 29.863281 L 104.964844 90.136719 Z M 0.0078125 31.957031 "/>
<path style=" stroke:none;fill-rule:nonzero;fill:rgb(0%,0%,100%);fill-opacity:0.00392157;" d="M 0 30 L 120 30 L 103.921875 90 Z M 0 30 "/>
<path style=" stroke:none;fill-rule:nonzero;fill:rgb(0%,0%,100%);fill-opacity:0.00392157;" d="M 0.0078125 29.097656 L 119.992188 31.191406 L 102.871094 90.902344 Z M 0.0078125 29.097656 "/>
<path style=" stroke:none;fill-rule:nonzero;fill:rgb(0%,0%,100%);fill-opacity:0.00392157;" d="M 0.0351562 28.203125 L 119.964844 32.394531 L 101.800781 91.796875 Z M 0.0351562 28.203125 "/>
<path style=" stroke:none;fill-rule:nonzero;fill:rgb(0%,0%,100%);fill-opacity:0.00392157;" d="M 0.0820312 27.320312 L 119.917969 33.601562 L 100.722656 92.679688 Z M 0.0820312 27.320312 "/>
<path style=" stroke:none;fill-rule:nonzero;fill:rgb(0%,0%,100%);fill-opacity:0.00392157;" d="M 0.144531 26.449219 L 119.855469 34.820312 L 99.628906 93.550781 Z M 0.144531 26.449219 "/>
<path style=" stroke:none;fill-rule:nonzero;fill:rgb(0%,0%,100%);fill-opacity:0.00392157;" d="M 0.226562 25.585938 L 119.773438 36.042969 L 98.527344 94.414062 Z M 0.226562 25.585938 "/>
<path style=" stroke:none;fill-rule:nonzero;fill:rgb(0%,0%,100%);fill-opacity:0.00392157;" d="M 0.328125 24.734375 L 119.671875 37.277344 L 97.410156 95.265625 Z M 0.328125 24.734375 "/>
<path style=" stroke:none;fill-rule:nonzero;fill:rgb(0%,0%,100%);fill-opacity:0.00392157;" d="M 0.445312 23.890625 L 119.554688 38.515625 L 96.285156 96.109375 Z M 0.445312 23.890625 "/>
<path style=" stroke:none;fill-rule:nonzero;fill:rgb(0%,0%,100%);fill-opacity:0.00392157;" d="M 0.582031 23.058594 L 119.417969 39.761719 L 95.144531 96.941406 Z M 0.582031 23.058594 "/>
<path style=" stroke:none;fill-rule:nonzero;fill:rgb(0%,0%,100%);fill-opacity:0.00392157;" d="M 0.738281 22.242188 L 119.261719 41.011719 L 93.996094 97.757812 Z M 0.738281 22.242188 "/>
<path style=" stroke:none;fill-rule:nonzero;fill:rgb(0%,0%,100%);fill-opacity:0.00392157;" d="M 0.910156 21.433594 L 119.089844 42.269531 L 92.835938 98.566406 Z M 0.910156 21.433594 "/>
<path style=" stroke:none;fill-rule:nonzero;fill:rgb(0%,0%,100%);fill-opacity:0.00392157;" d="M 1.101562 20.636719 L 118.898438 43.535156 L 91.667969 99.363281 Z M 1.101562 20.636719 "/>
<path style=" stroke:none;fill-rule:nonzero;fill:rgb(0%,0%,100%);fill-opacity:0.00392157;" d="M 1.3125 19.851562 L 118.6875 44.800781 L 90.488281 100.148438 Z M 1.3125 19.851562 "/>
<path style=" stroke:none;fill-rule:nonzero;fill:rgb(0%,0%,100%);fill-opacity:0.00392157;" d="M 1.539062 19.082031 L 118.460938 46.074219 L 89.300781 100.917969 Z M 1.539062 19.082031 "/>
<path style=" stroke:none;fill-rule:nonzero;fill:rgb(0%,0%,100%);fill-opacity:0.00392157;" d="M 1.78125 18.320312 L 118.21875 47.351562 L 88.101562 101.679688 Z M 1.78125 18.320312 "/>
<path style=" stroke:none;fill-rule:nonzero;fill:rgb(0%,0%,100%);fill-opacity:0.00392157;" d="M 2.042969 17.574219 L 117.957031 48.632812 L 86.898438 102.425781 Z M 2.042969 17.574219 "/>
<path style=" stroke:none;fill-rule:nonzero;fill:rgb(0%,0%,100%);fill-opacity:0.00392157;" d="M 2.324219 16.839844 L 117.675781 49.917969 L 85.683594 103.160156 Z M 2.324219 16.839844 "/>
<path style=" stroke:none;fill-rule:nonzero;fill:rgb(0%,0%,100%);fill-opacity:0.00392157;" d="M 2.621094 16.117188 L 117.378906 51.203125 L 84.460938 103.882812 Z M 2.621094 16.117188 "/>
<path style=" stroke:none;fill-rule:nonzero;fill:rgb(0%,0%,100%);fill-opacity:0.00392157;" d="M 2.9375 15.410156 L 117.0625 52.492188 L 83.230469 104.589844 Z M 2.9375 15.410156 "/>
<path style=" stroke:none;fill-rule:nonzero;fill:rgb(0%,0%,100%);fill-opacity:0.00392157;" d="M 3.269531 14.71875 L 116.730469 53.785156 L 81.996094 105.28125 Z M 3.269531 14.71875 "/>
<path style=" stroke:none;fill-rule:nonzero;fill:rgb(0%,0%,100%);fill-opacity:0.00392157;" d="M 3.617188 14.039062 L 116.382812 55.078125 L 80.753906 105.960938 Z M 3.617188 14.039062 "/>
<path style=" stroke:none;fill-rule:nonzero;fill:rgb(0%,0%,100%);fill-opacity:0.00392157;" d="M 3.984375 13.371094 L 116.015625 56.375 L 79.503906 106.628906 Z M 3.984375 13.371094 "/>
<path style=" stroke:none;fill-rule:nonzero;fill:rgb(0%,0%,100%);fill-opacity:0.00392157;" d="M 4.367188 12.71875 L 115.632812 57.671875 L 78.25 107.28125 Z M 4.367188 12.71875 "/>
<path style=" stroke:none;fill-rule:nonzero;fill:rgb(0%,0%,100%);fill-opacity:0.00392157;" d="M 4.769531 12.082031 L 115.230469 58.96875 L 76.988281 107.917969 Z M 4.769531 12.082031 "/>
<path style=" stroke:none;fill-rule:nonzero;fill:rgb(0%,0%,100%);fill-opacity:0.00392157;" d="M 5.1875 11.457031 L 114.8125 60.265625 L 75.722656 108.542969 Z M 5.1875 11.457031 "/>
<path style=" stroke:none;fill-rule:nonzero;fill:rgb(0%,0%,100%);fill-opacity:0.00392157;" d="M 5.621094 10.851562 L 114.378906 61.566406 L 74.449219 109.148438 Z M 5.621094 10.851562 "/>
<path style=" stroke:none;fill-rule:nonzero;fill:rgb(0%,0%,100%);fill-opacity:0.00392157;" d="M 6.074219 10.257812 L 113.925781 62.863281 L 73.175781 109.742188 Z M 6.074219 10.257812 "/>
<path style=" stroke:none;fill-rule:nonzero;fill:rgb(0%,0%,100%);fill-opacity:0.00392157;" d="M 6.539062 9.679688 L 113.460938 64.160156 L 71.894531 110.320312 Z M 6.539062 9.679688 "/>
<path style=" stroke:none;fill-rule:nonzero;fill:rgb(0%,0%,100%);fill-opacity:0.00392157;" d="M 7.023438 9.117188 L 112.976562 65.453125 L 70.613281 110.882812 Z M 7.023438 9.117188 "/>
<path style=" stroke:none;fill-rule:nonzero;fill:rgb(0%,0%,100%);fill-opacity:0.00392157;" d="M 7.523438 8.570312 L 112.476562 66.746094 L 69.328125 111.429688 Z M 7.523438 8.570312 "/>
<path style=" stroke:none;fill-rule:nonzero;fill:rgb(0%,0%,100%);fill-opacity:0.00392157;" d="M 8.039062 8.039062 L 111.960938 68.039062 L 68.039062 111.960938 Z M 8.039062 8.039062 "/>
<path style=" stroke:none;fill-rule:nonzero;fill:rgb(0%,0%,100%);fill-opacity:0.00392157;" d="M 8.570312 7.523438 L 111.429688 69.328125 L 66.746094 112.476562 Z M 8.570312 7.523438 "/>
<path style=" stroke:none;fill-rule:nonzero;fill:rgb(0%,0%,100%);fill-opacity:0.00392157;" d="M 9.117188 7.023438 L 110.882812 70.613281 L 65.453125 112.976562 Z M 9.117188 7.023438 "/>
<path style=" stroke:none;fill-rule:nonzero;fill:rgb(0%,0%,100%);fill-opacity:0.00392157;" d="M 9.679688 6.539062 L 110.320312 71.894531 L 64.160156 113.460938 Z M 9.679688 6.539062 "/>
<path style=" stroke:none;fill-rule:nonzero;fill:rgb(0%,0%,100%);fill-opacity:0.00392157;" d="M 10.257812 6.074219 L 109.742188 73.175781 L 62.863281 113.925781 Z M 10.257812 6.074219 "/>
<path style=" stroke:none;fill-rule:nonzero;fill:rgb(0%,0%,100%);fill-opacity:0.00392157;" d="M 10.851562 5.621094 L 109.148438 74.449219 L 61.566406 114.378906 Z M 10.851562 5.621094 "/>
<path style=" stroke:none;fill-rule:nonzero;fill:rgb(0%,0%,100%);fill-opacity:0.00392157;" d="M 11.457031 5.1875 L 108.542969 75.722656 L 60.265625 114.8125 Z M 11.457031 5.1875 "/>
<path style=" stroke:none;fill-rule:nonzero;fill:rgb(0%,0%,100%);fill-opacity:0.00392157;" d="M 12.082031 4.769531 L 107.917969 76.988281 L 58.96875 115.230469 Z M 12.082031 4.769531 "/>
<path style=" stroke:none;fill-rule:nonzero;fill:rgb(0%,0%,100%);fill-opacity:0.00392157;" d="M 12.71875 4.367188 L 107.28125 78.25 L 57.671875 115.632812 Z M 12.71875 4.367188 "/>
<path style=" stroke:none;fill-rule:nonzero;fill:rgb(0%,0%,100%);fill-opacity:0.00392157;" d="M 13.371094 3.984375 L 106.628906 79.503906 L 56.375 116.015625 Z M 13.371094 3.984375 "/>
<path style=" stroke:none;fill-rule:nonzero;fill:rgb(0%,0%,100%);fill-opacity:0.00392157;" d="M 14.039062 3.617188 L 105.960938 80.753906 L 55.078125 116.382812 Z M 14.039062 3.617188 "/>
<path style=" stroke:none;fill-rule:nonzero;fill:rgb(0%,0%,100%);fill-opacity:0.00392157;" d="M 14.71875 3.269531 L 105.28125 81.996094 L 53.785156 116.730469 Z M 14.71875 3.269531 "/>
<path style=" stroke:none;fill-rule:nonzero;fill:rgb(0%,0%,100%);fill-opacity:0.00392157;" d="M 15.410156 2.9375 L 104.589844 83.230469 L 52.492188 117.0625 Z M 15.410156 2.9375 "/>
<path style=" stroke:none;fill-rule:nonzero;fill:rgb(0%,0%,100%);fill-opacity:0.00392157;" d="M 16.117188 2.621094 L 103.882812 84.460938 L 51.203125 117.378906 Z M 16.117188 2.621094 "/>
<path style=" stroke:none;fill-rule:nonzero;fill:rgb(0%,0%,100%);fill-opacity:0.00392157;" d="M 16.839844 2.324219 L 103.160156 85.683594 L 49.917969 117.675781 Z M 16.839844 2.324219 "/>
<path style=" stroke:none;fill-rule:nonzero;fill:rgb(0%,0%,100%);fill-opacity:0.00392157;" d="M 17.574219 2.042969 L 102.425781 86.898438 L 48.632812 117.957031 Z M 17.574219 2.042969 "/>
<path style=" stroke:none;fill-rule:nonzero;fill:rgb(0%,0%,100%);fill-opacity:0.00392157;" d="M 18.320312 1.78125 L 101.679688 88.101562 L 47.351562 118.21875 Z M 18.320312 1.78125 "/>
<path style=" stroke:none;fill-rule:nonzero;fill:rgb(0%,0%,100%);fill-opacity:0.00392157;" d="M 19.082031 1.539062 L 100.917969 89.300781 L 46.074219 118.460938 Z M 19.082031 1.539062 "/>
<path style=" stroke:none;fill-rule:nonzero;fill:rgb(0%,0%,100%);fill-opacity:0.00392157;" d="M 19.851562 1.3125 L 100.148438 90.488281 L 44.800781 118.6875 Z M 19.851562 1.3125 "/>
<path style=" stroke:none;fill-rule:nonzero;fill:rgb(0%,0%,100%);fill-opacity:0.00392157;" d="M 20.636719 1.101562 L 99.363281 91.667969 L 43.535156 118.898438 Z M 20.636719 1.101562 "/>
<path style=" stroke:none;fill-rule:nonzero;fill:rgb(0%,0%,100%);fill-opacity:0.00392157;" d="M 21.433594 0.910156 L 98.566406 92.835938 L 42.269531 119.089844 Z M 21.433594 0.910156 "/>
<path style=" stroke:none;fill-rule:nonzero;fill:rgb(0%,0%,100%);fill-opacity:0.00392157;" d="M 22.242188 0.738281 L 97.757812 93.996094 L 41.011719 119.261719 Z M 22.242188 0.738281 "/>
<path style=" stroke:none;fill-rule:nonzero;fill:rgb(0%,0%,100%);fill-opacity:0.00392157;" d="M 23.058594 0.582031 L 96.941406 95.144531 L 39.761719 119.417969 Z M 23.058594 0.582031 "/>
<path style=" stroke:none;fill-rule:nonzero;fill:rgb(0%,0%,100%);fill-opacity:0.00392157;" d="M 23.890625 0.445312 L 96.109375 96.285156 L 38.515625 119.554688 Z M 23.890625 0.445312 "/>
<path style=" stroke:none;fill-rule:nonzero;fill:rgb(0%,0%,100%);fill-opacity:0.00392157;" d="M 24.734375 0.328125 L 95.265625 97.410156 L 37.277344 119.671875 Z M 24.734375 0.328125 "/>
<path style=" stroke:none;fill-rule:nonzero;fill:rgb(0%,0%,100%);fill-opacity:0.00392157;" d="M 25.585938 0.226562 L 94.414062 98.527344 L 36.042969 119.773438 Z M 25.585938 0.226562 "/>
<path style=" stroke:none;fill-rule:nonzero;fill:rgb(0%,0%,100%);fill-opacity:0.00392157;" d="M 26.449219 0.144531 L 93.550781 99.628906 L 34.820312 119.855469 Z M 26.449219 0.144531 "/>
<path style=" stroke:none;fill-rule:nonzero;fill:rgb(0%,0%,100%);fill-opacity:0.00392157;" d="M 27.320312 0.0820312 L 92.679688 100.722656 L 33.601562 119.917969 Z M 27.320312 0.0820312 "/>
<path style=" stroke:none;fill-rule:nonzero;fill:rgb(0%,0%,100%);fill-opacity:0.00392157;" d="M 28.203125 0.0351562 L 91.796875 101.800781 L 32.394531 119.964844 Z M 28.203125 0.0351562 "/>
<path style=" stroke:none;fill-rule:nonzero;fill:rgb(0%,0%,100%);fill-opacity:0.00392157;" d="M 29.097656 0.0078125 L 90.902344 102.871094 L 31.191406 119.992188 Z M 29.097656 0.0078125 "/>
<path style=" stroke:none;fill-rule:nonzero;fill:rgb(0%,0%,100%);fill-opacity:0.00392157;" d="M 30 0 L 90 103.921875 L 30 120 Z M 30 0 "/>
<path style=" stroke:none;fill-rule:nonzero;fill:rgb(0%,0%,100%);fill-opacity:0.00392157;" d="M 31.957031 0.0078125 L 90.136719 104.964844 L 29.863281 119.992188 Z M 31.957031 0.0078125 "/>
<path style=" stroke:none;fill-rule:nonzero;fill:rgb(0%,0%,100%);fill-opacity:0.00392157;" d="M 33.925781 0.0351562 L 90.261719 105.992188 L 29.738281 119.964844 Z M 33.925781 0.0351562 "/>
<path style=" stroke:none;fill-rule:nonzero;fill:rgb(0%,0%,100%);fill-opacity:0.00392157;" d="M 35.902344 0.0820312 L 90.378906 107.003906 L 29.621094 119.917969 Z M 35.902344 0.0820312 "/>
<path style=" stroke:none;fill-rule:nonzero;fill:rgb(0%,0%,100%);fill-opacity:0.00392157;" d="M 37.882812 0.144531 L 90.488281 108 L 29.511719 119.855469 Z M 37.882812 0.144531 "/>
<path style=" stroke:none;fill-rule:nonzero;fill:rgb(0%,0%,100%);fill-opacity:0.00392157;" d="M 39.871094 0.226562 L 90.585938 108.984375 L 29.414062 119.773438 Z M 39.871094 0.226562 "/>
<path style=" stroke:none;fill-rule:nonzero;fill:rgb(0%,0%,100%);fill-opacity:0.00392157;" d="M 41.867188 0.328125 L 90.675781 109.953125 L 29.324219 119.671875 Z M 41.867188 0.328125 "/>
<path style=" stroke:none;fill-rule:nonzero;fill:rgb(0%,0%,100%);fill-opacity:0.00392157;" d="M 43.867188 0.445312 L 90.757812 110.90625 L 29.242188 119.554688 Z M 43.867188 0.445312 "/>
<path style=" stroke:none;fill-rule:nonzero;fill:rgb(0%,0%,100%);fill-opacity:0.00392157;" d="M 45.875 0.582031 L 90.828125 111.847656 L 29.171875 119.417969 Z M 45.875 0.582031 "/>
<path style=" stroke:none;fill-rule:nonzero;fill:rgb(0%,0%,100%);fill-opacity:0.00392157;" d="M 47.882812 0.738281 L 90.886719 112.769531 L 29.113281 119.261719 Z M 47.882812 0.738281 "/>
<path style=" stroke:none;fill-rule:nonzero;fill:rgb(0%,0%,100%);fill-opacity:0.00392157;" d="M 49.898438 0.910156 L 90.941406 113.675781 L 29.058594 119.089844 Z M 49.898438 0.910156 "/>
<path style=" stroke:none;fill-rule:nonzero;fill:rgb(0%,0%,100%);fill-opacity:0.00392157;" d="M 51.914062 1.101562 L 90.984375 114.566406 L 29.015625 118.898438 Z M 51.914062 1.101562 "/>
<path style=" stroke:none;fill-rule:nonzero;fill:rgb(0%,0%,100%);fill-opacity:0.00392157;" d="M 53.933594 1.3125 L 91.015625 115.4375 L 28.984375 118.6875 Z M 53.933594 1.3125 "/>
<path style=" stroke:none;fill-rule:nonzero;fill:rgb(0%,0%,100%);fill-opacity:0.00392157;" d="M 55.953125 1.539062 L 91.039062 116.292969 L 28.960938 118.460938 Z M 55.953125 1.539062 "/>
<path style=" stroke:none;fill-rule:nonzero;fill:rgb(0%,0%,100%);fill-opacity:0.00392157;" d="M 57.976562 1.78125 L 91.054688 117.132812 L 28.945312 118.21875 Z M 57.976562 1.78125 "/>
<path style=" stroke:none;fill-rule:nonzero;fill:rgb(0%,0%,100%);fill-opacity:0.00392157;" d="M 60 2.042969 L 91.058594 117.957031 L 28.941406 117.957031 Z M 60 2.042969 "/>
<path style=" stroke:none;fill-rule:nonzero;fill:rgb(0%,0%,100%);fill-opacity:0.00392157;" d="M 60 2.042969 L 91.058594 117.957031 L 28.941406 117.957031 Z M 60 2.042969 "/>
</g>
</svg>
