<?xml version="1.0" encoding="UTF-8"?>
<svg xmlns="http://www.w3.org/2000/svg" xmlns:xlink="http://www.w3.org/1999/xlink" width="121pt" height="121pt" viewBox="0 0 121 121" version="1.1">
<defs>
<clipPath id="clip1">
  <path d="M 100 100 L 120 100 L 120 120 L 100 120 Z M 100 100 "/>
</clipPath>
<clipPath id="clip2">
  <path d="M 80 100 L 100 100 L 100 120 L 80 120 Z M 80 100 "/>
</clipPath>
<clipPath id="clip3">
  <path d="M 60 100 L 80 100 L 80 120 L 60 120 Z M 60 100 "/>
</clipPath>
<clipPath id="clip4">
  <path d="M 40 100 L 60 100 L 60 120 L 40 120 Z M 40 100 "/>
</clipPath>
<clipPath id="clip5">
  <path d="M 20 100 L 40 100 L 40 120 L 20 120 Z M 20 100 "/>
</clipPath>
<clipPath id="clip6">
  <path d="M 0 100 L 20 100 L 20 120 L 0 120 Z M 0 100 "/>
</clipPath>
<clipPath id="clip7">
  <path d="M 100 80 L 120 80 L 120 100 L 100 100 Z M 100 80 "/>
</clipPath>
<clipPath id="clip8">
  <path d="M 80 80 L 100 80 L 100 100 L 80 100 Z M 80 80 "/>
</clipPath>
<clipPath id="clip9">
  <path d="M 60 80 L 80 80 L 80 100 L 60 100 Z M 60 80 "/>
</clipPath>
<clipPath id="clip10">
  <path d="M 40 80 L 60 80 L 60 100 L 40 100 Z M 40 80 "/>
</clipPath>
<clipPath id="clip11">
  <path d="M 20 80 L 40 80 L 40 100 L 20 100 Z M 20 80 "/>
</clipPath>
<clipPath id="clip12">
  <path d="M 0 80 L 20 80 L 20 100 L 0 100 Z M 0 80 "/>
</clipPath>
<clipPath id="clip13">
  <path d="M 100 60 L 120 60 L 120 80 L 100 80 Z M 100 60 "/>
</clipPath>
<clipPath id="clip14">
  <path d="M 80 60 L 100 60 L 100 80 L 80 80 Z M 80 60 "/>
</clipPath>
<clipPath id="clip15">
  <path d="M 60 60 L 80 60 L 80 80 L 60 80 Z M 60 60 "/>
</clipPath>
<clipPath id="clip16">
  <path d="M 40 60 L 60 60 L 60 80 L 40 80 Z M 40 60 "/>
</clipPath>
<clipPath id="clip17">
  <path d="M 20 60 L 40 60 L 40 80 L 20 80 Z M 20 60 "/>
</clipPath>
<clipPath id="clip18">
  <path d="M 0 60 L 20 60 L 20 80 L 0 80 Z M 0 60 "/>
</clipPath>
<clipPath id="clip19">
  <path d="M 100 40 L 120 40 L 120 60 L 100 60 Z M 100 40 "/>
</clipPath>
<clipPath id="clip20">
  <path d="M 80 40 L 100 40 L 100 60 L 80 60 Z M 80 40 "/>
</clipPath>
<clipPath id="clip21">
  <path d="M 60 40 L 80 40 L 80 60 L 60 60 Z M 60 40 "/>
</clipPath>
<clipPath id="clip22">
  <path d="M 40 40 L 60 40 L 60 60 L 40 60 Z M 40 40 "/>
</clipPath>
<clipPath id="clip23">
  <path d="M 20 40 L 40 40 L 40 60 L 20 60 Z M 20 40 "/>
</clipPath>
<clipPath id="clip24">
  <path d="M 0 40 L 20 40 L 20 60 L 0 60 Z M 0 40 "/>
</clipPath>
<clipPath id="clip25">
  <path d="M 100 20 L 120 20 L 120 40 L 100 40 Z M 100 20 "/>
</clipPath>
<clipPath id="clip26">
  <path d="M 80 20 L 100 20 L 100 40 L 80 40 Z M 80 20 "/>
</clipPath>
<clipPath id="clip27">
  <path d="M 60 20 L 80 20 L 80 40 L 60 40 Z M 60 20 "/>
</clipPath>
<clipPath id="clip28">
  <path d="M 40 20 L 60 20 L 60 40 L 40 40 Z M 40 20 "/>
</clipPath>
<clipPath id="clip29">
  <path d="M 20 20 L 40 20 L 40 40 L 20 40 Z M 20 20 "/>
</clipPath>
<clipPath id="clip30">
  <path d="M 0 20 L 20 20 L 20 40 L 0 40 Z M 0 20 "/>
</clipPath>
<clipPath id="clip31">
  <path d="M 100 0 L 120 0 L 120 20 L 100 20 Z M 100 0 "/>
</clipPath>
<clipPath id="clip32">
  <path d="M 80 0 L 100 0 L 100 20 L 80 20 Z M 80 0 "/>
</clipPath>
<clipPath id="clip33">
  <path d="M 60 0 L 80 0 L 80 20 L 60 20 Z M 60 0 "/>
</clipPath>
<clipPath id="clip34">
  <path d="M 40 0 L 60 0 L 60 20 L 40 20 Z M 40 0 "/>
</clipPath>
<clipPath id="clip35">
  <path d="M 20 0 L 40 0 L 40 20 L 20 20 Z M 20 0 "/>
</clipPath>
<clipPath id="clip36">
  <path d="M 0 0 L 20 0 L 20 20 L 0 20 Z M 0 0 "/>
</clipPath>
</defs>
<g id="surface4127">
<g clip-path="url(#clip1)" clip-rule="evenodd">
<path style="fill:none;stroke-width:2;stroke-linecap:round;stroke-linejoin:round;stroke:rgb(0%,0%,0%);stroke-opacity:1;stroke-miterlimit:10;" d="M 100 100 L 120 100 L 120 120 L 100 120 Z M 100 100 "/>
</g>
<g clip-path="url(#clip2)" clip-rule="evenodd">
<path style="fill:none;stroke-width:2;stroke-linecap:round;stroke-linejoin:round;stroke:rgb(0%,0%,0%);stroke-opacity:1;stroke-miterlimit:10;" d="M 80 100 L 100 100 L 100 120 L 80 120 Z M 80 100 "/>
</g>
<g clip-path="url(#clip3)" clip-rule="evenodd">
<path style="fill:none;stroke-width:2;stroke-linecap:round;stroke-linejoin:round;stroke:rgb(0%,0%,0%);stroke-opacity:1;stroke-miterlimit:10;" d="M 60 100 L 80 100 L 80 120 L 60 120 Z M 60 100 "/>
</g>
<g clip-path="url(#clip4)" clip-rule="evenodd">
<path style="fill:none;stroke-width:2;stroke-linecap:round;stroke-linejoin:round;stroke:rgb(0%,0%,0%);stroke-opacity:1;stroke-miterlimit:10;" d="M 40 100 L 60 100 L 60 120 L 40 120 Z M 40 100 "/>
</g>
<g clip-path="url(#clip5)" clip-rule="evenodd">
<path style="fill:none;stroke-width:2;stroke-linecap:round;stroke-linejoin:round;stroke:rgb(0%,0%,0%);stroke-opacity:1;stroke-miterlimit:10;" d="M 20 100 L 40 100 L 40 120 L 20 120 Z M 20 100 "/>
</g>
<g clip-path="url(#clip6)" clip-rule="evenodd">
<path style="fill:none;stroke-width:2;stroke-linecap:round;stroke-linejoin:round;stroke:rgb(0%,0%,0%);stroke-opacity:1;stroke-miterlimit:10;" d="M 0 100 L 20 100 L 20 120 L 0 120 Z M 0 100 "/>
</g>
<g clip-path="url(#clip7)" clip-rule="evenodd">
<path style="fill:none;stroke-width:2;stroke-linecap:round;stroke-linejoin:round;stroke:rgb(0%,0%,0%);stroke-opacity:1;stroke-miterlimit:10;" d="M 100 80 L 120 80 L 120 100 L 100 100 Z M 100 80 "/>
</g>
<g clip-path="url(#clip8)" clip-rule="evenodd">
<path style="fill:none;stroke-width:2;stroke-linecap:round;stroke-linejoin:round;stroke:rgb(0%,0%,0%);stroke-opacity:1;stroke-miterlimit:10;" d="M 80 80 L 100 80 L 100 100 L 80 100 Z M 80 80 "/>
</g>
<g clip-path="url(#clip9)" clip-rule="evenodd">
<path style="fill:none;stroke-width:2;stroke-linecap:round;stroke-linejoin:round;stroke:rgb(0%,0%,0%);stroke-opacity:1;stroke-miterlimit:10;" d="M 60 80 L 80 80 L 80 100 L 60 100 Z M 60 80 "/>
</g>
<g clip-path="url(#clip10)" clip-rule="evenodd">
<path style="fill:none;stroke-width:2;stroke-linecap:round;stroke-linejoin:round;stroke:rgb(0%,0%,0%);stroke-opacity:1;stroke-miterlimit:10;" d="M 40 80 L 60 80 L 60 100 L 40 100 Z M 40 80 "/>
</g>
<g clip-path="url(#clip11)" clip-rule="evenodd">
<path style="fill:none;stroke-width:2;stroke-linecap:round;stroke-linejoin:round;stroke:rgb(0%,0%,0%);stroke-opacity:1;stroke-miterlimit:10;" d="M 20 80 L 40 80 L 40 100 L 20 100 Z M 20 80 "/>
</g>
<g clip-path="url(#clip12)" clip-rule="evenodd">
<path style="fill:none;stroke-width:2;stroke-linecap:round;stroke-linejoin:round;stroke:rgb(0%,0%,0%);stroke-opacity:1;stroke-miterlimit:10;" d="M 0 80 L 20 80 L 20 100 L 0 100 Z M 0 80 "/>
</g>
<g clip-path="url(#clip13)" clip-rule="evenodd">
<path style="fill:none;stroke-width:2;stroke-linecap:round;stroke-linejoin:round;stroke:rgb(0%,0%,0%);stroke-opacity:1;stroke-miterlimit:10;" d="M 100 60 L 120 60 L 120 80 L 100 80 Z M 100 60 "/>
</g>
<g clip-path="url(#clip14)" clip-rule="evenodd">
<path style="fill:none;stroke-width:2;stroke-linecap:round;stroke-linejoin:round;stroke:rgb(0%,0%,0%);stroke-opacity:1;stroke-miterlimit:10;" d="M 80 60 L 100 60 L 100 80 L 80 80 Z M 80 60 "/>
</g>
<g clip-path="url(#clip15)" clip-rule="evenodd">
<path style="fill:none;stroke-width:2;stroke-linecap:round;stroke-linejoin:round;stroke:rgb(0%,0%,0%);stroke-opacity:1;stroke-miterlimit:10;" d="M 60 60 L 80 60 L 80 80 L 60 80 Z M 60 60 "/>
</g>
<g clip-path="url(#clip16)" clip-rule="evenodd">
<path style="fill:none;stroke-width:2;stroke-linecap:round;stroke-linejoin:round;stroke:rgb(0%,0%,0%);stroke-opacity:1;stroke-miterlimit:10;" d="M 40 60 L 60 60 L 60 80 L 40 80 Z M 40 60 "/>
</g>
<g clip-path="url(#clip17)" clip-rule="evenodd">
<path style="fill:none;stroke-width:2;stroke-linecap:round;stroke-linejoin:round;stroke:rgb(0%,0%,0%);stroke-opacity:1;stroke-miterlimit:10;" d="M 20 60 L 40 60 L 40 80 L 20 80 Z M 20 60 "/>
</g>
<g clip-path="url(#clip18)" clip-rule="evenodd">
<path style="fill:none;stroke-width:2;stroke-linecap:round;stroke-linejoin:round;stroke:rgb(0%,0%,0%);stroke-opacity:1;stroke-miterlimit:10;" d="M 0 60 L 20 60 L 20 80 L 0 80 Z M 0 60 "/>
</g>
<g clip-path="url(#clip19)" clip-rule="evenodd">
<path style="fill:none;stroke-width:2;stroke-linecap:round;stroke-linejoin:round;stroke:rgb(0%,0%,0%);stroke-opacity:1;stroke-miterlimit:10;" d="M 100 40 L 120 40 L 120 60 L 100 60 Z M 100 40 "/>
</g>
<g clip-path="url(#clip20)" clip-rule="evenodd">
<path style="fill:none;stroke-width:2;stroke-linecap:round;stroke-linejoin:round;stroke:rgb(0%,0%,0%);stroke-opacity:1;stroke-miterlimit:10;" d="M 80 40 L 100 40 L 100 60 L 80 60 Z M 80 40 "/>
</g>
<g clip-path="url(#clip21)" clip-rule="evenodd">
<path style="fill:none;stroke-width:2;stroke-linecap:round;stroke-linejoin:round;stroke:rgb(0%,0%,0%);stroke-opacity:1;stroke-miterlimit:10;" d="M 60 40 L 80 40 L 80 60 L 60 60 Z M 60 40 "/>
</g>
<g clip-path="url(#clip22)" clip-rule="evenodd">
<path style="fill:none;stroke-width:2;stroke-linecap:round;stroke-linejoin:round;stroke:rgb(0%,0%,0%);stroke-opacity:1;stroke-miterlimit:10;" d="M 40 40 L 60 40 L 60 60 L 40 60 Z M 40 40 "/>
</g>
<g clip-path="url(#clip23)" clip-rule="evenodd">
<path style="fill:none;stroke-width:2;stroke-linecap:round;stroke-linejoin:round;stroke:rgb(0%,0%,0%);stroke-opacity:1;stroke-miterlimit:10;" d="M 20 40 L 40 40 L 40 60 L 20 60 Z M 20 40 "/>
</g>
<g clip-path="url(#clip24)" clip-rule="evenodd">
<path style="fill:none;stroke-width:2;stroke-linecap:round;stroke-linejoin:round;stroke:rgb(0%,0%,0%);stroke-opacity:1;stroke-miterlimit:10;" d="M 0 40 L 20 40 L 20 60 L 0 60 Z M 0 40 "/>
</g>
<g clip-path="url(#clip25)" clip-rule="evenodd">
<path style="fill:none;stroke-width:2;stroke-linecap:round;stroke-linejoin:round;stroke:rgb(0%,0%,0%);stroke-opacity:1;stroke-miterlimit:10;" d="M 100 20 L 120 20 L 120 40 L 100 40 Z M 100 20 "/>
</g>
<g clip-path="url(#clip26)" clip-rule="evenodd">
<path style="fill:none;stroke-width:2;stroke-linecap:round;stroke-linejoin:round;stroke:rgb(0%,0%,0%);stroke-opacity:1;stroke-miterlimit:10;" d="M 80 20 L 100 20 L 100 40 L 80 40 Z M 80 20 "/>
</g>
<g clip-path="url(#clip27)" clip-rule="evenodd">
<path style="fill:none;stroke-width:2;stroke-linecap:round;stroke-linejoin:round;stroke:rgb(0%,0%,0%);stroke-opacity:1;stroke-miterlimit:10;" d="M 60 20 L 80 20 L 80 40 L 60 40 Z M 60 20 "/>
</g>
<g clip-path="url(#clip28)" clip-rule="evenodd">
<path style="fill:none;stroke-width:2;stroke-linecap:round;stroke-linejoin:round;stroke:rgb(0%,0%,0%);stroke-opacity:1;stroke-miterlimit:10;" d="M 40 20 L 60 20 L 60 40 L 40 40 Z M 40 20 "/>
</g>
<g clip-path="url(#clip29)" clip-rule="evenodd">
<path style="fill:none;stroke-width:2;stroke-linecap:round;stroke-linejoin:round;stroke:rgb(0%,0%,0%);stroke-opacity:1;stroke-miterlimit:10;" d="M 20 20 L 40 20 L 40 40 L 20 40 Z M 20 20 "/>
</g>
<g clip-path="url(#clip30)" clip-rule="evenodd">
<path style="fill:none;stroke-width:2;stroke-linecap:round;stroke-linejoin:round;stroke:rgb(0%,0%,0%);stroke-opacity:1;stroke-miterlimit:10;" d="M 0 20 L 20 20 L 20 40 L 0 40 Z M 0 20 "/>
</g>
<g clip-path="url(#clip31)" clip-rule="evenodd">
<path style="fill:none;stroke-width:2;stroke-linecap:round;stroke-linejoin:round;stroke:rgb(0%,0%,0%);stroke-opacity:1;stroke-miterlimit:10;" d="M 100 0 L 120 0 L 120 20 L 100 20 Z M 100 0 "/>
</g>
<g clip-path="url(#clip32)" clip-rule="evenodd">
<path style="fill:none;stroke-width:2;stroke-linecap:round;stroke-linejoin:round;stroke:rgb(0%,0%,0%);stroke-opacity:1;stroke-miterlimit:10;" d="M 80 0 L 100 0 L 100 20 L 80 20 Z M 80 0 "/>
</g>
<g clip-path="url(#clip33)" clip-rule="evenodd">
<path style="fill:none;stroke-width:2;stroke-linecap:round;stroke-linejoin:round;stroke:rgb(0%,0%,0%);stroke-opacity:1;stroke-miterlimit:10;" d="M 60 0 L 80 0 L 80 20 L 60 20 Z M 60 0 "/>
</g>
<g clip-path="url(#clip34)" clip-rule="evenodd">
<path style="fill:none;stroke-width:2;stroke-linecap:round;stroke-linejoin:round;stroke:rgb(0%,0%,0%);stroke-opacity:1;stroke-miterlimit:10;" d="M 40 0 L 60 0 L 60 20 L 40 20 Z M 40 0 "/>
</g>
<g clip-path="url(#clip35)" clip-rule="evenodd">
<path style="fill:none;stroke-width:2;stroke-linecap:round;stroke-linejoin:round;stroke:rgb(0%,0%,0%);stroke-opacity:1;stroke-miterlimit:10;" d="M 20 0 L 40 0 L 40 20 L 20 20 Z M 20 0 "/>
</g>
<g clip-path="url(#clip36)" clip-rule="evenodd">
<path style="fill:none;stroke-width:2;stroke-linecap:round;stroke-linejoin:round;stroke:rgb(0%,0%,0%);stroke-opacity:1;stroke-miterlimit:10;" d="M 0 0 L 20 0 L 20 20 L 0 20 Z M 0 0 "/>
</g>
</g>
</svg>
