<?xml version="1.0" encoding="UTF-8"?>
<svg xmlns="http://www.w3.org/2000/svg" xmlns:xlink="http://www.w3.org/1999/xlink" width="81pt" height="71pt" viewBox="0 0 81 71" version="1.1">
<g id="surface4662">
<path style=" stroke:none;fill-rule:evenodd;fill:rgb(29.411765%,0%,50.980392%);fill-opacity:1;" d="M 80 5 C 80 7.761719 75.523438 10 70 10 C 64.476562 10 60 7.761719 60 5 C 60 2.238281 64.476562 0 70 0 C 75.523438 0 80 2.238281 80 5 Z M 80 5 "/>
<path style=" stroke:none;fill-rule:evenodd;fill:rgb(62.745098%,12.54902%,94.117647%);fill-opacity:1;" d="M 60 15 C 60 23.285156 55.523438 30 50 30 C 44.476562 30 40 23.285156 40 15 C 40 6.714844 44.476562 0 50 0 C 55.523438 0 60 6.714844 60 15 Z M 60 15 "/>
<path style=" stroke:none;fill-rule:evenodd;fill:rgb(60%,19.607843%,80%);fill-opacity:1;" d="M 40 25 C 40 38.808594 35.523438 50 30 50 C 24.476562 50 20 38.808594 20 25 C 20 11.191406 24.476562 0 30 0 C 35.523438 0 40 11.191406 40 25 Z M 40 25 "/>
<path style=" stroke:none;fill-rule:evenodd;fill:rgb(72.941176%,33.333333%,82.745098%);fill-opacity:1;" d="M 20 35 C 20 54.328125 15.523438 70 10 70 C 4.476562 70 0 54.328125 0 35 C 0 15.671875 4.476562 0 10 0 C 15.523438 0 20 15.671875 20 35 Z M 20 35 "/>
</g>
</svg>
