<?xml version="1.0" encoding="UTF-8"?>
<svg xmlns="http://www.w3.org/2000/svg" xmlns:xlink="http://www.w3.org/1999/xlink" width="71pt" height="81pt" viewBox="0 0 71 81" version="1.1">
<g id="surface4677">
<path style=" stroke:none;fill-rule:evenodd;fill:rgb(62.745098%,32.156863%,17.647059%);fill-opacity:1;" d="M 70 70 C 70 75.523438 67.761719 80 65 80 C 62.238281 80 60 75.523438 60 70 C 60 64.476562 62.238281 60 65 60 C 67.761719 60 70 64.476562 70 70 Z M 70 70 "/>
<path style=" stroke:none;fill-rule:evenodd;fill:rgb(72.156863%,52.54902%,4.313725%);fill-opacity:1;" d="M 70 50 C 70 55.523438 63.285156 60 55 60 C 46.714844 60 40 55.523438 40 50 C 40 44.476562 46.714844 40 55 40 C 63.285156 40 70 44.476562 70 50 Z M 70 50 "/>
<path style=" stroke:none;fill-rule:evenodd;fill:rgb(85.490196%,64.705882%,12.54902%);fill-opacity:1;" d="M 70 30 C 70 35.523438 58.808594 40 45 40 C 31.191406 40 20 35.523438 20 30 C 20 24.476562 31.191406 20 45 20 C 58.808594 20 70 24.476562 70 30 Z M 70 30 "/>
<path style=" stroke:none;fill-rule:evenodd;fill:rgb(100%,84.313725%,0%);fill-opacity:1;" d="M 70 10 C 70 15.523438 54.328125 20 35 20 C 15.671875 20 0 15.523438 0 10 C 0 4.476562 15.671875 0 35 0 C 54.328125 0 70 4.476562 70 10 Z M 70 10 "/>
</g>
</svg>
