<?xml version="1.0" encoding="UTF-8"?>
<svg xmlns="http://www.w3.org/2000/svg" xmlns:xlink="http://www.w3.org/1999/xlink" width="72pt" height="69pt" viewBox="0 0 72 69" version="1.1">
<g id="surface4522">
<path style=" stroke:none;fill-rule:nonzero;fill:rgb(98.039216%,98.039216%,100%);fill-opacity:1;" d="M 13.597656 67.710938 L 57.597656 67.710938 L 71.195312 25.863281 L 35.597656 0 L 0 25.863281 Z M 13.597656 67.710938 "/>
<path style=" stroke:none;fill-rule:nonzero;fill:rgb(78.431373%,78.431373%,100%);fill-opacity:1;" d="M 16.597656 63.09375 L 54.597656 63.09375 L 66.339844 26.953125 L 35.597656 4.617188 L 4.855469 26.953125 Z M 16.597656 63.09375 "/>
<path style=" stroke:none;fill-rule:nonzero;fill:rgb(58.823529%,58.823529%,100%);fill-opacity:1;" d="M 19.597656 58.476562 L 51.597656 58.476562 L 61.484375 28.042969 L 35.597656 9.234375 L 9.707031 28.042969 Z M 19.597656 58.476562 "/>
<path style=" stroke:none;fill-rule:nonzero;fill:rgb(39.215686%,39.215686%,100%);fill-opacity:1;" d="M 22.597656 53.859375 L 48.597656 53.859375 L 56.632812 29.132812 L 35.597656 13.847656 L 14.5625 29.132812 Z M 22.597656 53.859375 "/>
<path style=" stroke:none;fill-rule:nonzero;fill:rgb(19.607843%,19.607843%,100%);fill-opacity:1;" d="M 25.597656 49.242188 L 45.597656 49.242188 L 51.777344 30.222656 L 35.597656 18.464844 L 19.417969 30.222656 Z M 25.597656 49.242188 "/>
</g>
</svg>
