<?xml version="1.0" encoding="UTF-8"?>
<svg xmlns="http://www.w3.org/2000/svg" xmlns:xlink="http://www.w3.org/1999/xlink" width="121pt" height="121pt" viewBox="0 0 121 121" version="1.1">
<g id="surface4040">
<path style=" stroke:none;fill-rule:nonzero;fill:rgb(0%,0%,100%);fill-opacity:0.00392157;" d="M 0.0078125 110.382812 L 119.992188 112.476562 L 61.8125 7.523438 Z M 0.0078125 110.382812 "/>
<path style=" stroke:none;fill-rule:nonzero;fill:rgb(0%,0%,100%);fill-opacity:0.00392157;" d="M 0.0351562 108.789062 L 119.964844 112.976562 L 63.625 7.023438 Z M 0.0351562 108.789062 "/>
<path style=" stroke:none;fill-rule:nonzero;fill:rgb(0%,0%,100%);fill-opacity:0.00392157;" d="M 0.0820312 107.179688 L 119.917969 113.460938 L 65.4375 6.539062 Z M 0.0820312 107.179688 "/>
<path style=" stroke:none;fill-rule:nonzero;fill:rgb(0%,0%,100%);fill-opacity:0.00392157;" d="M 0.144531 105.558594 L 119.855469 113.925781 L 67.25 6.074219 Z M 0.144531 105.558594 "/>
<path style=" stroke:none;fill-rule:nonzero;fill:rgb(0%,0%,100%);fill-opacity:0.00392157;" d="M 0.226562 103.917969 L 119.773438 114.378906 L 69.058594 5.621094 Z M 0.226562 103.917969 "/>
<path style=" stroke:none;fill-rule:nonzero;fill:rgb(0%,0%,100%);fill-opacity:0.00392157;" d="M 0.328125 102.269531 L 119.671875 114.8125 L 70.863281 5.1875 Z M 0.328125 102.269531 "/>
<path style=" stroke:none;fill-rule:nonzero;fill:rgb(0%,0%,100%);fill-opacity:0.00392157;" d="M 0.445312 100.605469 L 119.554688 115.230469 L 72.664062 4.769531 Z M 0.445312 100.605469 "/>
<path style=" stroke:none;fill-rule:nonzero;fill:rgb(0%,0%,100%);fill-opacity:0.00392157;" d="M 0.582031 98.929688 L 119.417969 115.632812 L 74.464844 4.367188 Z M 0.582031 98.929688 "/>
<path style=" stroke:none;fill-rule:nonzero;fill:rgb(0%,0%,100%);fill-opacity:0.00392157;" d="M 0.738281 97.242188 L 119.261719 116.015625 L 76.257812 3.984375 Z M 0.738281 97.242188 "/>
<path style=" stroke:none;fill-rule:nonzero;fill:rgb(0%,0%,100%);fill-opacity:0.00392157;" d="M 0.910156 95.542969 L 119.089844 116.382812 L 78.046875 3.617188 Z M 0.910156 95.542969 "/>
<path style=" stroke:none;fill-rule:nonzero;fill:rgb(0%,0%,100%);fill-opacity:0.00392157;" d="M 1.101562 93.835938 L 118.898438 116.730469 L 79.828125 3.269531 Z M 1.101562 93.835938 "/>
<path style=" stroke:none;fill-rule:nonzero;fill:rgb(0%,0%,100%);fill-opacity:0.00392157;" d="M 1.3125 92.113281 L 118.6875 117.0625 L 81.605469 2.9375 Z M 1.3125 92.113281 "/>
<path style=" stroke:none;fill-rule:nonzero;fill:rgb(0%,0%,100%);fill-opacity:0.00392157;" d="M 1.539062 90.382812 L 118.460938 117.378906 L 83.378906 2.621094 Z M 1.539062 90.382812 "/>
<path style=" stroke:none;fill-rule:nonzero;fill:rgb(0%,0%,100%);fill-opacity:0.00392157;" d="M 1.78125 88.644531 L 118.21875 117.675781 L 85.140625 2.324219 Z M 1.78125 88.644531 "/>
<path style=" stroke:none;fill-rule:nonzero;fill:rgb(0%,0%,100%);fill-opacity:0.00392157;" d="M 2.042969 86.898438 L 117.957031 117.957031 L 86.898438 2.042969 Z M 2.042969 86.898438 "/>
<path style=" stroke:none;fill-rule:nonzero;fill:rgb(0%,0%,100%);fill-opacity:0.00392157;" d="M 2.324219 85.140625 L 117.675781 118.21875 L 88.644531 1.78125 Z M 2.324219 85.140625 "/>
<path style=" stroke:none;fill-rule:nonzero;fill:rgb(0%,0%,100%);fill-opacity:0.00392157;" d="M 2.621094 83.378906 L 117.378906 118.460938 L 90.382812 1.539062 Z M 2.621094 83.378906 "/>
<path style=" stroke:none;fill-rule:nonzero;fill:rgb(0%,0%,100%);fill-opacity:0.00392157;" d="M 2.9375 81.605469 L 117.0625 118.6875 L 92.113281 1.3125 Z M 2.9375 81.605469 "/>
<path style=" stroke:none;fill-rule:nonzero;fill:rgb(0%,0%,100%);fill-opacity:0.00392157;" d="M 3.269531 79.828125 L 116.730469 118.898438 L 93.835938 1.101562 Z M 3.269531 79.828125 "/>
<path style=" stroke:none;fill-rule:nonzero;fill:rgb(0%,0%,100%);fill-opacity:0.00392157;" d="M 3.617188 78.046875 L 116.382812 119.089844 L 95.542969 0.910156 Z M 3.617188 78.046875 "/>
<path style=" stroke:none;fill-rule:nonzero;fill:rgb(0%,0%,100%);fill-opacity:0.00392157;" d="M 3.984375 76.257812 L 116.015625 119.261719 L 97.242188 0.738281 Z M 3.984375 76.257812 "/>
<path style=" stroke:none;fill-rule:nonzero;fill:rgb(0%,0%,100%);fill-opacity:0.00392157;" d="M 4.367188 74.464844 L 115.632812 119.417969 L 98.929688 0.582031 Z M 4.367188 74.464844 "/>
<path style=" stroke:none;fill-rule:nonzero;fill:rgb(0%,0%,100%);fill-opacity:0.00392157;" d="M 4.769531 72.664062 L 115.230469 119.554688 L 100.605469 0.445312 Z M 4.769531 72.664062 "/>
<path style=" stroke:none;fill-rule:nonzero;fill:rgb(0%,0%,100%);fill-opacity:0.00392157;" d="M 5.1875 70.863281 L 114.8125 119.671875 L 102.269531 0.328125 Z M 5.1875 70.863281 "/>
<path style=" stroke:none;fill-rule:nonzero;fill:rgb(0%,0%,100%);fill-opacity:0.00392157;" d="M 5.621094 69.058594 L 114.378906 119.773438 L 103.917969 0.226562 Z M 5.621094 69.058594 "/>
<path style=" stroke:none;fill-rule:nonzero;fill:rgb(0%,0%,100%);fill-opacity:0.00392157;" d="M 6.074219 67.25 L 113.925781 119.855469 L 105.558594 0.144531 Z M 6.074219 67.25 "/>
<path style=" stroke:none;fill-rule:nonzero;fill:rgb(0%,0%,100%);fill-opacity:0.00392157;" d="M 6.539062 65.4375 L 113.460938 119.917969 L 107.179688 0.0820312 Z M 6.539062 65.4375 "/>
<path style=" stroke:none;fill-rule:nonzero;fill:rgb(0%,0%,100%);fill-opacity:0.00392157;" d="M 7.023438 63.625 L 112.976562 119.964844 L 108.789062 0.0351562 Z M 7.023438 63.625 "/>
<path style=" stroke:none;fill-rule:nonzero;fill:rgb(0%,0%,100%);fill-opacity:0.00392157;" d="M 7.523438 61.8125 L 112.476562 119.992188 L 110.382812 0.0078125 Z M 7.523438 61.8125 "/>
<path style=" stroke:none;fill-rule:nonzero;fill:rgb(0%,0%,100%);fill-opacity:0.00392157;" d="M 8.039062 60 L 111.960938 120 L 111.960938 0 Z M 8.039062 60 "/>
<path style=" stroke:none;fill-rule:nonzero;fill:rgb(0%,0%,100%);fill-opacity:0.00392157;" d="M 7.523438 58.1875 L 110.382812 119.992188 L 112.476562 0.0078125 Z M 7.523438 58.1875 "/>
<path style=" stroke:none;fill-rule:nonzero;fill:rgb(0%,0%,100%);fill-opacity:0.00392157;" d="M 7.023438 56.375 L 108.789062 119.964844 L 112.976562 0.0351562 Z M 7.023438 56.375 "/>
<path style=" stroke:none;fill-rule:nonzero;fill:rgb(0%,0%,100%);fill-opacity:0.00392157;" d="M 6.539062 54.5625 L 107.179688 119.917969 L 113.460938 0.0820312 Z M 6.539062 54.5625 "/>
<path style=" stroke:none;fill-rule:nonzero;fill:rgb(0%,0%,100%);fill-opacity:0.00392157;" d="M 6.074219 52.75 L 105.558594 119.855469 L 113.925781 0.144531 Z M 6.074219 52.75 "/>
<path style=" stroke:none;fill-rule:nonzero;fill:rgb(0%,0%,100%);fill-opacity:0.00392157;" d="M 5.621094 50.941406 L 103.917969 119.773438 L 114.378906 0.226562 Z M 5.621094 50.941406 "/>
<path style=" stroke:none;fill-rule:nonzero;fill:rgb(0%,0%,100%);fill-opacity:0.00392157;" d="M 5.1875 49.136719 L 102.269531 119.671875 L 114.8125 0.328125 Z M 5.1875 49.136719 "/>
<path style=" stroke:none;fill-rule:nonzero;fill:rgb(0%,0%,100%);fill-opacity:0.00392157;" d="M 4.769531 47.335938 L 100.605469 119.554688 L 115.230469 0.445312 Z M 4.769531 47.335938 "/>
<path style=" stroke:none;fill-rule:nonzero;fill:rgb(0%,0%,100%);fill-opacity:0.00392157;" d="M 4.367188 45.535156 L 98.929688 119.417969 L 115.632812 0.582031 Z M 4.367188 45.535156 "/>
<path style=" stroke:none;fill-rule:nonzero;fill:rgb(0%,0%,100%);fill-opacity:0.00392157;" d="M 3.984375 43.742188 L 97.242188 119.261719 L 116.015625 0.738281 Z M 3.984375 43.742188 "/>
<path style=" stroke:none;fill-rule:nonzero;fill:rgb(0%,0%,100%);fill-opacity:0.00392157;" d="M 3.617188 41.953125 L 95.542969 119.089844 L 116.382812 0.910156 Z M 3.617188 41.953125 "/>
<path style=" stroke:none;fill-rule:nonzero;fill:rgb(0%,0%,100%);fill-opacity:0.00392157;" d="M 3.269531 40.171875 L 93.835938 118.898438 L 116.730469 1.101562 Z M 3.269531 40.171875 "/>
<path style=" stroke:none;fill-rule:nonzero;fill:rgb(0%,0%,100%);fill-opacity:0.00392157;" d="M 2.9375 38.394531 L 92.113281 118.6875 L 117.0625 1.3125 Z M 2.9375 38.394531 "/>
<path style=" stroke:none;fill-rule:nonzero;fill:rgb(0%,0%,100%);fill-opacity:0.00392157;" d="M 2.621094 36.621094 L 90.382812 118.460938 L 117.378906 1.539062 Z M 2.621094 36.621094 "/>
<path style=" stroke:none;fill-rule:nonzero;fill:rgb(0%,0%,100%);fill-opacity:0.00392157;" d="M 2.324219 34.859375 L 88.644531 118.21875 L 117.675781 1.78125 Z M 2.324219 34.859375 "/>
<path style=" stroke:none;fill-rule:nonzero;fill:rgb(0%,0%,100%);fill-opacity:0.00392157;" d="M 2.042969 33.101562 L 86.898438 117.957031 L 117.957031 2.042969 Z M 2.042969 33.101562 "/>
<path style=" stroke:none;fill-rule:nonzero;fill:rgb(0%,0%,100%);fill-opacity:0.00392157;" d="M 1.78125 31.355469 L 85.140625 117.675781 L 118.21875 2.324219 Z M 1.78125 31.355469 "/>
<path style=" stroke:none;fill-rule:nonzero;fill:rgb(0%,0%,100%);fill-opacity:0.00392157;" d="M 1.539062 29.617188 L 83.378906 117.378906 L 118.460938 2.621094 Z M 1.539062 29.617188 "/>
<path style=" stroke:none;fill-rule:nonzero;fill:rgb(0%,0%,100%);fill-opacity:0.00392157;" d="M 1.3125 27.886719 L 81.605469 117.0625 L 118.6875 2.9375 Z M 1.3125 27.886719 "/>
<path style=" stroke:none;fill-rule:nonzero;fill:rgb(0%,0%,100%);fill-opacity:0.00392157;" d="M 1.101562 26.164062 L 79.828125 116.730469 L 118.898438 3.269531 Z M 1.101562 26.164062 "/>
<path style=" stroke:none;fill-rule:nonzero;fill:rgb(0%,0%,100%);fill-opacity:0.00392157;" d="M 0.910156 24.457031 L 78.046875 116.382812 L 119.089844 3.617188 Z M 0.910156 24.457031 "/>
<path style=" stroke:none;fill-rule:nonzero;fill:rgb(0%,0%,100%);fill-opacity:0.00392157;" d="M 0.738281 22.757812 L 76.257812 116.015625 L 119.261719 3.984375 Z M 0.738281 22.757812 "/>
<path style=" stroke:none;fill-rule:nonzero;fill:rgb(0%,0%,100%);fill-opacity:0.00392157;" d="M 0.582031 21.070312 L 74.464844 115.632812 L 119.417969 4.367188 Z M 0.582031 21.070312 "/>
<path style=" stroke:none;fill-rule:nonzero;fill:rgb(0%,0%,100%);fill-opacity:0.00392157;" d="M 0.445312 19.394531 L 72.664062 115.230469 L 119.554688 4.769531 Z M 0.445312 19.394531 "/>
<path style=" stroke:none;fill-rule:nonzero;fill:rgb(0%,0%,100%);fill-opacity:0.00392157;" d="M 0.328125 17.730469 L 70.863281 114.8125 L 119.671875 5.1875 Z M 0.328125 17.730469 "/>
<path style=" stroke:none;fill-rule:nonzero;fill:rgb(0%,0%,100%);fill-opacity:0.00392157;" d="M 0.226562 16.082031 L 69.058594 114.378906 L 119.773438 5.621094 Z M 0.226562 16.082031 "/>
<path style=" stroke:none;fill-rule:nonzero;fill:rgb(0%,0%,100%);fill-opacity:0.00392157;" d="M 0.144531 14.441406 L 67.25 113.925781 L 119.855469 6.074219 Z M 0.144531 14.441406 "/>
<path style=" stroke:none;fill-rule:nonzero;fill:rgb(0%,0%,100%);fill-opacity:0.00392157;" d="M 0.0820312 12.820312 L 65.4375 113.460938 L 119.917969 6.539062 Z M 0.0820312 12.820312 "/>
<path style=" stroke:none;fill-rule:nonzero;fill:rgb(0%,0%,100%);fill-opacity:0.00392157;" d="M 0.0351562 11.210938 L 63.625 112.976562 L 119.964844 7.023438 Z M 0.0351562 11.210938 "/>
<path style=" stroke:none;fill-rule:nonzero;fill:rgb(0%,0%,100%);fill-opacity:0.00392157;" d="M 0.0078125 9.617188 L 61.8125 112.476562 L 119.992188 7.523438 Z M 0.0078125 9.617188 "/>
<path style=" stroke:none;fill-rule:nonzero;fill:rgb(0%,0%,100%);fill-opacity:0.00392157;" d="M 0 8.039062 L 60 111.960938 L 120 8.039062 Z M 0 8.039062 "/>
<path style=" stroke:none;fill-rule:nonzero;fill:rgb(0%,0%,100%);fill-opacity:0.00392157;" d="M 0.0078125 7.523438 L 58.1875 112.476562 L 119.992188 9.617188 Z M 0.0078125 7.523438 "/>
<path style=" stroke:none;fill-rule:nonzero;fill:rgb(0%,0%,100%);fill-opacity:0.00392157;" d="M 0.0351562 7.023438 L 56.375 112.976562 L 119.964844 11.210938 Z M 0.0351562 7.023438 "/>
<path style=" stroke:none;fill-rule:nonzero;fill:rgb(0%,0%,100%);fill-opacity:0.00392157;" d="M 0.0820312 6.539062 L 54.5625 113.460938 L 119.917969 12.820312 Z M 0.0820312 6.539062 "/>
<path style=" stroke:none;fill-rule:nonzero;fill:rgb(0%,0%,100%);fill-opacity:0.00392157;" d="M 0.144531 6.074219 L 52.75 113.925781 L 119.855469 14.441406 Z M 0.144531 6.074219 "/>
<path style=" stroke:none;fill-rule:nonzero;fill:rgb(0%,0%,100%);fill-opacity:0.00392157;" d="M 0.226562 5.621094 L 50.941406 114.378906 L 119.773438 16.082031 Z M 0.226562 5.621094 "/>
<path style=" stroke:none;fill-rule:nonzero;fill:rgb(0%,0%,100%);fill-opacity:0.00392157;" d="M 0.328125 5.1875 L 49.136719 114.8125 L 119.671875 17.730469 Z M 0.328125 5.1875 "/>
<path style=" stroke:none;fill-rule:nonzero;fill:rgb(0%,0%,100%);fill-opacity:0.00392157;" d="M 0.445312 4.769531 L 47.335938 115.230469 L 119.554688 19.394531 Z M 0.445312 4.769531 "/>
<path style=" stroke:none;fill-rule:nonzero;fill:rgb(0%,0%,100%);fill-opacity:0.00392157;" d="M 0.582031 4.367188 L 45.535156 115.632812 L 119.417969 21.070312 Z M 0.582031 4.367188 "/>
<path style=" stroke:none;fill-rule:nonzero;fill:rgb(0%,0%,100%);fill-opacity:0.00392157;" d="M 0.738281 3.984375 L 43.742188 116.015625 L 119.261719 22.757812 Z M 0.738281 3.984375 "/>
<path style=" stroke:none;fill-rule:nonzero;fill:rgb(0%,0%,100%);fill-opacity:0.00392157;" d="M 0.910156 3.617188 L 41.953125 116.382812 L 119.089844 24.457031 Z M 0.910156 3.617188 "/>
<path style=" stroke:none;fill-rule:nonzero;fill:rgb(0%,0%,100%);fill-opacity:0.00392157;" d="M 1.101562 3.269531 L 40.171875 116.730469 L 118.898438 26.164062 Z M 1.101562 3.269531 "/>
<path style=" stroke:none;fill-rule:nonzero;fill:rgb(0%,0%,100%);fill-opacity:0.00392157;" d="M 1.3125 2.9375 L 38.394531 117.0625 L 118.6875 27.886719 Z M 1.3125 2.9375 "/>
<path style=" stroke:none;fill-rule:nonzero;fill:rgb(0%,0%,100%);fill-opacity:0.00392157;" d="M 1.539062 2.621094 L 36.621094 117.378906 L 118.460938 29.617188 Z M 1.539062 2.621094 "/>
<path style=" stroke:none;fill-rule:nonzero;fill:rgb(0%,0%,100%);fill-opacity:0.00392157;" d="M 1.78125 2.324219 L 34.859375 117.675781 L 118.21875 31.355469 Z M 1.78125 2.324219 "/>
<path style=" stroke:none;fill-rule:nonzero;fill:rgb(0%,0%,100%);fill-opacity:0.00392157;" d="M 2.042969 2.042969 L 33.101562 117.957031 L 117.957031 33.101562 Z M 2.042969 2.042969 "/>
<path style=" stroke:none;fill-rule:nonzero;fill:rgb(0%,0%,100%);fill-opacity:0.00392157;" d="M 2.324219 1.78125 L 31.355469 118.21875 L 117.675781 34.859375 Z M 2.324219 1.78125 "/>
<path style=" stroke:none;fill-rule:nonzero;fill:rgb(0%,0%,100%);fill-opacity:0.00392157;" d="M 2.621094 1.539062 L 29.617188 118.460938 L 117.378906 36.621094 Z M 2.621094 1.539062 "/>
<path style=" stroke:none;fill-rule:nonzero;fill:rgb(0%,0%,100%);fill-opacity:0.00392157;" d="M 2.9375 1.3125 L 27.886719 118.6875 L 117.0625 38.394531 Z M 2.9375 1.3125 "/>
<path style=" stroke:none;fill-rule:nonzero;fill:rgb(0%,0%,100%);fill-opacity:0.00392157;" d="M 3.269531 1.101562 L 26.164062 118.898438 L 116.730469 40.171875 Z M 3.269531 1.101562 "/>
<path style=" stroke:none;fill-rule:nonzero;fill:rgb(0%,0%,100%);fill-opacity:0.00392157;" d="M 3.617188 0.910156 L 24.457031 119.089844 L 116.382812 41.953125 Z M 3.617188 0.910156 "/>
<path style=" stroke:none;fill-rule:nonzero;fill:rgb(0%,0%,100%);fill-opacity:0.00392157;" d="M 3.984375 0.738281 L 22.757812 119.261719 L 116.015625 43.742188 Z M 3.984375 0.738281 "/>
<path style=" stroke:none;fill-rule:nonzero;fill:rgb(0%,0%,100%);fill-opacity:0.00392157;" d="M 4.367188 0.582031 L 21.070312 119.417969 L 115.632812 45.535156 Z M 4.367188 0.582031 "/>
<path style=" stroke:none;fill-rule:nonzero;fill:rgb(0%,0%,100%);fill-opacity:0.00392157;" d="M 4.769531 0.445312 L 19.394531 119.554688 L 115.230469 47.335938 Z M 4.769531 0.445312 "/>
<path style=" stroke:none;fill-rule:nonzero;fill:rgb(0%,0%,100%);fill-opacity:0.00392157;" d="M 5.1875 0.328125 L 17.730469 119.671875 L 114.8125 49.136719 Z M 5.1875 0.328125 "/>
<path style=" stroke:none;fill-rule:nonzero;fill:rgb(0%,0%,100%);fill-opacity:0.00392157;" d="M 5.621094 0.226562 L 16.082031 119.773438 L 114.378906 50.941406 Z M 5.621094 0.226562 "/>
<path style=" stroke:none;fill-rule:nonzero;fill:rgb(0%,0%,100%);fill-opacity:0.00392157;" d="M 6.074219 0.144531 L 14.441406 119.855469 L 113.925781 52.75 Z M 6.074219 0.144531 "/>
<path style=" stroke:none;fill-rule:nonzero;fill:rgb(0%,0%,100%);fill-opacity:0.00392157;" d="M 6.539062 0.0820312 L 12.820312 119.917969 L 113.460938 54.5625 Z M 6.539062 0.0820312 "/>
<path style=" stroke:none;fill-rule:nonzero;fill:rgb(0%,0%,100%);fill-opacity:0.00392157;" d="M 7.023438 0.0351562 L 11.210938 119.964844 L 112.976562 56.375 Z M 7.023438 0.0351562 "/>
<path style=" stroke:none;fill-rule:nonzero;fill:rgb(0%,0%,100%);fill-opacity:0.00392157;" d="M 7.523438 0.0078125 L 9.617188 119.992188 L 112.476562 58.1875 Z M 7.523438 0.0078125 "/>
<path style=" stroke:none;fill-rule:nonzero;fill:rgb(0%,0%,100%);fill-opacity:0.00392157;" d="M 8.039062 0 L 8.039062 120 L 111.960938 60 Z M 8.039062 0 "/>
<path style=" stroke:none;fill-rule:nonzero;fill:rgb(0%,0%,100%);fill-opacity:0.00392157;" d="M 9.617188 0.0078125 L 7.523438 119.992188 L 112.476562 61.8125 Z M 9.617188 0.0078125 "/>
<path style=" stroke:none;fill-rule:nonzero;fill:rgb(0%,0%,100%);fill-opacity:0.00392157;" d="M 11.210938 0.0351562 L 7.023438 119.964844 L 112.976562 63.625 Z M 11.210938 0.0351562 "/>
<path style=" stroke:none;fill-rule:nonzero;fill:rgb(0%,0%,100%);fill-opacity:0.00392157;" d="M 12.820312 0.0820312 L 6.539062 119.917969 L 113.460938 65.4375 Z M 12.820312 0.0820312 "/>
<path style=" stroke:none;fill-rule:nonzero;fill:rgb(0%,0%,100%);fill-opacity:0.00392157;" d="M 14.441406 0.144531 L 6.074219 119.855469 L 113.925781 67.25 Z M 14.441406 0.144531 "/>
<path style=" stroke:none;fill-rule:nonzero;fill:rgb(0%,0%,100%);fill-opacity:0.00392157;" d="M 16.082031 0.226562 L 5.621094 119.773438 L 114.378906 69.058594 Z M 16.082031 0.226562 "/>
<path style=" stroke:none;fill-rule:nonzero;fill:rgb(0%,0%,100%);fill-opacity:0.00392157;" d="M 17.730469 0.328125 L 5.1875 119.671875 L 114.8125 70.863281 Z M 17.730469 0.328125 "/>
<path style=" stroke:none;fill-rule:nonzero;fill:rgb(0%,0%,100%);fill-opacity:0.00392157;" d="M 19.394531 0.445312 L 4.769531 119.554688 L 115.230469 72.664062 Z M 19.394531 0.445312 "/>
<path style=" stroke:none;fill-rule:nonzero;fill:rgb(0%,0%,100%);fill-opacity:0.00392157;" d="M 21.070312 0.582031 L 4.367188 119.417969 L 115.632812 74.464844 Z M 21.070312 0.582031 "/>
<path style=" stroke:none;fill-rule:nonzero;fill:rgb(0%,0%,100%);fill-opacity:0.00392157;" d="M 22.757812 0.738281 L 3.984375 119.261719 L 116.015625 76.257812 Z M 22.757812 0.738281 "/>
<path style=" stroke:none;fill-rule:nonzero;fill:rgb(0%,0%,100%);fill-opacity:0.00392157;" d="M 24.457031 0.910156 L 3.617188 119.089844 L 116.382812 78.046875 Z M 24.457031 0.910156 "/>
<path style=" stroke:none;fill-rule:nonzero;fill:rgb(0%,0%,100%);fill-opacity:0.00392157;" d="M 26.164062 1.101562 L 3.269531 118.898438 L 116.730469 79.828125 Z M 26.164062 1.101562 "/>
<path style=" stroke:none;fill-rule:nonzero;fill:rgb(0%,0%,100%);fill-opacity:0.00392157;" d="M 27.886719 1.3125 L 2.9375 118.6875 L 117.0625 81.605469 Z M 27.886719 1.3125 "/>
<path style=" stroke:none;fill-rule:nonzero;fill:rgb(0%,0%,100%);fill-opacity:0.00392157;" d="M 29.617188 1.539062 L 2.621094 118.460938 L 117.378906 83.378906 Z M 29.617188 1.539062 "/>
<path style=" stroke:none;fill-rule:nonzero;fill:rgb(0%,0%,100%);fill-opacity:0.00392157;" d="M 31.355469 1.78125 L 2.324219 118.21875 L 117.675781 85.140625 Z M 31.355469 1.78125 "/>
<path style=" stroke:none;fill-rule:nonzero;fill:rgb(0%,0%,100%);fill-opacity:0.00392157;" d="M 33.101562 2.042969 L 2.042969 117.957031 L 117.957031 86.898438 Z M 33.101562 2.042969 "/>
<path style=" stroke:none;fill-rule:nonzero;fill:rgb(0%,0%,100%);fill-opacity:0.00392157;" d="M 34.859375 2.324219 L 1.78125 117.675781 L 118.21875 88.644531 Z M 34.859375 2.324219 "/>
<path style=" stroke:none;fill-rule:nonzero;fill:rgb(0%,0%,100%);fill-opacity:0.00392157;" d="M 36.621094 2.621094 L 1.539062 117.378906 L 118.460938 90.382812 Z M 36.621094 2.621094 "/>
<path style=" stroke:none;fill-rule:nonzero;fill:rgb(0%,0%,100%);fill-opacity:0.00392157;" d="M 38.394531 2.9375 L 1.3125 117.0625 L 118.6875 92.113281 Z M 38.394531 2.9375 "/>
<path style=" stroke:none;fill-rule:nonzero;fill:rgb(0%,0%,100%);fill-opacity:0.00392157;" d="M 40.171875 3.269531 L 1.101562 116.730469 L 118.898438 93.835938 Z M 40.171875 3.269531 "/>
<path style=" stroke:none;fill-rule:nonzero;fill:rgb(0%,0%,100%);fill-opacity:0.00392157;" d="M 41.953125 3.617188 L 0.910156 116.382812 L 119.089844 95.542969 Z M 41.953125 3.617188 "/>
<path style=" stroke:none;fill-rule:nonzero;fill:rgb(0%,0%,100%);fill-opacity:0.00392157;" d="M 43.742188 3.984375 L 0.738281 116.015625 L 119.261719 97.242188 Z M 43.742188 3.984375 "/>
<path style=" stroke:none;fill-rule:nonzero;fill:rgb(0%,0%,100%);fill-opacity:0.00392157;" d="M 45.535156 4.367188 L 0.582031 115.632812 L 119.417969 98.929688 Z M 45.535156 4.367188 "/>
<path style=" stroke:none;fill-rule:nonzero;fill:rgb(0%,0%,100%);fill-opacity:0.00392157;" d="M 47.335938 4.769531 L 0.445312 115.230469 L 119.554688 100.605469 Z M 47.335938 4.769531 "/>
<path style=" stroke:none;fill-rule:nonzero;fill:rgb(0%,0%,100%);fill-opacity:0.00392157;" d="M 49.136719 5.1875 L 0.328125 114.8125 L 119.671875 102.269531 Z M 49.136719 5.1875 "/>
<path style=" stroke:none;fill-rule:nonzero;fill:rgb(0%,0%,100%);fill-opacity:0.00392157;" d="M 50.941406 5.621094 L 0.226562 114.378906 L 119.773438 103.917969 Z M 50.941406 5.621094 "/>
<path style=" stroke:none;fill-rule:nonzero;fill:rgb(0%,0%,100%);fill-opacity:0.00392157;" d="M 52.75 6.074219 L 0.144531 113.925781 L 119.855469 105.558594 Z M 52.75 6.074219 "/>
<path style=" stroke:none;fill-rule:nonzero;fill:rgb(0%,0%,100%);fill-opacity:0.00392157;" d="M 54.5625 6.539062 L 0.0820312 113.460938 L 119.917969 107.179688 Z M 54.5625 6.539062 "/>
<path style=" stroke:none;fill-rule:nonzero;fill:rgb(0%,0%,100%);fill-opacity:0.00392157;" d="M 56.375 7.023438 L 0.0351562 112.976562 L 119.964844 108.789062 Z M 56.375 7.023438 "/>
<path style=" stroke:none;fill-rule:nonzero;fill:rgb(0%,0%,100%);fill-opacity:0.00392157;" d="M 58.1875 7.523438 L 0.0078125 112.476562 L 119.992188 110.382812 Z M 58.1875 7.523438 "/>
<path style=" stroke:none;fill-rule:nonzero;fill:rgb(0%,0%,100%);fill-opacity:0.00392157;" d="M 60 8.039062 L 0 111.960938 L 120 111.960938 Z M 60 8.039062 "/>
<path style=" stroke:none;fill-rule:nonzero;fill:rgb(0%,0%,100%);fill-opacity:0.00392157;" d="M 61.8125 7.523438 L 0.0078125 110.382812 L 119.992188 112.476562 Z M 61.8125 7.523438 "/>
<path style=" stroke:none;fill-rule:nonzero;fill:rgb(0%,0%,100%);fill-opacity:0.00392157;" d="M 63.625 7.023438 L 0.0351562 108.789062 L 119.964844 112.976562 Z M 63.625 7.023438 "/>
<path style=" stroke:none;fill-rule:nonzero;fill:rgb(0%,0%,100%);fill-opacity:0.00392157;" d="M 65.4375 6.539062 L 0.0820312 107.179688 L 119.917969 113.460938 Z M 65.4375 6.539062 "/>
<path style=" stroke:none;fill-rule:nonzero;fill:rgb(0%,0%,100%);fill-opacity:0.00392157;" d="M 67.25 6.074219 L 0.144531 105.558594 L 119.855469 113.925781 Z M 67.25 6.074219 "/>
<path style=" stroke:none;fill-rule:nonzero;fill:rgb(0%,0%,100%);fill-opacity:0.00392157;" d="M 69.058594 5.621094 L 0.226562 103.917969 L 119.773438 114.378906 Z M 69.058594 5.621094 "/>
<path style=" stroke:none;fill-rule:nonzero;fill:rgb(0%,0%,100%);fill-opacity:0.00392157;" d="M 70.863281 5.1875 L 0.328125 102.269531 L 119.671875 114.8125 Z M 70.863281 5.1875 "/>
<path style=" stroke:none;fill-rule:nonzero;fill:rgb(0%,0%,100%);fill-opacity:0.00392157;" d="M 72.664062 4.769531 L 0.445312 100.605469 L 119.554688 115.230469 Z M 72.664062 4.769531 "/>
<path style=" stroke:none;fill-rule:nonzero;fill:rgb(0%,0%,100%);fill-opacity:0.00392157;" d="M 74.464844 4.367188 L 0.582031 98.929688 L 119.417969 115.632812 Z M 74.464844 4.367188 "/>
<path style=" stroke:none;fill-rule:nonzero;fill:rgb(0%,0%,100%);fill-opacity:0.00392157;" d="M 76.257812 3.984375 L 0.738281 97.242188 L 119.261719 116.015625 Z M 76.257812 3.984375 "/>
<path style=" stroke:none;fill-rule:nonzero;fill:rgb(0%,0%,100%);fill-opacity:0.00392157;" d="M 78.046875 3.617188 L 0.910156 95.542969 L 119.089844 116.382812 Z M 78.046875 3.617188 "/>
<path style=" stroke:none;fill-rule:nonzero;fill:rgb(0%,0%,100%);fill-opacity:0.00392157;" d="M 79.828125 3.269531 L 1.101562 93.835938 L 118.898438 116.730469 Z M 79.828125 3.269531 "/>
<path style=" stroke:none;fill-rule:nonzero;fill:rgb(0%,0%,100%);fill-opacity:0.00392157;" d="M 81.605469 2.9375 L 1.3125 92.113281 L 118.6875 117.0625 Z M 81.605469 2.9375 "/>
<path style=" stroke:none;fill-rule:nonzero;fill:rgb(0%,0%,100%);fill-opacity:0.00392157;" d="M 83.378906 2.621094 L 1.539062 90.382812 L 118.460938 117.378906 Z M 83.378906 2.621094 "/>
<path style=" stroke:none;fill-rule:nonzero;fill:rgb(0%,0%,100%);fill-opacity:0.00392157;" d="M 85.140625 2.324219 L 1.78125 88.644531 L 118.21875 117.675781 Z M 85.140625 2.324219 "/>
<path style=" stroke:none;fill-rule:nonzero;fill:rgb(0%,0%,100%);fill-opacity:0.00392157;" d="M 86.898438 2.042969 L 2.042969 86.898438 L 117.957031 117.957031 Z M 86.898438 2.042969 "/>
<path style=" stroke:none;fill-rule:nonzero;fill:rgb(0%,0%,100%);fill-opacity:0.00392157;" d="M 88.644531 1.78125 L 2.324219 85.140625 L 117.675781 118.21875 Z M 88.644531 1.78125 "/>
<path style=" stroke:none;fill-rule:nonzero;fill:rgb(0%,0%,100%);fill-opacity:0.00392157;" d="M 90.382812 1.539062 L 2.621094 83.378906 L 117.378906 118.460938 Z M 90.382812 1.539062 "/>
<path style=" stroke:none;fill-rule:nonzero;fill:rgb(0%,0%,100%);fill-opacity:0.00392157;" d="M 92.113281 1.3125 L 2.9375 81.605469 L 117.0625 118.6875 Z M 92.113281 1.3125 "/>
<path style=" stroke:none;fill-rule:nonzero;fill:rgb(0%,0%,100%);fill-opacity:0.00392157;" d="M 93.835938 1.101562 L 3.269531 79.828125 L 116.730469 118.898438 Z M 93.835938 1.101562 "/>
<path style=" stroke:none;fill-rule:nonzero;fill:rgb(0%,0%,100%);fill-opacity:0.00392157;" d="M 95.542969 0.910156 L 3.617188 78.046875 L 116.382812 119.089844 Z M 95.542969 0.910156 "/>
<path style=" stroke:none;fill-rule:nonzero;fill:rgb(0%,0%,100%);fill-opacity:0.00392157;" d="M 97.242188 0.738281 L 3.984375 76.257812 L 116.015625 119.261719 Z M 97.242188 0.738281 "/>
<path style=" stroke:none;fill-rule:nonzero;fill:rgb(0%,0%,100%);fill-opacity:0.00392157;" d="M 98.929688 0.582031 L 4.367188 74.464844 L 115.632812 119.417969 Z M 98.929688 0.582031 "/>
<path style=" stroke:none;fill-rule:nonzero;fill:rgb(0%,0%,100%);fill-opacity:0.00392157;" d="M 100.605469 0.445312 L 4.769531 72.664062 L 115.230469 119.554688 Z M 100.605469 0.445312 "/>
<path style=" stroke:none;fill-rule:nonzero;fill:rgb(0%,0%,100%);fill-opacity:0.00392157;" d="M 102.269531 0.328125 L 5.1875 70.863281 L 114.8125 119.671875 Z M 102.269531 0.328125 "/>
<path style=" stroke:none;fill-rule:nonzero;fill:rgb(0%,0%,100%);fill-opacity:0.00392157;" d="M 103.917969 0.226562 L 5.621094 69.058594 L 114.378906 119.773438 Z M 103.917969 0.226562 "/>
<path style=" stroke:none;fill-rule:nonzero;fill:rgb(0%,0%,100%);fill-opacity:0.00392157;" d="M 105.558594 0.144531 L 6.074219 67.25 L 113.925781 119.855469 Z M 105.558594 0.144531 "/>
<path style=" stroke:none;fill-rule:nonzero;fill:rgb(0%,0%,100%);fill-opacity:0.00392157;" d="M 107.179688 0.0820312 L 6.539062 65.4375 L 113.460938 119.917969 Z M 107.179688 0.0820312 "/>
<path style=" stroke:none;fill-rule:nonzero;fill:rgb(0%,0%,100%);fill-opacity:0.00392157;" d="M 108.789062 0.0351562 L 7.023438 63.625 L 112.976562 119.964844 Z M 108.789062 0.0351562 "/>
<path style=" stroke:none;fill-rule:nonzero;fill:rgb(0%,0%,100%);fill-opacity:0.00392157;" d="M 110.382812 0.0078125 L 7.523438 61.8125 L 112.476562 119.992188 Z M 110.382812 0.0078125 "/>
<path style=" stroke:none;fill-rule:nonzero;fill:rgb(0%,0%,100%);fill-opacity:0.00392157;" d="M 111.960938 0 L 8.039062 60 L 111.960938 120 Z M 111.960938 0 "/>
<path style=" stroke:none;fill-rule:nonzero;fill:rgb(0%,0%,100%);fill-opacity:0.00392157;" d="M 112.476562 0.0078125 L 7.523438 58.1875 L 110.382812 119.992188 Z M 112.476562 0.0078125 "/>
<path style=" stroke:none;fill-rule:nonzero;fill:rgb(0%,0%,100%);fill-opacity:0.00392157;" d="M 112.976562 0.0351562 L 7.023438 56.375 L 108.789062 119.964844 Z M 112.976562 0.0351562 "/>
<path style=" stroke:none;fill-rule:nonzero;fill:rgb(0%,0%,100%);fill-opacity:0.00392157;" d="M 113.460938 0.0820312 L 6.539062 54.5625 L 107.179688 119.917969 Z M 113.460938 0.0820312 "/>
<path style=" stroke:none;fill-rule:nonzero;fill:rgb(0%,0%,100%);fill-opacity:0.00392157;" d="M 113.925781 0.144531 L 6.074219 52.75 L 105.558594 119.855469 Z M 113.925781 0.144531 "/>
<path style=" stroke:none;fill-rule:nonzero;fill:rgb(0%,0%,100%);fill-opacity:0.00392157;" d="M 114.378906 0.226562 L 5.621094 50.941406 L 103.917969 119.773438 Z M 114.378906 0.226562 "/>
<path style=" stroke:none;fill-rule:nonzero;fill:rgb(0%,0%,100%);fill-opacity:0.00392157;" d="M 114.8125 0.328125 L 5.1875 49.136719 L 102.269531 119.671875 Z M 114.8125 0.328125 "/>
<path style=" stroke:none;fill-rule:nonzero;fill:rgb(0%,0%,100%);fill-opacity:0.00392157;" d="M 115.230469 0.445312 L 4.769531 47.335938 L 100.605469 119.554688 Z M 115.230469 0.445312 "/>
<path style=" stroke:none;fill-rule:nonzero;fill:rgb(0%,0%,100%);fill-opacity:0.00392157;" d="M 115.632812 0.582031 L 4.367188 45.535156 L 98.929688 119.417969 Z M 115.632812 0.582031 "/>
<path style=" stroke:none;fill-rule:nonzero;fill:rgb(0%,0%,100%);fill-opacity:0.00392157;" d="M 116.015625 0.738281 L 3.984375 43.742188 L 97.242188 119.261719 Z M 116.015625 0.738281 "/>
<path style=" stroke:none;fill-rule:nonzero;fill:rgb(0%,0%,100%);fill-opacity:0.00392157;" d="M 116.382812 0.910156 L 3.617188 41.953125 L 95.542969 119.089844 Z M 116.382812 0.910156 "/>
<path style=" stroke:none;fill-rule:nonzero;fill:rgb(0%,0%,100%);fill-opacity:0.00392157;" d="M 116.730469 1.101562 L 3.269531 40.171875 L 93.835938 118.898438 Z M 116.730469 1.101562 "/>
<path style=" stroke:none;fill-rule:nonzero;fill:rgb(0%,0%,100%);fill-opacity:0.00392157;" d="M 117.0625 1.3125 L 2.9375 38.394531 L 92.113281 118.6875 Z M 117.0625 1.3125 "/>
<path style=" stroke:none;fill-rule:nonzero;fill:rgb(0%,0%,100%);fill-opacity:0.00392157;" d="M 117.378906 1.539062 L 2.621094 36.621094 L 90.382812 118.460938 Z M 117.378906 1.539062 "/>
<path style=" stroke:none;fill-rule:nonzero;fill:rgb(0%,0%,100%);fill-opacity:0.00392157;" d="M 117.675781 1.78125 L 2.324219 34.859375 L 88.644531 118.21875 Z M 117.675781 1.78125 "/>
<path style=" stroke:none;fill-rule:nonzero;fill:rgb(0%,0%,100%);fill-opacity:0.00392157;" d="M 117.957031 2.042969 L 2.042969 33.101562 L 86.898438 117.957031 Z M 117.957031 2.042969 "/>
<path style=" stroke:none;fill-rule:nonzero;fill:rgb(0%,0%,100%);fill-opacity:0.00392157;" d="M 118.21875 2.324219 L 1.78125 31.355469 L 85.140625 117.675781 Z M 118.21875 2.324219 "/>
<path style=" stroke:none;fill-rule:nonzero;fill:rgb(0%,0%,100%);fill-opacity:0.00392157;" d="M 118.460938 2.621094 L 1.539062 29.617188 L 83.378906 117.378906 Z M 118.460938 2.621094 "/>
<path style=" stroke:none;fill-rule:nonzero;fill:rgb(0%,0%,100%);fill-opacity:0.00392157;" d="M 118.6875 2.9375 L 1.3125 27.886719 L 81.605469 117.0625 Z M 118.6875 2.9375 "/>
<path style=" stroke:none;fill-rule:nonzero;fill:rgb(0%,0%,100%);fill-opacity:0.00392157;" d="M 118.898438 3.269531 L 1.101562 26.164062 L 79.828125 116.730469 Z M 118.898438 3.269531 "/>
<path style=" stroke:none;fill-rule:nonzero;fill:rgb(0%,0%,100%);fill-opacity:0.00392157;" d="M 119.089844 3.617188 L 0.910156 24.457031 L 78.046875 116.382812 Z M 119.089844 3.617188 "/>
<path style=" stroke:none;fill-rule:nonzero;fill:rgb(0%,0%,100%);fill-opacity:0.00392157;" d="M 119.261719 3.984375 L 0.738281 22.757812 L 76.257812 116.015625 Z M 119.261719 3.984375 "/>
<path style=" stroke:none;fill-rule:nonzero;fill:rgb(0%,0%,100%);fill-opacity:0.00392157;" d="M 119.417969 4.367188 L 0.582031 21.070312 L 74.464844 115.632812 Z M 119.417969 4.367188 "/>
<path style=" stroke:none;fill-rule:nonzero;fill:rgb(0%,0%,100%);fill-opacity:0.00392157;" d="M 119.554688 4.769531 L 0.445312 19.394531 L 72.664062 115.230469 Z M 119.554688 4.769531 "/>
<path style=" stroke:none;fill-rule:nonzero;fill:rgb(0%,0%,100%);fill-opacity:0.00392157;" d="M 119.671875 5.1875 L 0.328125 17.730469 L 70.863281 114.8125 Z M 119.671875 5.1875 "/>
<path style=" stroke:none;fill-rule:nonzero;fill:rgb(0%,0%,100%);fill-opacity:0.00392157;" d="M 119.773438 5.621094 L 0.226562 16.082031 L 69.058594 114.378906 Z M 119.773438 5.621094 "/>
<path style=" stroke:none;fill-rule:nonzero;fill:rgb(0%,0%,100%);fill-opacity:0.00392157;" d="M 119.855469 6.074219 L 0.144531 14.441406 L 67.25 113.925781 Z M 119.855469 6.074219 "/>
<path style=" stroke:none;fill-rule:nonzero;fill:rgb(0%,0%,100%);fill-opacity:0.00392157;" d="M 119.917969 6.539062 L 0.0820312 12.820312 L 65.4375 113.460938 Z M 119.917969 6.539062 "/>
<path style=" stroke:none;fill-rule:nonzero;fill:rgb(0%,0%,100%);fill-opacity:0.00392157;" d="M 119.964844 7.023438 L 0.0351562 11.210938 L 63.625 112.976562 Z M 119.964844 7.023438 "/>
<path style=" stroke:none;fill-rule:nonzero;fill:rgb(0%,0%,100%);fill-opacity:0.00392157;" d="M 119.992188 7.523438 L 0.0078125 9.617188 L 61.8125 112.476562 Z M 119.992188 7.523438 "/>
<path style=" stroke:none;fill-rule:nonzero;fill:rgb(0%,0%,100%);fill-opacity:0.00392157;" d="M 120 8.039062 L 0 8.039062 L 60 111.960938 Z M 120 8.039062 "/>
<path style=" stroke:none;fill-rule:nonzero;fill:rgb(0%,0%,100%);fill-opacity:0.00392157;" d="M 119.992188 9.617188 L 0.0078125 7.523438 L 58.1875 112.476562 Z M 119.992188 9.617188 "/>
<path style=" stroke:none;fill-rule:nonzero;fill:rgb(0%,0%,100%);fill-opacity:0.00392157;" d="M 119.964844 11.210938 L 0.0351562 7.023438 L 56.375 112.976562 Z M 119.964844 11.210938 "/>
<path style=" stroke:none;fill-rule:nonzero;fill:rgb(0%,0%,100%);fill-opacity:0.00392157;" d="M 119.917969 12.820312 L 0.0820312 6.539062 L 54.5625 113.460938 Z M 119.917969 12.820312 "/>
<path style=" stroke:none;fill-rule:nonzero;fill:rgb(0%,0%,100%);fill-opacity:0.00392157;" d="M 119.855469 14.441406 L 0.144531 6.074219 L 52.75 113.925781 Z M 119.855469 14.441406 "/>
<path style=" stroke:none;fill-rule:nonzero;fill:rgb(0%,0%,100%);fill-opacity:0.00392157;" d="M 119.773438 16.082031 L 0.226562 5.621094 L 50.941406 114.378906 Z M 119.773438 16.082031 "/>
<path style=" stroke:none;fill-rule:nonzero;fill:rgb(0%,0%,100%);fill-opacity:0.00392157;" d="M 119.671875 17.730469 L 0.328125 5.1875 L 49.136719 114.8125 Z M 119.671875 17.730469 "/>
<path style=" stroke:none;fill-rule:nonzero;fill:rgb(0%,0%,100%);fill-opacity:0.00392157;" d="M 119.554688 19.394531 L 0.445312 4.769531 L 47.335938 115.230469 Z M 119.554688 19.394531 "/>
<path style=" stroke:none;fill-rule:nonzero;fill:rgb(0%,0%,100%);fill-opacity:0.00392157;" d="M 119.417969 21.070312 L 0.582031 4.367188 L 45.535156 115.632812 Z M 119.417969 21.070312 "/>
<path style=" stroke:none;fill-rule:nonzero;fill:rgb(0%,0%,100%);fill-opacity:0.00392157;" d="M 119.261719 22.757812 L 0.738281 3.984375 L 43.742188 116.015625 Z M 119.261719 22.757812 "/>
<path style=" stroke:none;fill-rule:nonzero;fill:rgb(0%,0%,100%);fill-opacity:0.00392157;" d="M 119.089844 24.457031 L 0.910156 3.617188 L 41.953125 116.382812 Z M 119.089844 24.457031 "/>
<path style=" stroke:none;fill-rule:nonzero;fill:rgb(0%,0%,100%);fill-opacity:0.00392157;" d="M 118.898438 26.164062 L 1.101562 3.269531 L 40.171875 116.730469 Z M 118.898438 26.164062 "/>
<path style=" stroke:none;fill-rule:nonzero;fill:rgb(0%,0%,100%);fill-opacity:0.00392157;" d="M 118.6875 27.886719 L 1.3125 2.9375 L 38.394531 117.0625 Z M 118.6875 27.886719 "/>
<path style=" stroke:none;fill-rule:nonzero;fill:rgb(0%,0%,100%);fill-opacity:0.00392157;" d="M 118.460938 29.617188 L 1.539062 2.621094 L 36.621094 117.378906 Z M 118.460938 29.617188 "/>
<path style=" stroke:none;fill-rule:nonzero;fill:rgb(0%,0%,100%);fill-opacity:0.00392157;" d="M 118.21875 31.355469 L 1.78125 2.324219 L 34.859375 117.675781 Z M 118.21875 31.355469 "/>
<path style=" stroke:none;fill-rule:nonzero;fill:rgb(0%,0%,100%);fill-opacity:0.00392157;" d="M 117.957031 33.101562 L 2.042969 2.042969 L 33.101562 117.957031 Z M 117.957031 33.101562 "/>
<path style=" stroke:none;fill-rule:nonzero;fill:rgb(0%,0%,100%);fill-opacity:0.00392157;" d="M 117.675781 34.859375 L 2.324219 1.78125 L 31.355469 118.21875 Z M 117.675781 34.859375 "/>
<path style=" stroke:none;fill-rule:nonzero;fill:rgb(0%,0%,100%);fill-opacity:0.00392157;" d="M 117.378906 36.621094 L 2.621094 1.539062 L 29.617188 118.460938 Z M 117.378906 36.621094 "/>
<path style=" stroke:none;fill-rule:nonzero;fill:rgb(0%,0%,100%);fill-opacity:0.00392157;" d="M 117.0625 38.394531 L 2.9375 1.3125 L 27.886719 118.6875 Z M 117.0625 38.394531 "/>
<path style=" stroke:none;fill-rule:nonzero;fill:rgb(0%,0%,100%);fill-opacity:0.00392157;" d="M 116.730469 40.171875 L 3.269531 1.101562 L 26.164062 118.898438 Z M 116.730469 40.171875 "/>
<path style=" stroke:none;fill-rule:nonzero;fill:rgb(0%,0%,100%);fill-opacity:0.00392157;" d="M 116.382812 41.953125 L 3.617188 0.910156 L 24.457031 119.089844 Z M 116.382812 41.953125 "/>
<path style=" stroke:none;fill-rule:nonzero;fill:rgb(0%,0%,100%);fill-opacity:0.00392157;" d="M 116.015625 43.742188 L 3.984375 0.738281 L 22.757812 119.261719 Z M 116.015625 43.742188 "/>
<path style=" stroke:none;fill-rule:nonzero;fill:rgb(0%,0%,100%);fill-opacity:0.00392157;" d="M 115.632812 45.535156 L 4.367188 0.582031 L 21.070312 119.417969 Z M 115.632812 45.535156 "/>
<path style=" stroke:none;fill-rule:nonzero;fill:rgb(0%,0%,100%);fill-opacity:0.00392157;" d="M 115.230469 47.335938 L 4.769531 0.445312 L 19.394531 119.554688 Z M 115.230469 47.335938 "/>
<path style=" stroke:none;fill-rule:nonzero;fill:rgb(0%,0%,100%);fill-opacity:0.00392157;" d="M 114.8125 49.136719 L 5.1875 0.328125 L 17.730469 119.671875 Z M 114.8125 49.136719 "/>
<path style=" stroke:none;fill-rule:nonzero;fill:rgb(0%,0%,100%);fill-opacity:0.00392157;" d="M 114.378906 50.941406 L 5.621094 0.226562 L 16.082031 119.773438 Z M 114.378906 50.941406 "/>
<path style=" stroke:none;fill-rule:nonzero;fill:rgb(0%,0%,100%);fill-opacity:0.00392157;" d="M 113.925781 52.75 L 6.074219 0.144531 L 14.441406 119.855469 Z M 113.925781 52.75 "/>
<path style=" stroke:none;fill-rule:nonzero;fill:rgb(0%,0%,100%);fill-opacity:0.00392157;" d="M 113.460938 54.5625 L 6.539062 0.0820312 L 12.820312 119.917969 Z M 113.460938 54.5625 "/>
<path style=" stroke:none;fill-rule:nonzero;fill:rgb(0%,0%,100%);fill-opacity:0.00392157;" d="M 112.976562 56.375 L 7.023438 0.0351562 L 11.210938 119.964844 Z M 112.976562 56.375 "/>
<path style=" stroke:none;fill-rule:nonzero;fill:rgb(0%,0%,100%);fill-opacity:0.00392157;" d="M 112.476562 58.1875 L 7.523438 0.0078125 L 9.617188 119.992188 Z M 112.476562 58.1875 "/>
<path style=" stroke:none;fill-rule:nonzero;fill:rgb(0%,0%,100%);fill-opacity:0.00392157;" d="M 111.960938 60 L 8.039062 0 L 8.039062 120 Z M 111.960938 60 "/>
<path style=" stroke:none;fill-rule:nonzero;fill:rgb(0%,0%,100%);fill-opacity:0.00392157;" d="M 112.476562 61.8125 L 9.617188 0.0078125 L 7.523438 119.992188 Z M 112.476562 61.8125 "/>
<path style=" stroke:none;fill-rule:nonzero;fill:rgb(0%,0%,100%);fill-opacity:0.00392157;" d="M 112.976562 63.625 L 11.210938 0.0351562 L 7.023438 119.964844 Z M 112.976562 63.625 "/>
<path style=" stroke:none;fill-rule:nonzero;fill:rgb(0%,0%,100%);fill-opacity:0.00392157;" d="M 113.460938 65.4375 L 12.820312 0.0820312 L 6.539062 119.917969 Z M 113.460938 65.4375 "/>
<path style=" stroke:none;fill-rule:nonzero;fill:rgb(0%,0%,100%);fill-opacity:0.00392157;" d="M 113.925781 67.25 L 14.441406 0.144531 L 6.074219 119.855469 Z M 113.925781 67.25 "/>
<path style=" stroke:none;fill-rule:nonzero;fill:rgb(0%,0%,100%);fill-opacity:0.00392157;" d="M 114.378906 69.058594 L 16.082031 0.226562 L 5.621094 119.773438 Z M 114.378906 69.058594 "/>
<path style=" stroke:none;fill-rule:nonzero;fill:rgb(0%,0%,100%);fill-opacity:0.00392157;" d="M 114.8125 70.863281 L 17.730469 0.328125 L 5.1875 119.671875 Z M 114.8125 70.863281 "/>
<path style=" stroke:none;fill-rule:nonzero;fill:rgb(0%,0%,100%);fill-opacity:0.00392157;" d="M 115.230469 72.664062 L 19.394531 0.445312 L 4.769531 119.554688 Z M 115.230469 72.664062 "/>
<path style=" stroke:none;fill-rule:nonzero;fill:rgb(0%,0%,100%);fill-opacity:0.00392157;" d="M 115.632812 74.464844 L 21.070312 0.582031 L 4.367188 119.417969 Z M 115.632812 74.464844 "/>
<path style=" stroke:none;fill-rule:nonzero;fill:rgb(0%,0%,100%);fill-opacity:0.00392157;" d="M 116.015625 76.257812 L 22.757812 0.738281 L 3.984375 119.261719 Z M 116.015625 76.257812 "/>
<path style=" stroke:none;fill-rule:nonzero;fill:rgb(0%,0%,100%);fill-opacity:0.00392157;" d="M 116.382812 78.046875 L 24.457031 0.910156 L 3.617188 119.089844 Z M 116.382812 78.046875 "/>
<path style=" stroke:none;fill-rule:nonzero;fill:rgb(0%,0%,100%);fill-opacity:0.00392157;" d="M 116.730469 79.828125 L 26.164062 1.101562 L 3.269531 118.898438 Z M 116.730469 79.828125 "/>
<path style=" stroke:none;fill-rule:nonzero;fill:rgb(0%,0%,100%);fill-opacity:0.00392157;" d="M 117.0625 81.605469 L 27.886719 1.3125 L 2.9375 118.6875 Z M 117.0625 81.605469 "/>
<path style=" stroke:none;fill-rule:nonzero;fill:rgb(0%,0%,100%);fill-opacity:0.00392157;" d="M 117.378906 83.378906 L 29.617188 1.539062 L 2.621094 118.460938 Z M 117.378906 83.378906 "/>
<path style=" stroke:none;fill-rule:nonzero;fill:rgb(0%,0%,100%);fill-opacity:0.00392157;" d="M 117.675781 85.140625 L 31.355469 1.78125 L 2.324219 118.21875 Z M 117.675781 85.140625 "/>
<path style=" stroke:none;fill-rule:nonzero;fill:rgb(0%,0%,100%);fill-opacity:0.00392157;" d="M 117.957031 86.898438 L 33.101562 2.042969 L 2.042969 117.957031 Z M 117.957031 86.898438 "/>
<path style=" stroke:none;fill-rule:nonzero;fill:rgb(0%,0%,100%);fill-opacity:0.00392157;" d="M 118.21875 88.644531 L 34.859375 2.324219 L 1.78125 117.675781 Z M 118.21875 88.644531 "/>
<path style=" stroke:none;fill-rule:nonzero;fill:rgb(0%,0%,100%);fill-opacity:0.00392157;" d="M 118.460938 90.382812 L 36.621094 2.621094 L 1.539062 117.378906 Z M 118.460938 90.382812 "/>
<path style=" stroke:none;fill-rule:nonzero;fill:rgb(0%,0%,100%);fill-opacity:0.00392157;" d="M 118.6875 92.113281 L 38.394531 2.9375 L 1.3125 117.0625 Z M 118.6875 92.113281 "/>
<path style=" stroke:none;fill-rule:nonzero;fill:rgb(0%,0%,100%);fill-opacity:0.00392157;" d="M 118.898438 93.835938 L 40.171875 3.269531 L 1.101562 116.730469 Z M 118.898438 93.835938 "/>
<path style=" stroke:none;fill-rule:nonzero;fill:rgb(0%,0%,100%);fill-opacity:0.00392157;" d="M 119.089844 95.542969 L 41.953125 3.617188 L 0.910156 116.382812 Z M 119.089844 95.542969 "/>
<path style=" stroke:none;fill-rule:nonzero;fill:rgb(0%,0%,100%);fill-opacity:0.00392157;" d="M 119.261719 97.242188 L 43.742188 3.984375 L 0.738281 116.015625 Z M 119.261719 97.242188 "/>
<path style=" stroke:none;fill-rule:nonzero;fill:rgb(0%,0%,100%);fill-opacity:0.00392157;" d="M 119.417969 98.929688 L 45.535156 4.367188 L 0.582031 115.632812 Z M 119.417969 98.929688 "/>
<path style=" stroke:none;fill-rule:nonzero;fill:rgb(0%,0%,100%);fill-opacity:0.00392157;" d="M 119.554688 100.605469 L 47.335938 4.769531 L 0.445312 115.230469 Z M 119.554688 100.605469 "/>
<path style=" stroke:none;fill-rule:nonzero;fill:rgb(0%,0%,100%);fill-opacity:0.00392157;" d="M 119.671875 102.269531 L 49.136719 5.1875 L 0.328125 114.8125 Z M 119.671875 102.269531 "/>
<path style=" stroke:none;fill-rule:nonzero;fill:rgb(0%,0%,100%);fill-opacity:0.00392157;" d="M 119.773438 103.917969 L 50.941406 5.621094 L 0.226562 114.378906 Z M 119.773438 103.917969 "/>
<path style=" stroke:none;fill-rule:nonzero;fill:rgb(0%,0%,100%);fill-opacity:0.00392157;" d="M 119.855469 105.558594 L 52.75 6.074219 L 0.144531 113.925781 Z M 119.855469 105.558594 "/>
<path style=" stroke:none;fill-rule:nonzero;fill:rgb(0%,0%,100%);fill-opacity:0.00392157;" d="M 119.917969 107.179688 L 54.5625 6.539062 L 0.0820312 113.460938 Z M 119.917969 107.179688 "/>
<path style=" stroke:none;fill-rule:nonzero;fill:rgb(0%,0%,100%);fill-opacity:0.00392157;" d="M 119.964844 108.789062 L 56.375 7.023438 L 0.0351562 112.976562 Z M 119.964844 108.789062 "/>
<path style=" stroke:none;fill-rule:nonzero;fill:rgb(0%,0%,100%);fill-opacity:0.00392157;" d="M 119.992188 110.382812 L 58.1875 7.523438 L 0.0078125 112.476562 Z M 119.992188 110.382812 "/>
<path style=" stroke:none;fill-rule:nonzero;fill:rgb(0%,0%,100%);fill-opacity:0.00392157;" d="M 120 111.960938 L 60 8.039062 L 0 111.960938 Z M 120 111.960938 "/>
<path style=" stroke:none;fill-rule:nonzero;fill:rgb(0%,0%,100%);fill-opacity:0.00392157;" d="M 119.992188 112.476562 L 61.8125 7.523438 L 0.0078125 110.382812 Z M 119.992188 112.476562 "/>
<path style=" stroke:none;fill-rule:nonzero;fill:rgb(0%,0%,100%);fill-opacity:0.00392157;" d="M 119.964844 112.976562 L 63.625 7.023438 L 0.0351562 108.789062 Z M 119.964844 112.976562 "/>
<path style=" stroke:none;fill-rule:nonzero;fill:rgb(0%,0%,100%);fill-opacity:0.00392157;" d="M 119.917969 113.460938 L 65.4375 6.539062 L 0.0820312 107.179688 Z M 119.917969 113.460938 "/>
<path style=" stroke:none;fill-rule:nonzero;fill:rgb(0%,0%,100%);fill-opacity:0.00392157;" d="M 119.855469 113.925781 L 67.25 6.074219 L 0.144531 105.558594 Z M 119.855469 113.925781 "/>
<path style=" stroke:none;fill-rule:nonzero;fill:rgb(0%,0%,100%);fill-opacity:0.00392157;" d="M 119.773438 114.378906 L 69.058594 5.621094 L 0.226562 103.917969 Z M 119.773438 114.378906 "/>
<path style=" stroke:none;fill-rule:nonzero;fill:rgb(0%,0%,100%);fill-opacity:0.00392157;" d="M 119.671875 114.8125 L 70.863281 5.1875 L 0.328125 102.269531 Z M 119.671875 114.8125 "/>
<path style=" stroke:none;fill-rule:nonzero;fill:rgb(0%,0%,100%);fill-opacity:0.00392157;" d="M 119.554688 115.230469 L 72.664062 4.769531 L 0.445312 100.605469 Z M 119.554688 115.230469 "/>
<path style=" stroke:none;fill-rule:nonzero;fill:rgb(0%,0%,100%);fill-opacity:0.00392157;" d="M 119.417969 115.632812 L 74.464844 4.367188 L 0.582031 98.929688 Z M 119.417969 115.632812 "/>
<path style=" stroke:none;fill-rule:nonzero;fill:rgb(0%,0%,100%);fill-opacity:0.00392157;" d="M 119.261719 116.015625 L 76.257812 3.984375 L 0.738281 97.242188 Z M 119.261719 116.015625 "/>
<path style=" stroke:none;fill-rule:nonzero;fill:rgb(0%,0%,100%);fill-opacity:0.00392157;" d="M 119.089844 116.382812 L 78.046875 3.617188 L 0.910156 95.542969 Z M 119.089844 116.382812 "/>
<path style=" stroke:none;fill-rule:nonzero;fill:rgb(0%,0%,100%);fill-opacity:0.00392157;" d="M 118.898438 116.730469 L 79.828125 3.269531 L 1.101562 93.835938 Z M 118.898438 116.730469 "/>
<path style=" stroke:none;fill-rule:nonzero;fill:rgb(0%,0%,100%);fill-opacity:0.00392157;" d="M 118.6875 117.0625 L 81.605469 2.9375 L 1.3125 92.113281 Z M 118.6875 117.0625 "/>
<path style=" stroke:none;fill-rule:nonzero;fill:rgb(0%,0%,100%);fill-opacity:0.00392157;" d="M 118.460938 117.378906 L 83.378906 2.621094 L 1.539062 90.382812 Z M 118.460938 117.378906 "/>
<path style=" stroke:none;fill-rule:nonzero;fill:rgb(0%,0%,100%);fill-opacity:0.00392157;" d="M 118.21875 117.675781 L 85.140625 2.324219 L 1.78125 88.644531 Z M 118.21875 117.675781 "/>
<path style=" stroke:none;fill-rule:nonzero;fill:rgb(0%,0%,100%);fill-opacity:0.00392157;" d="M 117.957031 117.957031 L 86.898438 2.042969 L 2.042969 86.898438 Z M 117.957031 117.957031 "/>
<path style=" stroke:none;fill-rule:nonzero;fill:rgb(0%,0%,100%);fill-opacity:0.00392157;" d="M 117.675781 118.21875 L 88.644531 1.78125 L 2.324219 85.140625 Z M 117.675781 118.21875 "/>
<path style=" stroke:none;fill-rule:nonzero;fill:rgb(0%,0%,100%);fill-opacity:0.00392157;" d="M 117.378906 118.460938 L 90.382812 1.539062 L 2.621094 83.378906 Z M 117.378906 118.460938 "/>
<path style=" stroke:none;fill-rule:nonzero;fill:rgb(0%,0%,100%);fill-opacity:0.00392157;" d="M 117.0625 118.6875 L 92.113281 1.3125 L 2.9375 81.605469 Z M 117.0625 118.6875 "/>
<path style=" stroke:none;fill-rule:nonzero;fill:rgb(0%,0%,100%);fill-opacity:0.00392157;" d="M 116.730469 118.898438 L 93.835938 1.101562 L 3.269531 79.828125 Z M 116.730469 118.898438 "/>
<path style=" stroke:none;fill-rule:nonzero;fill:rgb(0%,0%,100%);fill-opacity:0.00392157;" d="M 116.382812 119.089844 L 95.542969 0.910156 L 3.617188 78.046875 Z M 116.382812 119.089844 "/>
<path style=" stroke:none;fill-rule:nonzero;fill:rgb(0%,0%,100%);fill-opacity:0.00392157;" d="M 116.015625 119.261719 L 97.242188 0.738281 L 3.984375 76.257812 Z M 116.015625 119.261719 "/>
<path style=" stroke:none;fill-rule:nonzero;fill:rgb(0%,0%,100%);fill-opacity:0.00392157;" d="M 115.632812 119.417969 L 98.929688 0.582031 L 4.367188 74.464844 Z M 115.632812 119.417969 "/>
<path style=" stroke:none;fill-rule:nonzero;fill:rgb(0%,0%,100%);fill-opacity:0.00392157;" d="M 115.230469 119.554688 L 100.605469 0.445312 L 4.769531 72.664062 Z M 115.230469 119.554688 "/>
<path style=" stroke:none;fill-rule:nonzero;fill:rgb(0%,0%,100%);fill-opacity:0.00392157;" d="M 114.8125 119.671875 L 102.269531 0.328125 L 5.1875 70.863281 Z M 114.8125 119.671875 "/>
<path style=" stroke:none;fill-rule:nonzero;fill:rgb(0%,0%,100%);fill-opacity:0.00392157;" d="M 114.378906 119.773438 L 103.917969 0.226562 L 5.621094 69.058594 Z M 114.378906 119.773438 "/>
<path style=" stroke:none;fill-rule:nonzero;fill:rgb(0%,0%,100%);fill-opacity:0.00392157;" d="M 113.925781 119.855469 L 105.558594 0.144531 L 6.074219 67.25 Z M 113.925781 119.855469 "/>
<path style=" stroke:none;fill-rule:nonzero;fill:rgb(0%,0%,100%);fill-opacity:0.00392157;" d="M 113.460938 119.917969 L 107.179688 0.0820312 L 6.539062 65.4375 Z M 113.460938 119.917969 "/>
<path style=" stroke:none;fill-rule:nonzero;fill:rgb(0%,0%,100%);fill-opacity:0.00392157;" d="M 112.976562 119.964844 L 108.789062 0.0351562 L 7.023438 63.625 Z M 112.976562 119.964844 "/>
<path style=" stroke:none;fill-rule:nonzero;fill:rgb(0%,0%,100%);fill-opacity:0.00392157;" d="M 112.476562 119.992188 L 110.382812 0.0078125 L 7.523438 61.8125 Z M 112.476562 119.992188 "/>
<path style=" stroke:none;fill-rule:nonzero;fill:rgb(0%,0%,100%);fill-opacity:0.00392157;" d="M 111.960938 120 L 111.960938 0 L 8.039062 60 Z M 111.960938 120 "/>
<path style=" stroke:none;fill-rule:nonzero;fill:rgb(0%,0%,100%);fill-opacity:0.00392157;" d="M 110.382812 119.992188 L 112.476562 0.0078125 L 7.523438 58.1875 Z M 110.382812 119.992188 "/>
<path style=" stroke:none;fill-rule:nonzero;fill:rgb(0%,0%,100%);fill-opacity:0.00392157;" d="M 108.789062 119.964844 L 112.976562 0.0351562 L 7.023438 56.375 Z M 108.789062 119.964844 "/>
<path style=" stroke:none;fill-rule:nonzero;fill:rgb(0%,0%,100%);fill-opacity:0.00392157;" d="M 107.179688 119.917969 L 113.460938 0.0820312 L 6.539062 54.5625 Z M 107.179688 119.917969 "/>
<path style=" stroke:none;fill-rule:nonzero;fill:rgb(0%,0%,100%);fill-opacity:0.00392157;" d="M 105.558594 119.855469 L 113.925781 0.144531 L 6.074219 52.75 Z M 105.558594 119.855469 "/>
<path style=" stroke:none;fill-rule:nonzero;fill:rgb(0%,0%,100%);fill-opacity:0.00392157;" d="M 103.917969 119.773438 L 114.378906 0.226562 L 5.621094 50.941406 Z M 103.917969 119.773438 "/>
<path style=" stroke:none;fill-rule:nonzero;fill:rgb(0%,0%,100%);fill-opacity:0.00392157;" d="M 102.269531 119.671875 L 114.8125 0.328125 L 5.1875 49.136719 Z M 102.269531 119.671875 "/>
<path style=" stroke:none;fill-rule:nonzero;fill:rgb(0%,0%,100%);fill-opacity:0.00392157;" d="M 100.605469 119.554688 L 115.230469 0.445312 L 4.769531 47.335938 Z M 100.605469 119.554688 "/>
<path style=" stroke:none;fill-rule:nonzero;fill:rgb(0%,0%,100%);fill-opacity:0.00392157;" d="M 98.929688 119.417969 L 115.632812 0.582031 L 4.367188 45.535156 Z M 98.929688 119.417969 "/>
<path style=" stroke:none;fill-rule:nonzero;fill:rgb(0%,0%,100%);fill-opacity:0.00392157;" d="M 97.242188 119.261719 L 116.015625 0.738281 L 3.984375 43.742188 Z M 97.242188 119.261719 "/>
<path style=" stroke:none;fill-rule:nonzero;fill:rgb(0%,0%,100%);fill-opacity:0.00392157;" d="M 95.542969 119.089844 L 116.382812 0.910156 L 3.617188 41.953125 Z M 95.542969 119.089844 "/>
<path style=" stroke:none;fill-rule:nonzero;fill:rgb(0%,0%,100%);fill-opacity:0.00392157;" d="M 93.835938 118.898438 L 116.730469 1.101562 L 3.269531 40.171875 Z M 93.835938 118.898438 "/>
<path style=" stroke:none;fill-rule:nonzero;fill:rgb(0%,0%,100%);fill-opacity:0.00392157;" d="M 92.113281 118.6875 L 117.0625 1.3125 L 2.9375 38.394531 Z M 92.113281 118.6875 "/>
<path style=" stroke:none;fill-rule:nonzero;fill:rgb(0%,0%,100%);fill-opacity:0.00392157;" d="M 90.382812 118.460938 L 117.378906 1.539062 L 2.621094 36.621094 Z M 90.382812 118.460938 "/>
<path style=" stroke:none;fill-rule:nonzero;fill:rgb(0%,0%,100%);fill-opacity:0.00392157;" d="M 88.644531 118.21875 L 117.675781 1.78125 L 2.324219 34.859375 Z M 88.644531 118.21875 "/>
<path style=" stroke:none;fill-rule:nonzero;fill:rgb(0%,0%,100%);fill-opacity:0.00392157;" d="M 86.898438 117.957031 L 117.957031 2.042969 L 2.042969 33.101562 Z M 86.898438 117.957031 "/>
<path style=" stroke:none;fill-rule:nonzero;fill:rgb(0%,0%,100%);fill-opacity:0.00392157;" d="M 85.140625 117.675781 L 118.21875 2.324219 L 1.78125 31.355469 Z M 85.140625 117.675781 "/>
<path style=" stroke:none;fill-rule:nonzero;fill:rgb(0%,0%,100%);fill-opacity:0.00392157;" d="M 83.378906 117.378906 L 118.460938 2.621094 L 1.539062 29.617188 Z M 83.378906 117.378906 "/>
<path style=" stroke:none;fill-rule:nonzero;fill:rgb(0%,0%,100%);fill-opacity:0.00392157;" d="M 81.605469 117.0625 L 118.6875 2.9375 L 1.3125 27.886719 Z M 81.605469 117.0625 "/>
<path style=" stroke:none;fill-rule:nonzero;fill:rgb(0%,0%,100%);fill-opacity:0.00392157;" d="M 79.828125 116.730469 L 118.898438 3.269531 L 1.101562 26.164062 Z M 79.828125 116.730469 "/>
<path style=" stroke:none;fill-rule:nonzero;fill:rgb(0%,0%,100%);fill-opacity:0.00392157;" d="M 78.046875 116.382812 L 119.089844 3.617188 L 0.910156 24.457031 Z M 78.046875 116.382812 "/>
<path style=" stroke:none;fill-rule:nonzero;fill:rgb(0%,0%,100%);fill-opacity:0.00392157;" d="M 76.257812 116.015625 L 119.261719 3.984375 L 0.738281 22.757812 Z M 76.257812 116.015625 "/>
<path style=" stroke:none;fill-rule:nonzero;fill:rgb(0%,0%,100%);fill-opacity:0.00392157;" d="M 74.464844 115.632812 L 119.417969 4.367188 L 0.582031 21.070312 Z M 74.464844 115.632812 "/>
<path style=" stroke:none;fill-rule:nonzero;fill:rgb(0%,0%,100%);fill-opacity:0.00392157;" d="M 72.664062 115.230469 L 119.554688 4.769531 L 0.445312 19.394531 Z M 72.664062 115.230469 "/>
<path style=" stroke:none;fill-rule:nonzero;fill:rgb(0%,0%,100%);fill-opacity:0.00392157;" d="M 70.863281 114.8125 L 119.671875 5.1875 L 0.328125 17.730469 Z M 70.863281 114.8125 "/>
<path style=" stroke:none;fill-rule:nonzero;fill:rgb(0%,0%,100%);fill-opacity:0.00392157;" d="M 69.058594 114.378906 L 119.773438 5.621094 L 0.226562 16.082031 Z M 69.058594 114.378906 "/>
<path style=" stroke:none;fill-rule:nonzero;fill:rgb(0%,0%,100%);fill-opacity:0.00392157;" d="M 67.25 113.925781 L 119.855469 6.074219 L 0.144531 14.441406 Z M 67.25 113.925781 "/>
<path style=" stroke:none;fill-rule:nonzero;fill:rgb(0%,0%,100%);fill-opacity:0.00392157;" d="M 65.4375 113.460938 L 119.917969 6.539062 L 0.0820312 12.820312 Z M 65.4375 113.460938 "/>
<path style=" stroke:none;fill-rule:nonzero;fill:rgb(0%,0%,100%);fill-opacity:0.00392157;" d="M 63.625 112.976562 L 119.964844 7.023438 L 0.0351562 11.210938 Z M 63.625 112.976562 "/>
<path style=" stroke:none;fill-rule:nonzero;fill:rgb(0%,0%,100%);fill-opacity:0.00392157;" d="M 61.8125 112.476562 L 119.992188 7.523438 L 0.0078125 9.617188 Z M 61.8125 112.476562 "/>
<path style=" stroke:none;fill-rule:nonzero;fill:rgb(0%,0%,100%);fill-opacity:0.00392157;" d="M 60 111.960938 L 120 8.039062 L 0 8.039062 Z M 60 111.960938 "/>
<path style=" stroke:none;fill-rule:nonzero;fill:rgb(0%,0%,100%);fill-opacity:0.00392157;" d="M 58.1875 112.476562 L 119.992188 9.617188 L 0.0078125 7.523438 Z M 58.1875 112.476562 "/>
<path style=" stroke:none;fill-rule:nonzero;fill:rgb(0%,0%,100%);fill-opacity:0.00392157;" d="M 56.375 112.976562 L 119.964844 11.210938 L 0.0351562 7.023438 Z M 56.375 112.976562 "/>
<path style=" stroke:none;fill-rule:nonzero;fill:rgb(0%,0%,100%);fill-opacity:0.00392157;" d="M 54.5625 113.460938 L 119.917969 12.820312 L 0.0820312 6.539062 Z M 54.5625 113.460938 "/>
<path style=" stroke:none;fill-rule:nonzero;fill:rgb(0%,0%,100%);fill-opacity:0.00392157;" d="M 52.75 113.925781 L 119.855469 14.441406 L 0.144531 6.074219 Z M 52.75 113.925781 "/>
<path style=" stroke:none;fill-rule:nonzero;fill:rgb(0%,0%,100%);fill-opacity:0.00392157;" d="M 50.941406 114.378906 L 119.773438 16.082031 L 0.226562 5.621094 Z M 50.941406 114.378906 "/>
<path style=" stroke:none;fill-rule:nonzero;fill:rgb(0%,0%,100%);fill-opacity:0.00392157;" d="M 49.136719 114.8125 L 119.671875 17.730469 L 0.328125 5.1875 Z M 49.136719 114.8125 "/>
<path style=" stroke:none;fill-rule:nonzero;fill:rgb(0%,0%,100%);fill-opacity:0.00392157;" d="M 47.335938 115.230469 L 119.554688 19.394531 L 0.445312 4.769531 Z M 47.335938 115.230469 "/>
<path style=" stroke:none;fill-rule:nonzero;fill:rgb(0%,0%,100%);fill-opacity:0.00392157;" d="M 45.535156 115.632812 L 119.417969 21.070312 L 0.582031 4.367188 Z M 45.535156 115.632812 "/>
<path style=" stroke:none;fill-rule:nonzero;fill:rgb(0%,0%,100%);fill-opacity:0.00392157;" d="M 43.742188 116.015625 L 119.261719 22.757812 L 0.738281 3.984375 Z M 43.742188 116.015625 "/>
<path style=" stroke:none;fill-rule:nonzero;fill:rgb(0%,0%,100%);fill-opacity:0.00392157;" d="M 41.953125 116.382812 L 119.089844 24.457031 L 0.910156 3.617188 Z M 41.953125 116.382812 "/>
<path style=" stroke:none;fill-rule:nonzero;fill:rgb(0%,0%,100%);fill-opacity:0.00392157;" d="M 40.171875 116.730469 L 118.898438 26.164062 L 1.101562 3.269531 Z M 40.171875 116.730469 "/>
<path style=" stroke:none;fill-rule:nonzero;fill:rgb(0%,0%,100%);fill-opacity:0.00392157;" d="M 38.394531 117.0625 L 118.6875 27.886719 L 1.3125 2.9375 Z M 38.394531 117.0625 "/>
<path style=" stroke:none;fill-rule:nonzero;fill:rgb(0%,0%,100%);fill-opacity:0.00392157;" d="M 36.621094 117.378906 L 118.460938 29.617188 L 1.539062 2.621094 Z M 36.621094 117.378906 "/>
<path style=" stroke:none;fill-rule:nonzero;fill:rgb(0%,0%,100%);fill-opacity:0.00392157;" d="M 34.859375 117.675781 L 118.21875 31.355469 L 1.78125 2.324219 Z M 34.859375 117.675781 "/>
<path style=" stroke:none;fill-rule:nonzero;fill:rgb(0%,0%,100%);fill-opacity:0.00392157;" d="M 33.101562 117.957031 L 117.957031 33.101562 L 2.042969 2.042969 Z M 33.101562 117.957031 "/>
<path style=" stroke:none;fill-rule:nonzero;fill:rgb(0%,0%,100%);fill-opacity:0.00392157;" d="M 31.355469 118.21875 L 117.675781 34.859375 L 2.324219 1.78125 Z M 31.355469 118.21875 "/>
<path style=" stroke:none;fill-rule:nonzero;fill:rgb(0%,0%,100%);fill-opacity:0.00392157;" d="M 29.617188 118.460938 L 117.378906 36.621094 L 2.621094 1.539062 Z M 29.617188 118.460938 "/>
<path style=" stroke:none;fill-rule:nonzero;fill:rgb(0%,0%,100%);fill-opacity:0.00392157;" d="M 27.886719 118.6875 L 117.0625 38.394531 L 2.9375 1.3125 Z M 27.886719 118.6875 "/>
<path style=" stroke:none;fill-rule:nonzero;fill:rgb(0%,0%,100%);fill-opacity:0.00392157;" d="M 26.164062 118.898438 L 116.730469 40.171875 L 3.269531 1.101562 Z M 26.164062 118.898438 "/>
<path style=" stroke:none;fill-rule:nonzero;fill:rgb(0%,0%,100%);fill-opacity:0.00392157;" d="M 24.457031 119.089844 L 116.382812 41.953125 L 3.617188 0.910156 Z M 24.457031 119.089844 "/>
<path style=" stroke:none;fill-rule:nonzero;fill:rgb(0%,0%,100%);fill-opacity:0.00392157;" d="M 22.757812 119.261719 L 116.015625 43.742188 L 3.984375 0.738281 Z M 22.757812 119.261719 "/>
<path style=" stroke:none;fill-rule:nonzero;fill:rgb(0%,0%,100%);fill-opacity:0.00392157;" d="M 21.070312 119.417969 L 115.632812 45.535156 L 4.367188 0.582031 Z M 21.070312 119.417969 "/>
<path style=" stroke:none;fill-rule:nonzero;fill:rgb(0%,0%,100%);fill-opacity:0.00392157;" d="M 19.394531 119.554688 L 115.230469 47.335938 L 4.769531 0.445312 Z M 19.394531 119.554688 "/>
<path style=" stroke:none;fill-rule:nonzero;fill:rgb(0%,0%,100%);fill-opacity:0.00392157;" d="M 17.730469 119.671875 L 114.8125 49.136719 L 5.1875 0.328125 Z M 17.730469 119.671875 "/>
<path style=" stroke:none;fill-rule:nonzero;fill:rgb(0%,0%,100%);fill-opacity:0.00392157;" d="M 16.082031 119.773438 L 114.378906 50.941406 L 5.621094 0.226562 Z M 16.082031 119.773438 "/>
<path style=" stroke:none;fill-rule:nonzero;fill:rgb(0%,0%,100%);fill-opacity:0.00392157;" d="M 14.441406 119.855469 L 113.925781 52.75 L 6.074219 0.144531 Z M 14.441406 119.855469 "/>
<path style=" stroke:none;fill-rule:nonzero;fill:rgb(0%,0%,100%);fill-opacity:0.00392157;" d="M 12.820312 119.917969 L 113.460938 54.5625 L 6.539062 0.0820312 Z M 12.820312 119.917969 "/>
<path style=" stroke:none;fill-rule:nonzero;fill:rgb(0%,0%,100%);fill-opacity:0.00392157;" d="M 11.210938 119.964844 L 112.976562 56.375 L 7.023438 0.0351562 Z M 11.210938 119.964844 "/>
<path style=" stroke:none;fill-rule:nonzero;fill:rgb(0%,0%,100%);fill-opacity:0.00392157;" d="M 9.617188 119.992188 L 112.476562 58.1875 L 7.523438 0.0078125 Z M 9.617188 119.992188 "/>
<path style=" stroke:none;fill-rule:nonzero;fill:rgb(0%,0%,100%);fill-opacity:0.00392157;" d="M 8.039062 120 L 111.960938 60 L 8.039062 0 Z M 8.039062 120 "/>
<path style=" stroke:none;fill-rule:nonzero;fill:rgb(0%,0%,100%);fill-opacity:0.00392157;" d="M 7.523438 119.992188 L 112.476562 61.8125 L 9.617188 0.0078125 Z M 7.523438 119.992188 "/>
<path style=" stroke:none;fill-rule:nonzero;fill:rgb(0%,0%,100%);fill-opacity:0.00392157;" d="M 7.023438 119.964844 L 112.976562 63.625 L 11.210938 0.0351562 Z M 7.023438 119.964844 "/>
<path style=" stroke:none;fill-rule:nonzero;fill:rgb(0%,0%,100%);fill-opacity:0.00392157;" d="M 6.539062 119.917969 L 113.460938 65.4375 L 12.820312 0.0820312 Z M 6.539062 119.917969 "/>
<path style=" stroke:none;fill-rule:nonzero;fill:rgb(0%,0%,100%);fill-opacity:0.00392157;" d="M 6.074219 119.855469 L 113.925781 67.25 L 14.441406 0.144531 Z M 6.074219 119.855469 "/>
<path style=" stroke:none;fill-rule:nonzero;fill:rgb(0%,0%,100%);fill-opacity:0.00392157;" d="M 5.621094 119.773438 L 114.378906 69.058594 L 16.082031 0.226562 Z M 5.621094 119.773438 "/>
<path style=" stroke:none;fill-rule:nonzero;fill:rgb(0%,0%,100%);fill-opacity:0.00392157;" d="M 5.1875 119.671875 L 114.8125 70.863281 L 17.730469 0.328125 Z M 5.1875 119.671875 "/>
<path style=" stroke:none;fill-rule:nonzero;fill:rgb(0%,0%,100%);fill-opacity:0.00392157;" d="M 4.769531 119.554688 L 115.230469 72.664062 L 19.394531 0.445312 Z M 4.769531 119.554688 "/>
<path style=" stroke:none;fill-rule:nonzero;fill:rgb(0%,0%,100%);fill-opacity:0.00392157;" d="M 4.367188 119.417969 L 115.632812 74.464844 L 21.070312 0.582031 Z M 4.367188 119.417969 "/>
<path style=" stroke:none;fill-rule:nonzero;fill:rgb(0%,0%,100%);fill-opacity:0.00392157;" d="M 3.984375 119.261719 L 116.015625 76.257812 L 22.757812 0.738281 Z M 3.984375 119.261719 "/>
<path style=" stroke:none;fill-rule:nonzero;fill:rgb(0%,0%,100%);fill-opacity:0.00392157;" d="M 3.617188 119.089844 L 116.382812 78.046875 L 24.457031 0.910156 Z M 3.617188 119.089844 "/>
<path style=" stroke:none;fill-rule:nonzero;fill:rgb(0%,0%,100%);fill-opacity:0.00392157;" d="M 3.269531 118.898438 L 116.730469 79.828125 L 26.164062 1.101562 Z M 3.269531 118.898438 "/>
<path style=" stroke:none;fill-rule:nonzero;fill:rgb(0%,0%,100%);fill-opacity:0.00392157;" d="M 2.9375 118.6875 L 117.0625 81.605469 L 27.886719 1.3125 Z M 2.9375 118.6875 "/>
<path style=" stroke:none;fill-rule:nonzero;fill:rgb(0%,0%,100%);fill-opacity:0.00392157;" d="M 2.621094 118.460938 L 117.378906 83.378906 L 29.617188 1.539062 Z M 2.621094 118.460938 "/>
<path style=" stroke:none;fill-rule:nonzero;fill:rgb(0%,0%,100%);fill-opacity:0.00392157;" d="M 2.324219 118.21875 L 117.675781 85.140625 L 31.355469 1.78125 Z M 2.324219 118.21875 "/>
<path style=" stroke:none;fill-rule:nonzero;fill:rgb(0%,0%,100%);fill-opacity:0.00392157;" d="M 2.042969 117.957031 L 117.957031 86.898438 L 33.101562 2.042969 Z M 2.042969 117.957031 "/>
<path style=" stroke:none;fill-rule:nonzero;fill:rgb(0%,0%,100%);fill-opacity:0.00392157;" d="M 1.78125 117.675781 L 118.21875 88.644531 L 34.859375 2.324219 Z M 1.78125 117.675781 "/>
<path style=" stroke:none;fill-rule:nonzero;fill:rgb(0%,0%,100%);fill-opacity:0.00392157;" d="M 1.539062 117.378906 L 118.460938 90.382812 L 36.621094 2.621094 Z M 1.539062 117.378906 "/>
<path style=" stroke:none;fill-rule:nonzero;fill:rgb(0%,0%,100%);fill-opacity:0.00392157;" d="M 1.3125 117.0625 L 118.6875 92.113281 L 38.394531 2.9375 Z M 1.3125 117.0625 "/>
<path style=" stroke:none;fill-rule:nonzero;fill:rgb(0%,0%,100%);fill-opacity:0.00392157;" d="M 1.101562 116.730469 L 118.898438 93.835938 L 40.171875 3.269531 Z M 1.101562 116.730469 "/>
<path style=" stroke:none;fill-rule:nonzero;fill:rgb(0%,0%,100%);fill-opacity:0.00392157;" d="M 0.910156 116.382812 L 119.089844 95.542969 L 41.953125 3.617188 Z M 0.910156 116.382812 "/>
<path style=" stroke:none;fill-rule:nonzero;fill:rgb(0%,0%,100%);fill-opacity:0.00392157;" d="M 0.738281 116.015625 L 119.261719 97.242188 L 43.742188 3.984375 Z M 0.738281 116.015625 "/>
<path style=" stroke:none;fill-rule:nonzero;fill:rgb(0%,0%,100%);fill-opacity:0.00392157;" d="M 0.582031 115.632812 L 119.417969 98.929688 L 45.535156 4.367188 Z M 0.582031 115.632812 "/>
<path style=" stroke:none;fill-rule:nonzero;fill:rgb(0%,0%,100%);fill-opacity:0.00392157;" d="M 0.445312 115.230469 L 119.554688 100.605469 L 47.335938 4.769531 Z M 0.445312 115.230469 "/>
<path style=" stroke:none;fill-rule:nonzero;fill:rgb(0%,0%,100%);fill-opacity:0.00392157;" d="M 0.328125 114.8125 L 119.671875 102.269531 L 49.136719 5.1875 Z M 0.328125 114.8125 "/>
<path style=" stroke:none;fill-rule:nonzero;fill:rgb(0%,0%,100%);fill-opacity:0.00392157;" d="M 0.226562 114.378906 L 119.773438 103.917969 L 50.941406 5.621094 Z M 0.226562 114.378906 "/>
<path style=" stroke:none;fill-rule:nonzero;fill:rgb(0%,0%,100%);fill-opacity:0.00392157;" d="M 0.144531 113.925781 L 119.855469 105.558594 L 52.75 6.074219 Z M 0.144531 113.925781 "/>
<path style=" stroke:none;fill-rule:nonzero;fill:rgb(0%,0%,100%);fill-opacity:0.00392157;" d="M 0.0820312 113.460938 L 119.917969 107.179688 L 54.5625 6.539062 Z M 0.0820312 113.460938 "/>
<path style=" stroke:none;fill-rule:nonzero;fill:rgb(0%,0%,100%);fill-opacity:0.00392157;" d="M 0.0351562 112.976562 L 119.964844 108.789062 L 56.375 7.023438 Z M 0.0351562 112.976562 "/>
<path style=" stroke:none;fill-rule:nonzero;fill:rgb(0%,0%,100%);fill-opacity:0.00392157;" d="M 0.0078125 112.476562 L 119.992188 110.382812 L 58.1875 7.523438 Z M 0.0078125 112.476562 "/>
<path style=" stroke:none;fill-rule:nonzero;fill:rgb(0%,0%,100%);fill-opacity:0.00392157;" d="M 0 111.960938 L 120 111.960938 L 60 8.039062 Z M 0 111.960938 "/>
<path style=" stroke:none;fill-rule:nonzero;fill:rgb(0%,0%,100%);fill-opacity:0.00392157;" d="M 0 111.960938 L 120 111.960938 L 60 8.039062 Z M 0 111.960938 "/>
</g>
</svg>
