<?xml version="1.0" encoding="UTF-8"?>
<svg xmlns="http://www.w3.org/2000/svg" xmlns:xlink="http://www.w3.org/1999/xlink" width="71pt" height="76pt" viewBox="0 0 71 76" version="1.1">
<g id="surface3980">
<path style=" stroke:none;fill-rule:nonzero;fill:rgb(0%,0%,0%);fill-opacity:1;" d="M 0 34.640625 L 70 34.640625 L 70 74.640625 L 0 74.640625 Z M 0 34.640625 "/>
<path style=" stroke:none;fill-rule:nonzero;fill:rgb(100%,0%,0%);fill-opacity:1;" d="M 40 34.640625 L 70 34.640625 L 55 8.660156 Z M 40 34.640625 "/>
<path style=" stroke:none;fill-rule:nonzero;fill:rgb(100%,0%,0%);fill-opacity:1;" d="M 0 34.640625 L 40 34.640625 L 20 0 Z M 0 34.640625 "/>
<path style=" stroke:none;fill-rule:nonzero;fill:rgb(51.764706%,23.529412%,14.117647%);fill-opacity:1;" d="M 27.5 49.640625 L 42.5 49.640625 L 42.5 74.640625 L 27.5 74.640625 Z M 27.5 49.640625 "/>
<path style=" stroke:none;fill-rule:evenodd;fill:rgb(100%,100%,0%);fill-opacity:1;" d="M 42.5 62.140625 C 42.5 63.796875 41.15625 65.140625 39.5 65.140625 C 37.84375 65.140625 36.5 63.796875 36.5 62.140625 C 36.5 60.484375 37.84375 59.140625 39.5 59.140625 C 41.15625 59.140625 42.5 60.484375 42.5 62.140625 Z M 42.5 62.140625 "/>
</g>
</svg>
