<?xml version="1.0" encoding="UTF-8"?>
<svg xmlns="http://www.w3.org/2000/svg" xmlns:xlink="http://www.w3.org/1999/xlink" width="122pt" height="122pt" viewBox="0 0 122 122" version="1.1">
<g id="surface4030">
<path style=" stroke:none;fill-rule:nonzero;fill:rgb(0%,0%,100%);fill-opacity:0.00392157;" d="M 55.347656 0.203125 L 67.34375 0.414062 L 65.25 120.394531 L 53.253906 120.183594 Z M 55.347656 0.203125 "/>
<path style=" stroke:none;fill-rule:nonzero;fill:rgb(0%,0%,100%);fill-opacity:0.00392157;" d="M 56.394531 0.125 L 68.390625 0.542969 L 64.199219 120.472656 L 52.207031 120.050781 Z M 56.394531 0.125 "/>
<path style=" stroke:none;fill-rule:nonzero;fill:rgb(0%,0%,100%);fill-opacity:0.00392157;" d="M 57.445312 0.0664062 L 69.429688 0.695312 L 63.148438 120.53125 L 51.167969 119.902344 Z M 57.445312 0.0664062 "/>
<path style=" stroke:none;fill-rule:nonzero;fill:rgb(0%,0%,100%);fill-opacity:0.00392157;" d="M 58.5 0.0273438 L 70.46875 0.863281 L 62.097656 120.570312 L 50.128906 119.734375 Z M 58.5 0.0273438 "/>
<path style=" stroke:none;fill-rule:nonzero;fill:rgb(0%,0%,100%);fill-opacity:0.00392157;" d="M 59.550781 0.00390625 L 71.503906 1.050781 L 61.046875 120.59375 L 49.09375 119.546875 Z M 59.550781 0.00390625 "/>
<path style=" stroke:none;fill-rule:nonzero;fill:rgb(0%,0%,100%);fill-opacity:0.00392157;" d="M 60.601562 0 L 72.539062 1.253906 L 59.992188 120.597656 L 48.058594 119.34375 Z M 60.601562 0 "/>
<path style=" stroke:none;fill-rule:nonzero;fill:rgb(0%,0%,100%);fill-opacity:0.00392157;" d="M 61.65625 0.015625 L 73.566406 1.476562 L 58.941406 120.582031 L 47.03125 119.121094 Z M 61.65625 0.015625 "/>
<path style=" stroke:none;fill-rule:nonzero;fill:rgb(0%,0%,100%);fill-opacity:0.00392157;" d="M 62.707031 0.046875 L 74.589844 1.71875 L 57.890625 120.550781 L 46.007812 118.878906 Z M 62.707031 0.046875 "/>
<path style=" stroke:none;fill-rule:nonzero;fill:rgb(0%,0%,100%);fill-opacity:0.00392157;" d="M 63.757812 0.0976562 L 75.609375 1.976562 L 56.839844 120.5 L 44.984375 118.621094 Z M 63.757812 0.0976562 "/>
<path style=" stroke:none;fill-rule:nonzero;fill:rgb(0%,0%,100%);fill-opacity:0.00392157;" d="M 64.808594 0.167969 L 76.625 2.25 L 55.789062 120.429688 L 43.972656 118.34375 Z M 64.808594 0.167969 "/>
<path style=" stroke:none;fill-rule:nonzero;fill:rgb(0%,0%,100%);fill-opacity:0.00392157;" d="M 65.855469 0.257812 L 77.636719 2.546875 L 54.738281 120.339844 L 42.960938 118.050781 Z M 65.855469 0.257812 "/>
<path style=" stroke:none;fill-rule:nonzero;fill:rgb(0%,0%,100%);fill-opacity:0.00392157;" d="M 66.90625 0.363281 L 78.640625 2.855469 L 53.691406 120.234375 L 41.953125 117.738281 Z M 66.90625 0.363281 "/>
<path style=" stroke:none;fill-rule:nonzero;fill:rgb(0%,0%,100%);fill-opacity:0.00392157;" d="M 67.949219 0.488281 L 79.640625 3.1875 L 52.648438 120.109375 L 40.957031 117.410156 Z M 67.949219 0.488281 "/>
<path style=" stroke:none;fill-rule:nonzero;fill:rgb(0%,0%,100%);fill-opacity:0.00392157;" d="M 68.992188 0.628906 L 80.636719 3.53125 L 51.605469 119.96875 L 39.960938 117.066406 Z M 68.992188 0.628906 "/>
<path style=" stroke:none;fill-rule:nonzero;fill:rgb(0%,0%,100%);fill-opacity:0.00392157;" d="M 70.03125 0.789062 L 81.625 3.894531 L 50.566406 119.808594 L 38.972656 116.699219 Z M 70.03125 0.789062 "/>
<path style=" stroke:none;fill-rule:nonzero;fill:rgb(0%,0%,100%);fill-opacity:0.00392157;" d="M 71.070312 0.96875 L 82.605469 4.277344 L 49.527344 119.628906 L 37.992188 116.320312 Z M 71.070312 0.96875 "/>
<path style=" stroke:none;fill-rule:nonzero;fill:rgb(0%,0%,100%);fill-opacity:0.00392157;" d="M 72.101562 1.164062 L 83.578125 4.675781 L 48.492188 119.429688 L 37.019531 115.921875 Z M 72.101562 1.164062 "/>
<path style=" stroke:none;fill-rule:nonzero;fill:rgb(0%,0%,100%);fill-opacity:0.00392157;" d="M 73.132812 1.382812 L 84.546875 5.089844 L 47.464844 119.214844 L 36.050781 115.507812 Z M 73.132812 1.382812 "/>
<path style=" stroke:none;fill-rule:nonzero;fill:rgb(0%,0%,100%);fill-opacity:0.00392157;" d="M 74.160156 1.613281 L 85.503906 5.519531 L 46.4375 118.984375 L 35.089844 115.078125 Z M 74.160156 1.613281 "/>
<path style=" stroke:none;fill-rule:nonzero;fill:rgb(0%,0%,100%);fill-opacity:0.00392157;" d="M 75.179688 1.863281 L 86.457031 5.96875 L 45.414062 118.730469 L 34.140625 114.628906 Z M 75.179688 1.863281 "/>
<path style=" stroke:none;fill-rule:nonzero;fill:rgb(0%,0%,100%);fill-opacity:0.00392157;" d="M 76.199219 2.132812 L 87.402344 6.433594 L 44.398438 118.464844 L 33.195312 114.164062 Z M 76.199219 2.132812 "/>
<path style=" stroke:none;fill-rule:nonzero;fill:rgb(0%,0%,100%);fill-opacity:0.00392157;" d="M 77.210938 2.417969 L 88.339844 6.914062 L 43.386719 118.175781 L 32.257812 113.683594 Z M 77.210938 2.417969 "/>
<path style=" stroke:none;fill-rule:nonzero;fill:rgb(0%,0%,100%);fill-opacity:0.00392157;" d="M 78.21875 2.722656 L 89.265625 7.414062 L 42.378906 117.875 L 31.332031 113.183594 Z M 78.21875 2.722656 "/>
<path style=" stroke:none;fill-rule:nonzero;fill:rgb(0%,0%,100%);fill-opacity:0.00392157;" d="M 79.222656 3.046875 L 90.183594 7.925781 L 41.375 117.550781 L 30.414062 112.671875 Z M 79.222656 3.046875 "/>
<path style=" stroke:none;fill-rule:nonzero;fill:rgb(0%,0%,100%);fill-opacity:0.00392157;" d="M 80.21875 3.382812 L 91.09375 8.457031 L 40.378906 117.210938 L 29.503906 112.140625 Z M 80.21875 3.382812 "/>
<path style=" stroke:none;fill-rule:nonzero;fill:rgb(0%,0%,100%);fill-opacity:0.00392157;" d="M 81.207031 3.742188 L 91.992188 9 L 39.390625 116.855469 L 28.601562 111.597656 Z M 81.207031 3.742188 "/>
<path style=" stroke:none;fill-rule:nonzero;fill:rgb(0%,0%,100%);fill-opacity:0.00392157;" d="M 82.191406 4.113281 L 92.882812 9.5625 L 38.40625 116.484375 L 27.714844 111.035156 Z M 82.191406 4.113281 "/>
<path style=" stroke:none;fill-rule:nonzero;fill:rgb(0%,0%,100%);fill-opacity:0.00392157;" d="M 83.167969 4.503906 L 93.765625 10.136719 L 37.429688 116.09375 L 26.832031 110.457031 Z M 83.167969 4.503906 "/>
<path style=" stroke:none;fill-rule:nonzero;fill:rgb(0%,0%,100%);fill-opacity:0.00392157;" d="M 84.140625 4.914062 L 94.636719 10.730469 L 36.457031 115.683594 L 25.960938 109.867188 Z M 84.140625 4.914062 "/>
<path style=" stroke:none;fill-rule:nonzero;fill:rgb(0%,0%,100%);fill-opacity:0.00392157;" d="M 85.101562 5.335938 L 95.496094 11.335938 L 35.496094 115.261719 L 25.101562 109.261719 Z M 85.101562 5.335938 "/>
<path style=" stroke:none;fill-rule:nonzero;fill:rgb(0%,0%,100%);fill-opacity:0.00392157;" d="M 86.058594 5.777344 L 96.34375 11.957031 L 34.539062 114.820312 L 24.253906 108.636719 Z M 86.058594 5.777344 "/>
<path style=" stroke:none;fill-rule:nonzero;fill:rgb(0%,0%,100%);fill-opacity:0.00392157;" d="M 87.003906 6.234375 L 97.183594 12.59375 L 33.589844 114.359375 L 23.414062 108 Z M 87.003906 6.234375 "/>
<path style=" stroke:none;fill-rule:nonzero;fill:rgb(0%,0%,100%);fill-opacity:0.00392157;" d="M 87.945312 6.710938 L 98.007812 13.246094 L 32.652344 113.886719 L 22.589844 107.351562 Z M 87.945312 6.710938 "/>
<path style=" stroke:none;fill-rule:nonzero;fill:rgb(0%,0%,100%);fill-opacity:0.00392157;" d="M 88.875 7.199219 L 98.824219 13.910156 L 31.722656 113.394531 L 21.773438 106.6875 Z M 88.875 7.199219 "/>
<path style=" stroke:none;fill-rule:nonzero;fill:rgb(0%,0%,100%);fill-opacity:0.00392157;" d="M 89.796875 7.707031 L 99.628906 14.589844 L 30.796875 112.890625 L 20.96875 106.007812 Z M 89.796875 7.707031 "/>
<path style=" stroke:none;fill-rule:nonzero;fill:rgb(0%,0%,100%);fill-opacity:0.00392157;" d="M 90.710938 8.230469 L 100.417969 15.285156 L 29.886719 112.367188 L 20.175781 105.3125 Z M 90.710938 8.230469 "/>
<path style=" stroke:none;fill-rule:nonzero;fill:rgb(0%,0%,100%);fill-opacity:0.00392157;" d="M 91.617188 8.769531 L 101.199219 15.992188 L 28.980469 111.828125 L 19.398438 104.605469 Z M 91.617188 8.769531 "/>
<path style=" stroke:none;fill-rule:nonzero;fill:rgb(0%,0%,100%);fill-opacity:0.00392157;" d="M 92.511719 9.324219 L 101.964844 16.710938 L 28.085938 111.273438 L 18.628906 103.886719 Z M 92.511719 9.324219 "/>
<path style=" stroke:none;fill-rule:nonzero;fill:rgb(0%,0%,100%);fill-opacity:0.00392157;" d="M 93.394531 9.894531 L 102.71875 17.445312 L 27.203125 110.703125 L 17.875 103.152344 Z M 93.394531 9.894531 "/>
<path style=" stroke:none;fill-rule:nonzero;fill:rgb(0%,0%,100%);fill-opacity:0.00392157;" d="M 94.269531 10.480469 L 103.460938 18.191406 L 26.328125 110.117188 L 17.136719 102.40625 Z M 94.269531 10.480469 "/>
<path style=" stroke:none;fill-rule:nonzero;fill:rgb(0%,0%,100%);fill-opacity:0.00392157;" d="M 95.132812 11.078125 L 104.191406 18.953125 L 25.464844 109.515625 L 16.40625 101.644531 Z M 95.132812 11.078125 "/>
<path style=" stroke:none;fill-rule:nonzero;fill:rgb(0%,0%,100%);fill-opacity:0.00392157;" d="M 95.988281 11.695312 L 104.90625 19.722656 L 24.609375 108.902344 L 15.691406 100.871094 Z M 95.988281 11.695312 "/>
<path style=" stroke:none;fill-rule:nonzero;fill:rgb(0%,0%,100%);fill-opacity:0.00392157;" d="M 96.832031 12.324219 L 105.605469 20.507812 L 23.765625 108.273438 L 14.992188 100.085938 Z M 96.832031 12.324219 "/>
<path style=" stroke:none;fill-rule:nonzero;fill:rgb(0%,0%,100%);fill-opacity:0.00392157;" d="M 97.660156 12.96875 L 106.292969 21.304688 L 22.933594 107.625 L 14.304688 99.289062 Z M 97.660156 12.96875 "/>
<path style=" stroke:none;fill-rule:nonzero;fill:rgb(0%,0%,100%);fill-opacity:0.00392157;" d="M 98.480469 13.628906 L 106.96875 22.113281 L 22.113281 106.96875 L 13.628906 98.480469 Z M 98.480469 13.628906 "/>
<path style=" stroke:none;fill-rule:nonzero;fill:rgb(0%,0%,100%);fill-opacity:0.00392157;" d="M 99.289062 14.304688 L 107.625 22.933594 L 21.304688 106.292969 L 12.96875 97.660156 Z M 99.289062 14.304688 "/>
<path style=" stroke:none;fill-rule:nonzero;fill:rgb(0%,0%,100%);fill-opacity:0.00392157;" d="M 100.085938 14.992188 L 108.273438 23.765625 L 20.507812 105.605469 L 12.324219 96.832031 Z M 100.085938 14.992188 "/>
<path style=" stroke:none;fill-rule:nonzero;fill:rgb(0%,0%,100%);fill-opacity:0.00392157;" d="M 100.871094 15.691406 L 108.902344 24.609375 L 19.722656 104.90625 L 11.695312 95.988281 Z M 100.871094 15.691406 "/>
<path style=" stroke:none;fill-rule:nonzero;fill:rgb(0%,0%,100%);fill-opacity:0.00392157;" d="M 101.644531 16.40625 L 109.515625 25.464844 L 18.953125 104.191406 L 11.078125 95.132812 Z M 101.644531 16.40625 "/>
<path style=" stroke:none;fill-rule:nonzero;fill:rgb(0%,0%,100%);fill-opacity:0.00392157;" d="M 102.40625 17.136719 L 110.117188 26.328125 L 18.191406 103.460938 L 10.480469 94.269531 Z M 102.40625 17.136719 "/>
<path style=" stroke:none;fill-rule:nonzero;fill:rgb(0%,0%,100%);fill-opacity:0.00392157;" d="M 103.152344 17.875 L 110.703125 27.203125 L 17.445312 102.71875 L 9.894531 93.394531 Z M 103.152344 17.875 "/>
<path style=" stroke:none;fill-rule:nonzero;fill:rgb(0%,0%,100%);fill-opacity:0.00392157;" d="M 103.886719 18.628906 L 111.273438 28.085938 L 16.710938 101.964844 L 9.324219 92.511719 Z M 103.886719 18.628906 "/>
<path style=" stroke:none;fill-rule:nonzero;fill:rgb(0%,0%,100%);fill-opacity:0.00392157;" d="M 104.605469 19.398438 L 111.828125 28.980469 L 15.992188 101.199219 L 8.769531 91.617188 Z M 104.605469 19.398438 "/>
<path style=" stroke:none;fill-rule:nonzero;fill:rgb(0%,0%,100%);fill-opacity:0.00392157;" d="M 105.3125 20.175781 L 112.367188 29.886719 L 15.285156 100.417969 L 8.230469 90.710938 Z M 105.3125 20.175781 "/>
<path style=" stroke:none;fill-rule:nonzero;fill:rgb(0%,0%,100%);fill-opacity:0.00392157;" d="M 106.007812 20.96875 L 112.890625 30.796875 L 14.589844 99.628906 L 7.707031 89.796875 Z M 106.007812 20.96875 "/>
<path style=" stroke:none;fill-rule:nonzero;fill:rgb(0%,0%,100%);fill-opacity:0.00392157;" d="M 106.6875 21.773438 L 113.394531 31.722656 L 13.910156 98.824219 L 7.199219 88.875 Z M 106.6875 21.773438 "/>
<path style=" stroke:none;fill-rule:nonzero;fill:rgb(0%,0%,100%);fill-opacity:0.00392157;" d="M 107.351562 22.589844 L 113.886719 32.652344 L 13.246094 98.007812 L 6.710938 87.945312 Z M 107.351562 22.589844 "/>
<path style=" stroke:none;fill-rule:nonzero;fill:rgb(0%,0%,100%);fill-opacity:0.00392157;" d="M 108 23.414062 L 114.359375 33.589844 L 12.59375 97.183594 L 6.234375 87.003906 Z M 108 23.414062 "/>
<path style=" stroke:none;fill-rule:nonzero;fill:rgb(0%,0%,100%);fill-opacity:0.00392157;" d="M 108.636719 24.253906 L 114.820312 34.539062 L 11.957031 96.34375 L 5.777344 86.058594 Z M 108.636719 24.253906 "/>
<path style=" stroke:none;fill-rule:nonzero;fill:rgb(0%,0%,100%);fill-opacity:0.00392157;" d="M 109.261719 25.101562 L 115.261719 35.496094 L 11.335938 95.496094 L 5.335938 85.101562 Z M 109.261719 25.101562 "/>
<path style=" stroke:none;fill-rule:nonzero;fill:rgb(0%,0%,100%);fill-opacity:0.00392157;" d="M 109.867188 25.960938 L 115.683594 36.457031 L 10.730469 94.636719 L 4.914062 84.140625 Z M 109.867188 25.960938 "/>
<path style=" stroke:none;fill-rule:nonzero;fill:rgb(0%,0%,100%);fill-opacity:0.00392157;" d="M 110.457031 26.832031 L 116.09375 37.429688 L 10.136719 93.765625 L 4.503906 83.167969 Z M 110.457031 26.832031 "/>
<path style=" stroke:none;fill-rule:nonzero;fill:rgb(0%,0%,100%);fill-opacity:0.00392157;" d="M 111.035156 27.714844 L 116.484375 38.40625 L 9.5625 92.882812 L 4.113281 82.191406 Z M 111.035156 27.714844 "/>
<path style=" stroke:none;fill-rule:nonzero;fill:rgb(0%,0%,100%);fill-opacity:0.00392157;" d="M 111.597656 28.601562 L 116.855469 39.390625 L 9 91.992188 L 3.742188 81.207031 Z M 111.597656 28.601562 "/>
<path style=" stroke:none;fill-rule:nonzero;fill:rgb(0%,0%,100%);fill-opacity:0.00392157;" d="M 112.140625 29.503906 L 117.210938 40.378906 L 8.457031 91.09375 L 3.382812 80.21875 Z M 112.140625 29.503906 "/>
<path style=" stroke:none;fill-rule:nonzero;fill:rgb(0%,0%,100%);fill-opacity:0.00392157;" d="M 112.671875 30.414062 L 117.550781 41.375 L 7.925781 90.183594 L 3.046875 79.222656 Z M 112.671875 30.414062 "/>
<path style=" stroke:none;fill-rule:nonzero;fill:rgb(0%,0%,100%);fill-opacity:0.00392157;" d="M 113.183594 31.332031 L 117.875 42.378906 L 7.414062 89.265625 L 2.722656 78.21875 Z M 113.183594 31.332031 "/>
<path style=" stroke:none;fill-rule:nonzero;fill:rgb(0%,0%,100%);fill-opacity:0.00392157;" d="M 113.683594 32.257812 L 118.175781 43.386719 L 6.914062 88.339844 L 2.417969 77.210938 Z M 113.683594 32.257812 "/>
<path style=" stroke:none;fill-rule:nonzero;fill:rgb(0%,0%,100%);fill-opacity:0.00392157;" d="M 114.164062 33.195312 L 118.464844 44.398438 L 6.433594 87.402344 L 2.132812 76.199219 Z M 114.164062 33.195312 "/>
<path style=" stroke:none;fill-rule:nonzero;fill:rgb(0%,0%,100%);fill-opacity:0.00392157;" d="M 114.628906 34.140625 L 118.730469 45.414062 L 5.96875 86.457031 L 1.863281 75.179688 Z M 114.628906 34.140625 "/>
<path style=" stroke:none;fill-rule:nonzero;fill:rgb(0%,0%,100%);fill-opacity:0.00392157;" d="M 115.078125 35.089844 L 118.984375 46.4375 L 5.519531 85.503906 L 1.613281 74.160156 Z M 115.078125 35.089844 "/>
<path style=" stroke:none;fill-rule:nonzero;fill:rgb(0%,0%,100%);fill-opacity:0.00392157;" d="M 115.507812 36.050781 L 119.214844 47.464844 L 5.089844 84.546875 L 1.382812 73.132812 Z M 115.507812 36.050781 "/>
<path style=" stroke:none;fill-rule:nonzero;fill:rgb(0%,0%,100%);fill-opacity:0.00392157;" d="M 115.921875 37.019531 L 119.429688 48.492188 L 4.675781 83.578125 L 1.164062 72.101562 Z M 115.921875 37.019531 "/>
<path style=" stroke:none;fill-rule:nonzero;fill:rgb(0%,0%,100%);fill-opacity:0.00392157;" d="M 116.320312 37.992188 L 119.628906 49.527344 L 4.277344 82.605469 L 0.96875 71.070312 Z M 116.320312 37.992188 "/>
<path style=" stroke:none;fill-rule:nonzero;fill:rgb(0%,0%,100%);fill-opacity:0.00392157;" d="M 116.699219 38.972656 L 119.808594 50.566406 L 3.894531 81.625 L 0.789062 70.03125 Z M 116.699219 38.972656 "/>
<path style=" stroke:none;fill-rule:nonzero;fill:rgb(0%,0%,100%);fill-opacity:0.00392157;" d="M 117.066406 39.960938 L 119.96875 51.605469 L 3.53125 80.636719 L 0.628906 68.992188 Z M 117.066406 39.960938 "/>
<path style=" stroke:none;fill-rule:nonzero;fill:rgb(0%,0%,100%);fill-opacity:0.00392157;" d="M 117.410156 40.957031 L 120.109375 52.648438 L 3.1875 79.640625 L 0.488281 67.949219 Z M 117.410156 40.957031 "/>
<path style=" stroke:none;fill-rule:nonzero;fill:rgb(0%,0%,100%);fill-opacity:0.00392157;" d="M 117.738281 41.953125 L 120.234375 53.691406 L 2.855469 78.640625 L 0.363281 66.90625 Z M 117.738281 41.953125 "/>
<path style=" stroke:none;fill-rule:nonzero;fill:rgb(0%,0%,100%);fill-opacity:0.00392157;" d="M 118.050781 42.960938 L 120.339844 54.738281 L 2.546875 77.636719 L 0.257812 65.855469 Z M 118.050781 42.960938 "/>
<path style=" stroke:none;fill-rule:nonzero;fill:rgb(0%,0%,100%);fill-opacity:0.00392157;" d="M 118.34375 43.972656 L 120.429688 55.789062 L 2.25 76.625 L 0.167969 64.808594 Z M 118.34375 43.972656 "/>
<path style=" stroke:none;fill-rule:nonzero;fill:rgb(0%,0%,100%);fill-opacity:0.00392157;" d="M 118.621094 44.984375 L 120.5 56.839844 L 1.976562 75.609375 L 0.0976562 63.757812 Z M 118.621094 44.984375 "/>
<path style=" stroke:none;fill-rule:nonzero;fill:rgb(0%,0%,100%);fill-opacity:0.00392157;" d="M 118.878906 46.007812 L 120.550781 57.890625 L 1.71875 74.589844 L 0.046875 62.707031 Z M 118.878906 46.007812 "/>
<path style=" stroke:none;fill-rule:nonzero;fill:rgb(0%,0%,100%);fill-opacity:0.00392157;" d="M 119.121094 47.03125 L 120.582031 58.941406 L 1.476562 73.566406 L 0.015625 61.65625 Z M 119.121094 47.03125 "/>
<path style=" stroke:none;fill-rule:nonzero;fill:rgb(0%,0%,100%);fill-opacity:0.00392157;" d="M 119.34375 48.058594 L 120.597656 59.992188 L 1.253906 72.539062 L 0 60.601562 Z M 119.34375 48.058594 "/>
<path style=" stroke:none;fill-rule:nonzero;fill:rgb(0%,0%,100%);fill-opacity:0.00392157;" d="M 119.546875 49.09375 L 120.59375 61.046875 L 1.050781 71.503906 L 0.00390625 59.550781 Z M 119.546875 49.09375 "/>
<path style=" stroke:none;fill-rule:nonzero;fill:rgb(0%,0%,100%);fill-opacity:0.00392157;" d="M 119.734375 50.128906 L 120.570312 62.097656 L 0.863281 70.46875 L 0.0273438 58.5 Z M 119.734375 50.128906 "/>
<path style=" stroke:none;fill-rule:nonzero;fill:rgb(0%,0%,100%);fill-opacity:0.00392157;" d="M 119.902344 51.167969 L 120.53125 63.148438 L 0.695312 69.429688 L 0.0664062 57.445312 Z M 119.902344 51.167969 "/>
<path style=" stroke:none;fill-rule:nonzero;fill:rgb(0%,0%,100%);fill-opacity:0.00392157;" d="M 120.050781 52.207031 L 120.472656 64.199219 L 0.542969 68.390625 L 0.125 56.394531 Z M 120.050781 52.207031 "/>
<path style=" stroke:none;fill-rule:nonzero;fill:rgb(0%,0%,100%);fill-opacity:0.00392157;" d="M 120.183594 53.253906 L 120.394531 65.25 L 0.414062 67.34375 L 0.203125 55.347656 Z M 120.183594 53.253906 "/>
<path style=" stroke:none;fill-rule:nonzero;fill:rgb(0%,0%,100%);fill-opacity:0.00392157;" d="M 120.296875 54.296875 L 120.296875 66.296875 L 0.296875 66.296875 L 0.296875 54.296875 Z M 120.296875 54.296875 "/>
<path style=" stroke:none;fill-rule:nonzero;fill:rgb(0%,0%,100%);fill-opacity:0.00392157;" d="M 120.394531 55.347656 L 120.183594 67.34375 L 0.203125 65.25 L 0.414062 53.253906 Z M 120.394531 55.347656 "/>
<path style=" stroke:none;fill-rule:nonzero;fill:rgb(0%,0%,100%);fill-opacity:0.00392157;" d="M 120.472656 56.394531 L 120.050781 68.390625 L 0.125 64.199219 L 0.542969 52.207031 Z M 120.472656 56.394531 "/>
<path style=" stroke:none;fill-rule:nonzero;fill:rgb(0%,0%,100%);fill-opacity:0.00392157;" d="M 120.53125 57.445312 L 119.902344 69.429688 L 0.0664062 63.148438 L 0.695312 51.167969 Z M 120.53125 57.445312 "/>
<path style=" stroke:none;fill-rule:nonzero;fill:rgb(0%,0%,100%);fill-opacity:0.00392157;" d="M 120.570312 58.5 L 119.734375 70.46875 L 0.0273438 62.097656 L 0.863281 50.128906 Z M 120.570312 58.5 "/>
<path style=" stroke:none;fill-rule:nonzero;fill:rgb(0%,0%,100%);fill-opacity:0.00392157;" d="M 120.59375 59.550781 L 119.546875 71.503906 L 0.00390625 61.046875 L 1.050781 49.09375 Z M 120.59375 59.550781 "/>
<path style=" stroke:none;fill-rule:nonzero;fill:rgb(0%,0%,100%);fill-opacity:0.00392157;" d="M 120.597656 60.601562 L 119.34375 72.539062 L 0 59.992188 L 1.253906 48.058594 Z M 120.597656 60.601562 "/>
<path style=" stroke:none;fill-rule:nonzero;fill:rgb(0%,0%,100%);fill-opacity:0.00392157;" d="M 120.582031 61.65625 L 119.121094 73.566406 L 0.015625 58.941406 L 1.476562 47.03125 Z M 120.582031 61.65625 "/>
<path style=" stroke:none;fill-rule:nonzero;fill:rgb(0%,0%,100%);fill-opacity:0.00392157;" d="M 120.550781 62.707031 L 118.878906 74.589844 L 0.046875 57.890625 L 1.71875 46.007812 Z M 120.550781 62.707031 "/>
<path style=" stroke:none;fill-rule:nonzero;fill:rgb(0%,0%,100%);fill-opacity:0.00392157;" d="M 120.5 63.757812 L 118.621094 75.609375 L 0.0976562 56.839844 L 1.976562 44.984375 Z M 120.5 63.757812 "/>
<path style=" stroke:none;fill-rule:nonzero;fill:rgb(0%,0%,100%);fill-opacity:0.00392157;" d="M 120.429688 64.808594 L 118.34375 76.625 L 0.167969 55.789062 L 2.25 43.972656 Z M 120.429688 64.808594 "/>
<path style=" stroke:none;fill-rule:nonzero;fill:rgb(0%,0%,100%);fill-opacity:0.00392157;" d="M 120.339844 65.855469 L 118.050781 77.636719 L 0.257812 54.738281 L 2.546875 42.960938 Z M 120.339844 65.855469 "/>
<path style=" stroke:none;fill-rule:nonzero;fill:rgb(0%,0%,100%);fill-opacity:0.00392157;" d="M 120.234375 66.90625 L 117.738281 78.640625 L 0.363281 53.691406 L 2.855469 41.953125 Z M 120.234375 66.90625 "/>
<path style=" stroke:none;fill-rule:nonzero;fill:rgb(0%,0%,100%);fill-opacity:0.00392157;" d="M 120.109375 67.949219 L 117.410156 79.640625 L 0.488281 52.648438 L 3.1875 40.957031 Z M 120.109375 67.949219 "/>
<path style=" stroke:none;fill-rule:nonzero;fill:rgb(0%,0%,100%);fill-opacity:0.00392157;" d="M 119.96875 68.992188 L 117.066406 80.636719 L 0.628906 51.605469 L 3.53125 39.960938 Z M 119.96875 68.992188 "/>
<path style=" stroke:none;fill-rule:nonzero;fill:rgb(0%,0%,100%);fill-opacity:0.00392157;" d="M 119.808594 70.03125 L 116.699219 81.625 L 0.789062 50.566406 L 3.894531 38.972656 Z M 119.808594 70.03125 "/>
<path style=" stroke:none;fill-rule:nonzero;fill:rgb(0%,0%,100%);fill-opacity:0.00392157;" d="M 119.628906 71.070312 L 116.320312 82.605469 L 0.96875 49.527344 L 4.277344 37.992188 Z M 119.628906 71.070312 "/>
<path style=" stroke:none;fill-rule:nonzero;fill:rgb(0%,0%,100%);fill-opacity:0.00392157;" d="M 119.429688 72.101562 L 115.921875 83.578125 L 1.164062 48.492188 L 4.675781 37.019531 Z M 119.429688 72.101562 "/>
<path style=" stroke:none;fill-rule:nonzero;fill:rgb(0%,0%,100%);fill-opacity:0.00392157;" d="M 119.214844 73.132812 L 115.507812 84.546875 L 1.382812 47.464844 L 5.089844 36.050781 Z M 119.214844 73.132812 "/>
<path style=" stroke:none;fill-rule:nonzero;fill:rgb(0%,0%,100%);fill-opacity:0.00392157;" d="M 118.984375 74.160156 L 115.078125 85.503906 L 1.613281 46.4375 L 5.519531 35.089844 Z M 118.984375 74.160156 "/>
<path style=" stroke:none;fill-rule:nonzero;fill:rgb(0%,0%,100%);fill-opacity:0.00392157;" d="M 118.730469 75.179688 L 114.628906 86.457031 L 1.863281 45.414062 L 5.96875 34.140625 Z M 118.730469 75.179688 "/>
<path style=" stroke:none;fill-rule:nonzero;fill:rgb(0%,0%,100%);fill-opacity:0.00392157;" d="M 118.464844 76.199219 L 114.164062 87.402344 L 2.132812 44.398438 L 6.433594 33.195312 Z M 118.464844 76.199219 "/>
<path style=" stroke:none;fill-rule:nonzero;fill:rgb(0%,0%,100%);fill-opacity:0.00392157;" d="M 118.175781 77.210938 L 113.683594 88.339844 L 2.417969 43.386719 L 6.914062 32.257812 Z M 118.175781 77.210938 "/>
<path style=" stroke:none;fill-rule:nonzero;fill:rgb(0%,0%,100%);fill-opacity:0.00392157;" d="M 117.875 78.21875 L 113.183594 89.265625 L 2.722656 42.378906 L 7.414062 31.332031 Z M 117.875 78.21875 "/>
<path style=" stroke:none;fill-rule:nonzero;fill:rgb(0%,0%,100%);fill-opacity:0.00392157;" d="M 117.550781 79.222656 L 112.671875 90.183594 L 3.046875 41.375 L 7.925781 30.414062 Z M 117.550781 79.222656 "/>
<path style=" stroke:none;fill-rule:nonzero;fill:rgb(0%,0%,100%);fill-opacity:0.00392157;" d="M 117.210938 80.21875 L 112.140625 91.09375 L 3.382812 40.378906 L 8.457031 29.503906 Z M 117.210938 80.21875 "/>
<path style=" stroke:none;fill-rule:nonzero;fill:rgb(0%,0%,100%);fill-opacity:0.00392157;" d="M 116.855469 81.207031 L 111.597656 91.992188 L 3.742188 39.390625 L 9 28.601562 Z M 116.855469 81.207031 "/>
<path style=" stroke:none;fill-rule:nonzero;fill:rgb(0%,0%,100%);fill-opacity:0.00392157;" d="M 116.484375 82.191406 L 111.035156 92.882812 L 4.113281 38.40625 L 9.5625 27.714844 Z M 116.484375 82.191406 "/>
<path style=" stroke:none;fill-rule:nonzero;fill:rgb(0%,0%,100%);fill-opacity:0.00392157;" d="M 116.09375 83.167969 L 110.457031 93.765625 L 4.503906 37.429688 L 10.136719 26.832031 Z M 116.09375 83.167969 "/>
<path style=" stroke:none;fill-rule:nonzero;fill:rgb(0%,0%,100%);fill-opacity:0.00392157;" d="M 115.683594 84.140625 L 109.867188 94.636719 L 4.914062 36.457031 L 10.730469 25.960938 Z M 115.683594 84.140625 "/>
<path style=" stroke:none;fill-rule:nonzero;fill:rgb(0%,0%,100%);fill-opacity:0.00392157;" d="M 115.261719 85.101562 L 109.261719 95.496094 L 5.335938 35.496094 L 11.335938 25.101562 Z M 115.261719 85.101562 "/>
<path style=" stroke:none;fill-rule:nonzero;fill:rgb(0%,0%,100%);fill-opacity:0.00392157;" d="M 114.820312 86.058594 L 108.636719 96.34375 L 5.777344 34.539062 L 11.957031 24.253906 Z M 114.820312 86.058594 "/>
<path style=" stroke:none;fill-rule:nonzero;fill:rgb(0%,0%,100%);fill-opacity:0.00392157;" d="M 114.359375 87.003906 L 108 97.183594 L 6.234375 33.589844 L 12.59375 23.414062 Z M 114.359375 87.003906 "/>
<path style=" stroke:none;fill-rule:nonzero;fill:rgb(0%,0%,100%);fill-opacity:0.00392157;" d="M 113.886719 87.945312 L 107.351562 98.007812 L 6.710938 32.652344 L 13.246094 22.589844 Z M 113.886719 87.945312 "/>
<path style=" stroke:none;fill-rule:nonzero;fill:rgb(0%,0%,100%);fill-opacity:0.00392157;" d="M 113.394531 88.875 L 106.6875 98.824219 L 7.199219 31.722656 L 13.910156 21.773438 Z M 113.394531 88.875 "/>
<path style=" stroke:none;fill-rule:nonzero;fill:rgb(0%,0%,100%);fill-opacity:0.00392157;" d="M 112.890625 89.796875 L 106.007812 99.628906 L 7.707031 30.796875 L 14.589844 20.96875 Z M 112.890625 89.796875 "/>
<path style=" stroke:none;fill-rule:nonzero;fill:rgb(0%,0%,100%);fill-opacity:0.00392157;" d="M 112.367188 90.710938 L 105.3125 100.417969 L 8.230469 29.886719 L 15.285156 20.175781 Z M 112.367188 90.710938 "/>
<path style=" stroke:none;fill-rule:nonzero;fill:rgb(0%,0%,100%);fill-opacity:0.00392157;" d="M 111.828125 91.617188 L 104.605469 101.199219 L 8.769531 28.980469 L 15.992188 19.398438 Z M 111.828125 91.617188 "/>
<path style=" stroke:none;fill-rule:nonzero;fill:rgb(0%,0%,100%);fill-opacity:0.00392157;" d="M 111.273438 92.511719 L 103.886719 101.964844 L 9.324219 28.085938 L 16.710938 18.628906 Z M 111.273438 92.511719 "/>
<path style=" stroke:none;fill-rule:nonzero;fill:rgb(0%,0%,100%);fill-opacity:0.00392157;" d="M 110.703125 93.394531 L 103.152344 102.71875 L 9.894531 27.203125 L 17.445312 17.875 Z M 110.703125 93.394531 "/>
<path style=" stroke:none;fill-rule:nonzero;fill:rgb(0%,0%,100%);fill-opacity:0.00392157;" d="M 110.117188 94.269531 L 102.40625 103.460938 L 10.480469 26.328125 L 18.191406 17.136719 Z M 110.117188 94.269531 "/>
<path style=" stroke:none;fill-rule:nonzero;fill:rgb(0%,0%,100%);fill-opacity:0.00392157;" d="M 109.515625 95.132812 L 101.644531 104.191406 L 11.078125 25.464844 L 18.953125 16.40625 Z M 109.515625 95.132812 "/>
<path style=" stroke:none;fill-rule:nonzero;fill:rgb(0%,0%,100%);fill-opacity:0.00392157;" d="M 108.902344 95.988281 L 100.871094 104.90625 L 11.695312 24.609375 L 19.722656 15.691406 Z M 108.902344 95.988281 "/>
<path style=" stroke:none;fill-rule:nonzero;fill:rgb(0%,0%,100%);fill-opacity:0.00392157;" d="M 108.273438 96.832031 L 100.085938 105.605469 L 12.324219 23.765625 L 20.507812 14.992188 Z M 108.273438 96.832031 "/>
<path style=" stroke:none;fill-rule:nonzero;fill:rgb(0%,0%,100%);fill-opacity:0.00392157;" d="M 107.625 97.660156 L 99.289062 106.292969 L 12.96875 22.933594 L 21.304688 14.304688 Z M 107.625 97.660156 "/>
<path style=" stroke:none;fill-rule:nonzero;fill:rgb(0%,0%,100%);fill-opacity:0.00392157;" d="M 106.96875 98.480469 L 98.480469 106.96875 L 13.628906 22.113281 L 22.113281 13.628906 Z M 106.96875 98.480469 "/>
<path style=" stroke:none;fill-rule:nonzero;fill:rgb(0%,0%,100%);fill-opacity:0.00392157;" d="M 106.292969 99.289062 L 97.660156 107.625 L 14.304688 21.304688 L 22.933594 12.96875 Z M 106.292969 99.289062 "/>
<path style=" stroke:none;fill-rule:nonzero;fill:rgb(0%,0%,100%);fill-opacity:0.00392157;" d="M 105.605469 100.085938 L 96.832031 108.273438 L 14.992188 20.507812 L 23.765625 12.324219 Z M 105.605469 100.085938 "/>
<path style=" stroke:none;fill-rule:nonzero;fill:rgb(0%,0%,100%);fill-opacity:0.00392157;" d="M 104.90625 100.871094 L 95.988281 108.902344 L 15.691406 19.722656 L 24.609375 11.695312 Z M 104.90625 100.871094 "/>
<path style=" stroke:none;fill-rule:nonzero;fill:rgb(0%,0%,100%);fill-opacity:0.00392157;" d="M 104.191406 101.644531 L 95.132812 109.515625 L 16.40625 18.953125 L 25.464844 11.078125 Z M 104.191406 101.644531 "/>
<path style=" stroke:none;fill-rule:nonzero;fill:rgb(0%,0%,100%);fill-opacity:0.00392157;" d="M 103.460938 102.40625 L 94.269531 110.117188 L 17.136719 18.191406 L 26.328125 10.480469 Z M 103.460938 102.40625 "/>
<path style=" stroke:none;fill-rule:nonzero;fill:rgb(0%,0%,100%);fill-opacity:0.00392157;" d="M 102.71875 103.152344 L 93.394531 110.703125 L 17.875 17.445312 L 27.203125 9.894531 Z M 102.71875 103.152344 "/>
<path style=" stroke:none;fill-rule:nonzero;fill:rgb(0%,0%,100%);fill-opacity:0.00392157;" d="M 101.964844 103.886719 L 92.511719 111.273438 L 18.628906 16.710938 L 28.085938 9.324219 Z M 101.964844 103.886719 "/>
<path style=" stroke:none;fill-rule:nonzero;fill:rgb(0%,0%,100%);fill-opacity:0.00392157;" d="M 101.199219 104.605469 L 91.617188 111.828125 L 19.398438 15.992188 L 28.980469 8.769531 Z M 101.199219 104.605469 "/>
<path style=" stroke:none;fill-rule:nonzero;fill:rgb(0%,0%,100%);fill-opacity:0.00392157;" d="M 100.417969 105.3125 L 90.710938 112.367188 L 20.175781 15.285156 L 29.886719 8.230469 Z M 100.417969 105.3125 "/>
<path style=" stroke:none;fill-rule:nonzero;fill:rgb(0%,0%,100%);fill-opacity:0.00392157;" d="M 99.628906 106.007812 L 89.796875 112.890625 L 20.96875 14.589844 L 30.796875 7.707031 Z M 99.628906 106.007812 "/>
<path style=" stroke:none;fill-rule:nonzero;fill:rgb(0%,0%,100%);fill-opacity:0.00392157;" d="M 98.824219 106.6875 L 88.875 113.394531 L 21.773438 13.910156 L 31.722656 7.199219 Z M 98.824219 106.6875 "/>
<path style=" stroke:none;fill-rule:nonzero;fill:rgb(0%,0%,100%);fill-opacity:0.00392157;" d="M 98.007812 107.351562 L 87.945312 113.886719 L 22.589844 13.246094 L 32.652344 6.710938 Z M 98.007812 107.351562 "/>
<path style=" stroke:none;fill-rule:nonzero;fill:rgb(0%,0%,100%);fill-opacity:0.00392157;" d="M 97.183594 108 L 87.003906 114.359375 L 23.414062 12.59375 L 33.589844 6.234375 Z M 97.183594 108 "/>
<path style=" stroke:none;fill-rule:nonzero;fill:rgb(0%,0%,100%);fill-opacity:0.00392157;" d="M 96.34375 108.636719 L 86.058594 114.820312 L 24.253906 11.957031 L 34.539062 5.777344 Z M 96.34375 108.636719 "/>
<path style=" stroke:none;fill-rule:nonzero;fill:rgb(0%,0%,100%);fill-opacity:0.00392157;" d="M 95.496094 109.261719 L 85.101562 115.261719 L 25.101562 11.335938 L 35.496094 5.335938 Z M 95.496094 109.261719 "/>
<path style=" stroke:none;fill-rule:nonzero;fill:rgb(0%,0%,100%);fill-opacity:0.00392157;" d="M 94.636719 109.867188 L 84.140625 115.683594 L 25.960938 10.730469 L 36.457031 4.914062 Z M 94.636719 109.867188 "/>
<path style=" stroke:none;fill-rule:nonzero;fill:rgb(0%,0%,100%);fill-opacity:0.00392157;" d="M 93.765625 110.457031 L 83.167969 116.09375 L 26.832031 10.136719 L 37.429688 4.503906 Z M 93.765625 110.457031 "/>
<path style=" stroke:none;fill-rule:nonzero;fill:rgb(0%,0%,100%);fill-opacity:0.00392157;" d="M 92.882812 111.035156 L 82.191406 116.484375 L 27.714844 9.5625 L 38.40625 4.113281 Z M 92.882812 111.035156 "/>
<path style=" stroke:none;fill-rule:nonzero;fill:rgb(0%,0%,100%);fill-opacity:0.00392157;" d="M 91.992188 111.597656 L 81.207031 116.855469 L 28.601562 9 L 39.390625 3.742188 Z M 91.992188 111.597656 "/>
<path style=" stroke:none;fill-rule:nonzero;fill:rgb(0%,0%,100%);fill-opacity:0.00392157;" d="M 91.09375 112.140625 L 80.21875 117.210938 L 29.503906 8.457031 L 40.378906 3.382812 Z M 91.09375 112.140625 "/>
<path style=" stroke:none;fill-rule:nonzero;fill:rgb(0%,0%,100%);fill-opacity:0.00392157;" d="M 90.183594 112.671875 L 79.222656 117.550781 L 30.414062 7.925781 L 41.375 3.046875 Z M 90.183594 112.671875 "/>
<path style=" stroke:none;fill-rule:nonzero;fill:rgb(0%,0%,100%);fill-opacity:0.00392157;" d="M 89.265625 113.183594 L 78.21875 117.875 L 31.332031 7.414062 L 42.378906 2.722656 Z M 89.265625 113.183594 "/>
<path style=" stroke:none;fill-rule:nonzero;fill:rgb(0%,0%,100%);fill-opacity:0.00392157;" d="M 88.339844 113.683594 L 77.210938 118.175781 L 32.257812 6.914062 L 43.386719 2.417969 Z M 88.339844 113.683594 "/>
<path style=" stroke:none;fill-rule:nonzero;fill:rgb(0%,0%,100%);fill-opacity:0.00392157;" d="M 87.402344 114.164062 L 76.199219 118.464844 L 33.195312 6.433594 L 44.398438 2.132812 Z M 87.402344 114.164062 "/>
<path style=" stroke:none;fill-rule:nonzero;fill:rgb(0%,0%,100%);fill-opacity:0.00392157;" d="M 86.457031 114.628906 L 75.179688 118.730469 L 34.140625 5.96875 L 45.414062 1.863281 Z M 86.457031 114.628906 "/>
<path style=" stroke:none;fill-rule:nonzero;fill:rgb(0%,0%,100%);fill-opacity:0.00392157;" d="M 85.503906 115.078125 L 74.160156 118.984375 L 35.089844 5.519531 L 46.4375 1.613281 Z M 85.503906 115.078125 "/>
<path style=" stroke:none;fill-rule:nonzero;fill:rgb(0%,0%,100%);fill-opacity:0.00392157;" d="M 84.546875 115.507812 L 73.132812 119.214844 L 36.050781 5.089844 L 47.464844 1.382812 Z M 84.546875 115.507812 "/>
<path style=" stroke:none;fill-rule:nonzero;fill:rgb(0%,0%,100%);fill-opacity:0.00392157;" d="M 83.578125 115.921875 L 72.101562 119.429688 L 37.019531 4.675781 L 48.492188 1.164062 Z M 83.578125 115.921875 "/>
<path style=" stroke:none;fill-rule:nonzero;fill:rgb(0%,0%,100%);fill-opacity:0.00392157;" d="M 82.605469 116.320312 L 71.070312 119.628906 L 37.992188 4.277344 L 49.527344 0.96875 Z M 82.605469 116.320312 "/>
<path style=" stroke:none;fill-rule:nonzero;fill:rgb(0%,0%,100%);fill-opacity:0.00392157;" d="M 81.625 116.699219 L 70.03125 119.808594 L 38.972656 3.894531 L 50.566406 0.789062 Z M 81.625 116.699219 "/>
<path style=" stroke:none;fill-rule:nonzero;fill:rgb(0%,0%,100%);fill-opacity:0.00392157;" d="M 80.636719 117.066406 L 68.992188 119.96875 L 39.960938 3.53125 L 51.605469 0.628906 Z M 80.636719 117.066406 "/>
<path style=" stroke:none;fill-rule:nonzero;fill:rgb(0%,0%,100%);fill-opacity:0.00392157;" d="M 79.640625 117.410156 L 67.949219 120.109375 L 40.957031 3.1875 L 52.648438 0.488281 Z M 79.640625 117.410156 "/>
<path style=" stroke:none;fill-rule:nonzero;fill:rgb(0%,0%,100%);fill-opacity:0.00392157;" d="M 78.640625 117.738281 L 66.90625 120.234375 L 41.953125 2.855469 L 53.691406 0.363281 Z M 78.640625 117.738281 "/>
<path style=" stroke:none;fill-rule:nonzero;fill:rgb(0%,0%,100%);fill-opacity:0.00392157;" d="M 77.636719 118.050781 L 65.855469 120.339844 L 42.960938 2.546875 L 54.738281 0.257812 Z M 77.636719 118.050781 "/>
<path style=" stroke:none;fill-rule:nonzero;fill:rgb(0%,0%,100%);fill-opacity:0.00392157;" d="M 76.625 118.34375 L 64.808594 120.429688 L 43.972656 2.25 L 55.789062 0.167969 Z M 76.625 118.34375 "/>
<path style=" stroke:none;fill-rule:nonzero;fill:rgb(0%,0%,100%);fill-opacity:0.00392157;" d="M 75.609375 118.621094 L 63.757812 120.5 L 44.984375 1.976562 L 56.839844 0.0976562 Z M 75.609375 118.621094 "/>
<path style=" stroke:none;fill-rule:nonzero;fill:rgb(0%,0%,100%);fill-opacity:0.00392157;" d="M 74.589844 118.878906 L 62.707031 120.550781 L 46.007812 1.71875 L 57.890625 0.046875 Z M 74.589844 118.878906 "/>
<path style=" stroke:none;fill-rule:nonzero;fill:rgb(0%,0%,100%);fill-opacity:0.00392157;" d="M 73.566406 119.121094 L 61.65625 120.582031 L 47.03125 1.476562 L 58.941406 0.015625 Z M 73.566406 119.121094 "/>
<path style=" stroke:none;fill-rule:nonzero;fill:rgb(0%,0%,100%);fill-opacity:0.00392157;" d="M 72.539062 119.34375 L 60.601562 120.597656 L 48.058594 1.253906 L 59.992188 0 Z M 72.539062 119.34375 "/>
<path style=" stroke:none;fill-rule:nonzero;fill:rgb(0%,0%,100%);fill-opacity:0.00392157;" d="M 71.503906 119.546875 L 59.550781 120.59375 L 49.09375 1.050781 L 61.046875 0.00390625 Z M 71.503906 119.546875 "/>
<path style=" stroke:none;fill-rule:nonzero;fill:rgb(0%,0%,100%);fill-opacity:0.00392157;" d="M 70.46875 119.734375 L 58.5 120.570312 L 50.128906 0.863281 L 62.097656 0.0273438 Z M 70.46875 119.734375 "/>
<path style=" stroke:none;fill-rule:nonzero;fill:rgb(0%,0%,100%);fill-opacity:0.00392157;" d="M 69.429688 119.902344 L 57.445312 120.53125 L 51.167969 0.695312 L 63.148438 0.0664062 Z M 69.429688 119.902344 "/>
<path style=" stroke:none;fill-rule:nonzero;fill:rgb(0%,0%,100%);fill-opacity:0.00392157;" d="M 68.390625 120.050781 L 56.394531 120.472656 L 52.207031 0.542969 L 64.199219 0.125 Z M 68.390625 120.050781 "/>
<path style=" stroke:none;fill-rule:nonzero;fill:rgb(0%,0%,100%);fill-opacity:0.00392157;" d="M 67.34375 120.183594 L 55.347656 120.394531 L 53.253906 0.414062 L 65.25 0.203125 Z M 67.34375 120.183594 "/>
<path style=" stroke:none;fill-rule:nonzero;fill:rgb(0%,0%,100%);fill-opacity:0.00392157;" d="M 66.296875 120.296875 L 54.296875 120.296875 L 54.296875 0.296875 L 66.296875 0.296875 Z M 66.296875 120.296875 "/>
<path style=" stroke:none;fill-rule:nonzero;fill:rgb(0%,0%,100%);fill-opacity:0.00392157;" d="M 65.25 120.394531 L 53.253906 120.183594 L 55.347656 0.203125 L 67.34375 0.414062 Z M 65.25 120.394531 "/>
<path style=" stroke:none;fill-rule:nonzero;fill:rgb(0%,0%,100%);fill-opacity:0.00392157;" d="M 64.199219 120.472656 L 52.207031 120.050781 L 56.394531 0.125 L 68.390625 0.542969 Z M 64.199219 120.472656 "/>
<path style=" stroke:none;fill-rule:nonzero;fill:rgb(0%,0%,100%);fill-opacity:0.00392157;" d="M 63.148438 120.53125 L 51.167969 119.902344 L 57.445312 0.0664062 L 69.429688 0.695312 Z M 63.148438 120.53125 "/>
<path style=" stroke:none;fill-rule:nonzero;fill:rgb(0%,0%,100%);fill-opacity:0.00392157;" d="M 62.097656 120.570312 L 50.128906 119.734375 L 58.5 0.0273438 L 70.46875 0.863281 Z M 62.097656 120.570312 "/>
<path style=" stroke:none;fill-rule:nonzero;fill:rgb(0%,0%,100%);fill-opacity:0.00392157;" d="M 61.046875 120.59375 L 49.09375 119.546875 L 59.550781 0.00390625 L 71.503906 1.050781 Z M 61.046875 120.59375 "/>
<path style=" stroke:none;fill-rule:nonzero;fill:rgb(0%,0%,100%);fill-opacity:0.00392157;" d="M 59.992188 120.597656 L 48.058594 119.34375 L 60.601562 0 L 72.539062 1.253906 Z M 59.992188 120.597656 "/>
<path style=" stroke:none;fill-rule:nonzero;fill:rgb(0%,0%,100%);fill-opacity:0.00392157;" d="M 58.941406 120.582031 L 47.03125 119.121094 L 61.65625 0.015625 L 73.566406 1.476562 Z M 58.941406 120.582031 "/>
<path style=" stroke:none;fill-rule:nonzero;fill:rgb(0%,0%,100%);fill-opacity:0.00392157;" d="M 57.890625 120.550781 L 46.007812 118.878906 L 62.707031 0.046875 L 74.589844 1.71875 Z M 57.890625 120.550781 "/>
<path style=" stroke:none;fill-rule:nonzero;fill:rgb(0%,0%,100%);fill-opacity:0.00392157;" d="M 56.839844 120.5 L 44.984375 118.621094 L 63.757812 0.0976562 L 75.609375 1.976562 Z M 56.839844 120.5 "/>
<path style=" stroke:none;fill-rule:nonzero;fill:rgb(0%,0%,100%);fill-opacity:0.00392157;" d="M 55.789062 120.429688 L 43.972656 118.34375 L 64.808594 0.167969 L 76.625 2.25 Z M 55.789062 120.429688 "/>
<path style=" stroke:none;fill-rule:nonzero;fill:rgb(0%,0%,100%);fill-opacity:0.00392157;" d="M 54.738281 120.339844 L 42.960938 118.050781 L 65.855469 0.257812 L 77.636719 2.546875 Z M 54.738281 120.339844 "/>
<path style=" stroke:none;fill-rule:nonzero;fill:rgb(0%,0%,100%);fill-opacity:0.00392157;" d="M 53.691406 120.234375 L 41.953125 117.738281 L 66.90625 0.363281 L 78.640625 2.855469 Z M 53.691406 120.234375 "/>
<path style=" stroke:none;fill-rule:nonzero;fill:rgb(0%,0%,100%);fill-opacity:0.00392157;" d="M 52.648438 120.109375 L 40.957031 117.410156 L 67.949219 0.488281 L 79.640625 3.1875 Z M 52.648438 120.109375 "/>
<path style=" stroke:none;fill-rule:nonzero;fill:rgb(0%,0%,100%);fill-opacity:0.00392157;" d="M 51.605469 119.96875 L 39.960938 117.066406 L 68.992188 0.628906 L 80.636719 3.53125 Z M 51.605469 119.96875 "/>
<path style=" stroke:none;fill-rule:nonzero;fill:rgb(0%,0%,100%);fill-opacity:0.00392157;" d="M 50.566406 119.808594 L 38.972656 116.699219 L 70.03125 0.789062 L 81.625 3.894531 Z M 50.566406 119.808594 "/>
<path style=" stroke:none;fill-rule:nonzero;fill:rgb(0%,0%,100%);fill-opacity:0.00392157;" d="M 49.527344 119.628906 L 37.992188 116.320312 L 71.070312 0.96875 L 82.605469 4.277344 Z M 49.527344 119.628906 "/>
<path style=" stroke:none;fill-rule:nonzero;fill:rgb(0%,0%,100%);fill-opacity:0.00392157;" d="M 48.492188 119.429688 L 37.019531 115.921875 L 72.101562 1.164062 L 83.578125 4.675781 Z M 48.492188 119.429688 "/>
<path style=" stroke:none;fill-rule:nonzero;fill:rgb(0%,0%,100%);fill-opacity:0.00392157;" d="M 47.464844 119.214844 L 36.050781 115.507812 L 73.132812 1.382812 L 84.546875 5.089844 Z M 47.464844 119.214844 "/>
<path style=" stroke:none;fill-rule:nonzero;fill:rgb(0%,0%,100%);fill-opacity:0.00392157;" d="M 46.4375 118.984375 L 35.089844 115.078125 L 74.160156 1.613281 L 85.503906 5.519531 Z M 46.4375 118.984375 "/>
<path style=" stroke:none;fill-rule:nonzero;fill:rgb(0%,0%,100%);fill-opacity:0.00392157;" d="M 45.414062 118.730469 L 34.140625 114.628906 L 75.179688 1.863281 L 86.457031 5.96875 Z M 45.414062 118.730469 "/>
<path style=" stroke:none;fill-rule:nonzero;fill:rgb(0%,0%,100%);fill-opacity:0.00392157;" d="M 44.398438 118.464844 L 33.195312 114.164062 L 76.199219 2.132812 L 87.402344 6.433594 Z M 44.398438 118.464844 "/>
<path style=" stroke:none;fill-rule:nonzero;fill:rgb(0%,0%,100%);fill-opacity:0.00392157;" d="M 43.386719 118.175781 L 32.257812 113.683594 L 77.210938 2.417969 L 88.339844 6.914062 Z M 43.386719 118.175781 "/>
<path style=" stroke:none;fill-rule:nonzero;fill:rgb(0%,0%,100%);fill-opacity:0.00392157;" d="M 42.378906 117.875 L 31.332031 113.183594 L 78.21875 2.722656 L 89.265625 7.414062 Z M 42.378906 117.875 "/>
<path style=" stroke:none;fill-rule:nonzero;fill:rgb(0%,0%,100%);fill-opacity:0.00392157;" d="M 41.375 117.550781 L 30.414062 112.671875 L 79.222656 3.046875 L 90.183594 7.925781 Z M 41.375 117.550781 "/>
<path style=" stroke:none;fill-rule:nonzero;fill:rgb(0%,0%,100%);fill-opacity:0.00392157;" d="M 40.378906 117.210938 L 29.503906 112.140625 L 80.21875 3.382812 L 91.09375 8.457031 Z M 40.378906 117.210938 "/>
<path style=" stroke:none;fill-rule:nonzero;fill:rgb(0%,0%,100%);fill-opacity:0.00392157;" d="M 39.390625 116.855469 L 28.601562 111.597656 L 81.207031 3.742188 L 91.992188 9 Z M 39.390625 116.855469 "/>
<path style=" stroke:none;fill-rule:nonzero;fill:rgb(0%,0%,100%);fill-opacity:0.00392157;" d="M 38.40625 116.484375 L 27.714844 111.035156 L 82.191406 4.113281 L 92.882812 9.5625 Z M 38.40625 116.484375 "/>
<path style=" stroke:none;fill-rule:nonzero;fill:rgb(0%,0%,100%);fill-opacity:0.00392157;" d="M 37.429688 116.09375 L 26.832031 110.457031 L 83.167969 4.503906 L 93.765625 10.136719 Z M 37.429688 116.09375 "/>
<path style=" stroke:none;fill-rule:nonzero;fill:rgb(0%,0%,100%);fill-opacity:0.00392157;" d="M 36.457031 115.683594 L 25.960938 109.867188 L 84.140625 4.914062 L 94.636719 10.730469 Z M 36.457031 115.683594 "/>
<path style=" stroke:none;fill-rule:nonzero;fill:rgb(0%,0%,100%);fill-opacity:0.00392157;" d="M 35.496094 115.261719 L 25.101562 109.261719 L 85.101562 5.335938 L 95.496094 11.335938 Z M 35.496094 115.261719 "/>
<path style=" stroke:none;fill-rule:nonzero;fill:rgb(0%,0%,100%);fill-opacity:0.00392157;" d="M 34.539062 114.820312 L 24.253906 108.636719 L 86.058594 5.777344 L 96.34375 11.957031 Z M 34.539062 114.820312 "/>
<path style=" stroke:none;fill-rule:nonzero;fill:rgb(0%,0%,100%);fill-opacity:0.00392157;" d="M 33.589844 114.359375 L 23.414062 108 L 87.003906 6.234375 L 97.183594 12.59375 Z M 33.589844 114.359375 "/>
<path style=" stroke:none;fill-rule:nonzero;fill:rgb(0%,0%,100%);fill-opacity:0.00392157;" d="M 32.652344 113.886719 L 22.589844 107.351562 L 87.945312 6.710938 L 98.007812 13.246094 Z M 32.652344 113.886719 "/>
<path style=" stroke:none;fill-rule:nonzero;fill:rgb(0%,0%,100%);fill-opacity:0.00392157;" d="M 31.722656 113.394531 L 21.773438 106.6875 L 88.875 7.199219 L 98.824219 13.910156 Z M 31.722656 113.394531 "/>
<path style=" stroke:none;fill-rule:nonzero;fill:rgb(0%,0%,100%);fill-opacity:0.00392157;" d="M 30.796875 112.890625 L 20.96875 106.007812 L 89.796875 7.707031 L 99.628906 14.589844 Z M 30.796875 112.890625 "/>
<path style=" stroke:none;fill-rule:nonzero;fill:rgb(0%,0%,100%);fill-opacity:0.00392157;" d="M 29.886719 112.367188 L 20.175781 105.3125 L 90.710938 8.230469 L 100.417969 15.285156 Z M 29.886719 112.367188 "/>
<path style=" stroke:none;fill-rule:nonzero;fill:rgb(0%,0%,100%);fill-opacity:0.00392157;" d="M 28.980469 111.828125 L 19.398438 104.605469 L 91.617188 8.769531 L 101.199219 15.992188 Z M 28.980469 111.828125 "/>
<path style=" stroke:none;fill-rule:nonzero;fill:rgb(0%,0%,100%);fill-opacity:0.00392157;" d="M 28.085938 111.273438 L 18.628906 103.886719 L 92.511719 9.324219 L 101.964844 16.710938 Z M 28.085938 111.273438 "/>
<path style=" stroke:none;fill-rule:nonzero;fill:rgb(0%,0%,100%);fill-opacity:0.00392157;" d="M 27.203125 110.703125 L 17.875 103.152344 L 93.394531 9.894531 L 102.71875 17.445312 Z M 27.203125 110.703125 "/>
<path style=" stroke:none;fill-rule:nonzero;fill:rgb(0%,0%,100%);fill-opacity:0.00392157;" d="M 26.328125 110.117188 L 17.136719 102.40625 L 94.269531 10.480469 L 103.460938 18.191406 Z M 26.328125 110.117188 "/>
<path style=" stroke:none;fill-rule:nonzero;fill:rgb(0%,0%,100%);fill-opacity:0.00392157;" d="M 25.464844 109.515625 L 16.40625 101.644531 L 95.132812 11.078125 L 104.191406 18.953125 Z M 25.464844 109.515625 "/>
<path style=" stroke:none;fill-rule:nonzero;fill:rgb(0%,0%,100%);fill-opacity:0.00392157;" d="M 24.609375 108.902344 L 15.691406 100.871094 L 95.988281 11.695312 L 104.90625 19.722656 Z M 24.609375 108.902344 "/>
<path style=" stroke:none;fill-rule:nonzero;fill:rgb(0%,0%,100%);fill-opacity:0.00392157;" d="M 23.765625 108.273438 L 14.992188 100.085938 L 96.832031 12.324219 L 105.605469 20.507812 Z M 23.765625 108.273438 "/>
<path style=" stroke:none;fill-rule:nonzero;fill:rgb(0%,0%,100%);fill-opacity:0.00392157;" d="M 22.933594 107.625 L 14.304688 99.289062 L 97.660156 12.96875 L 106.292969 21.304688 Z M 22.933594 107.625 "/>
<path style=" stroke:none;fill-rule:nonzero;fill:rgb(0%,0%,100%);fill-opacity:0.00392157;" d="M 22.113281 106.96875 L 13.628906 98.480469 L 98.480469 13.628906 L 106.96875 22.113281 Z M 22.113281 106.96875 "/>
<path style=" stroke:none;fill-rule:nonzero;fill:rgb(0%,0%,100%);fill-opacity:0.00392157;" d="M 21.304688 106.292969 L 12.96875 97.660156 L 99.289062 14.304688 L 107.625 22.933594 Z M 21.304688 106.292969 "/>
<path style=" stroke:none;fill-rule:nonzero;fill:rgb(0%,0%,100%);fill-opacity:0.00392157;" d="M 20.507812 105.605469 L 12.324219 96.832031 L 100.085938 14.992188 L 108.273438 23.765625 Z M 20.507812 105.605469 "/>
<path style=" stroke:none;fill-rule:nonzero;fill:rgb(0%,0%,100%);fill-opacity:0.00392157;" d="M 19.722656 104.90625 L 11.695312 95.988281 L 100.871094 15.691406 L 108.902344 24.609375 Z M 19.722656 104.90625 "/>
<path style=" stroke:none;fill-rule:nonzero;fill:rgb(0%,0%,100%);fill-opacity:0.00392157;" d="M 18.953125 104.191406 L 11.078125 95.132812 L 101.644531 16.40625 L 109.515625 25.464844 Z M 18.953125 104.191406 "/>
<path style=" stroke:none;fill-rule:nonzero;fill:rgb(0%,0%,100%);fill-opacity:0.00392157;" d="M 18.191406 103.460938 L 10.480469 94.269531 L 102.40625 17.136719 L 110.117188 26.328125 Z M 18.191406 103.460938 "/>
<path style=" stroke:none;fill-rule:nonzero;fill:rgb(0%,0%,100%);fill-opacity:0.00392157;" d="M 17.445312 102.71875 L 9.894531 93.394531 L 103.152344 17.875 L 110.703125 27.203125 Z M 17.445312 102.71875 "/>
<path style=" stroke:none;fill-rule:nonzero;fill:rgb(0%,0%,100%);fill-opacity:0.00392157;" d="M 16.710938 101.964844 L 9.324219 92.511719 L 103.886719 18.628906 L 111.273438 28.085938 Z M 16.710938 101.964844 "/>
<path style=" stroke:none;fill-rule:nonzero;fill:rgb(0%,0%,100%);fill-opacity:0.00392157;" d="M 15.992188 101.199219 L 8.769531 91.617188 L 104.605469 19.398438 L 111.828125 28.980469 Z M 15.992188 101.199219 "/>
<path style=" stroke:none;fill-rule:nonzero;fill:rgb(0%,0%,100%);fill-opacity:0.00392157;" d="M 15.285156 100.417969 L 8.230469 90.710938 L 105.3125 20.175781 L 112.367188 29.886719 Z M 15.285156 100.417969 "/>
<path style=" stroke:none;fill-rule:nonzero;fill:rgb(0%,0%,100%);fill-opacity:0.00392157;" d="M 14.589844 99.628906 L 7.707031 89.796875 L 106.007812 20.96875 L 112.890625 30.796875 Z M 14.589844 99.628906 "/>
<path style=" stroke:none;fill-rule:nonzero;fill:rgb(0%,0%,100%);fill-opacity:0.00392157;" d="M 13.910156 98.824219 L 7.199219 88.875 L 106.6875 21.773438 L 113.394531 31.722656 Z M 13.910156 98.824219 "/>
<path style=" stroke:none;fill-rule:nonzero;fill:rgb(0%,0%,100%);fill-opacity:0.00392157;" d="M 13.246094 98.007812 L 6.710938 87.945312 L 107.351562 22.589844 L 113.886719 32.652344 Z M 13.246094 98.007812 "/>
<path style=" stroke:none;fill-rule:nonzero;fill:rgb(0%,0%,100%);fill-opacity:0.00392157;" d="M 12.59375 97.183594 L 6.234375 87.003906 L 108 23.414062 L 114.359375 33.589844 Z M 12.59375 97.183594 "/>
<path style=" stroke:none;fill-rule:nonzero;fill:rgb(0%,0%,100%);fill-opacity:0.00392157;" d="M 11.957031 96.34375 L 5.777344 86.058594 L 108.636719 24.253906 L 114.820312 34.539062 Z M 11.957031 96.34375 "/>
<path style=" stroke:none;fill-rule:nonzero;fill:rgb(0%,0%,100%);fill-opacity:0.00392157;" d="M 11.335938 95.496094 L 5.335938 85.101562 L 109.261719 25.101562 L 115.261719 35.496094 Z M 11.335938 95.496094 "/>
<path style=" stroke:none;fill-rule:nonzero;fill:rgb(0%,0%,100%);fill-opacity:0.00392157;" d="M 10.730469 94.636719 L 4.914062 84.140625 L 109.867188 25.960938 L 115.683594 36.457031 Z M 10.730469 94.636719 "/>
<path style=" stroke:none;fill-rule:nonzero;fill:rgb(0%,0%,100%);fill-opacity:0.00392157;" d="M 10.136719 93.765625 L 4.503906 83.167969 L 110.457031 26.832031 L 116.09375 37.429688 Z M 10.136719 93.765625 "/>
<path style=" stroke:none;fill-rule:nonzero;fill:rgb(0%,0%,100%);fill-opacity:0.00392157;" d="M 9.5625 92.882812 L 4.113281 82.191406 L 111.035156 27.714844 L 116.484375 38.40625 Z M 9.5625 92.882812 "/>
<path style=" stroke:none;fill-rule:nonzero;fill:rgb(0%,0%,100%);fill-opacity:0.00392157;" d="M 9 91.992188 L 3.742188 81.207031 L 111.597656 28.601562 L 116.855469 39.390625 Z M 9 91.992188 "/>
<path style=" stroke:none;fill-rule:nonzero;fill:rgb(0%,0%,100%);fill-opacity:0.00392157;" d="M 8.457031 91.09375 L 3.382812 80.21875 L 112.140625 29.503906 L 117.210938 40.378906 Z M 8.457031 91.09375 "/>
<path style=" stroke:none;fill-rule:nonzero;fill:rgb(0%,0%,100%);fill-opacity:0.00392157;" d="M 7.925781 90.183594 L 3.046875 79.222656 L 112.671875 30.414062 L 117.550781 41.375 Z M 7.925781 90.183594 "/>
<path style=" stroke:none;fill-rule:nonzero;fill:rgb(0%,0%,100%);fill-opacity:0.00392157;" d="M 7.414062 89.265625 L 2.722656 78.21875 L 113.183594 31.332031 L 117.875 42.378906 Z M 7.414062 89.265625 "/>
<path style=" stroke:none;fill-rule:nonzero;fill:rgb(0%,0%,100%);fill-opacity:0.00392157;" d="M 6.914062 88.339844 L 2.417969 77.210938 L 113.683594 32.257812 L 118.175781 43.386719 Z M 6.914062 88.339844 "/>
<path style=" stroke:none;fill-rule:nonzero;fill:rgb(0%,0%,100%);fill-opacity:0.00392157;" d="M 6.433594 87.402344 L 2.132812 76.199219 L 114.164062 33.195312 L 118.464844 44.398438 Z M 6.433594 87.402344 "/>
<path style=" stroke:none;fill-rule:nonzero;fill:rgb(0%,0%,100%);fill-opacity:0.00392157;" d="M 5.96875 86.457031 L 1.863281 75.179688 L 114.628906 34.140625 L 118.730469 45.414062 Z M 5.96875 86.457031 "/>
<path style=" stroke:none;fill-rule:nonzero;fill:rgb(0%,0%,100%);fill-opacity:0.00392157;" d="M 5.519531 85.503906 L 1.613281 74.160156 L 115.078125 35.089844 L 118.984375 46.4375 Z M 5.519531 85.503906 "/>
<path style=" stroke:none;fill-rule:nonzero;fill:rgb(0%,0%,100%);fill-opacity:0.00392157;" d="M 5.089844 84.546875 L 1.382812 73.132812 L 115.507812 36.050781 L 119.214844 47.464844 Z M 5.089844 84.546875 "/>
<path style=" stroke:none;fill-rule:nonzero;fill:rgb(0%,0%,100%);fill-opacity:0.00392157;" d="M 4.675781 83.578125 L 1.164062 72.101562 L 115.921875 37.019531 L 119.429688 48.492188 Z M 4.675781 83.578125 "/>
<path style=" stroke:none;fill-rule:nonzero;fill:rgb(0%,0%,100%);fill-opacity:0.00392157;" d="M 4.277344 82.605469 L 0.96875 71.070312 L 116.320312 37.992188 L 119.628906 49.527344 Z M 4.277344 82.605469 "/>
<path style=" stroke:none;fill-rule:nonzero;fill:rgb(0%,0%,100%);fill-opacity:0.00392157;" d="M 3.894531 81.625 L 0.789062 70.03125 L 116.699219 38.972656 L 119.808594 50.566406 Z M 3.894531 81.625 "/>
<path style=" stroke:none;fill-rule:nonzero;fill:rgb(0%,0%,100%);fill-opacity:0.00392157;" d="M 3.53125 80.636719 L 0.628906 68.992188 L 117.066406 39.960938 L 119.96875 51.605469 Z M 3.53125 80.636719 "/>
<path style=" stroke:none;fill-rule:nonzero;fill:rgb(0%,0%,100%);fill-opacity:0.00392157;" d="M 3.1875 79.640625 L 0.488281 67.949219 L 117.410156 40.957031 L 120.109375 52.648438 Z M 3.1875 79.640625 "/>
<path style=" stroke:none;fill-rule:nonzero;fill:rgb(0%,0%,100%);fill-opacity:0.00392157;" d="M 2.855469 78.640625 L 0.363281 66.90625 L 117.738281 41.953125 L 120.234375 53.691406 Z M 2.855469 78.640625 "/>
<path style=" stroke:none;fill-rule:nonzero;fill:rgb(0%,0%,100%);fill-opacity:0.00392157;" d="M 2.546875 77.636719 L 0.257812 65.855469 L 118.050781 42.960938 L 120.339844 54.738281 Z M 2.546875 77.636719 "/>
<path style=" stroke:none;fill-rule:nonzero;fill:rgb(0%,0%,100%);fill-opacity:0.00392157;" d="M 2.25 76.625 L 0.167969 64.808594 L 118.34375 43.972656 L 120.429688 55.789062 Z M 2.25 76.625 "/>
<path style=" stroke:none;fill-rule:nonzero;fill:rgb(0%,0%,100%);fill-opacity:0.00392157;" d="M 1.976562 75.609375 L 0.0976562 63.757812 L 118.621094 44.984375 L 120.5 56.839844 Z M 1.976562 75.609375 "/>
<path style=" stroke:none;fill-rule:nonzero;fill:rgb(0%,0%,100%);fill-opacity:0.00392157;" d="M 1.71875 74.589844 L 0.046875 62.707031 L 118.878906 46.007812 L 120.550781 57.890625 Z M 1.71875 74.589844 "/>
<path style=" stroke:none;fill-rule:nonzero;fill:rgb(0%,0%,100%);fill-opacity:0.00392157;" d="M 1.476562 73.566406 L 0.015625 61.65625 L 119.121094 47.03125 L 120.582031 58.941406 Z M 1.476562 73.566406 "/>
<path style=" stroke:none;fill-rule:nonzero;fill:rgb(0%,0%,100%);fill-opacity:0.00392157;" d="M 1.253906 72.539062 L 0 60.601562 L 119.34375 48.058594 L 120.597656 59.992188 Z M 1.253906 72.539062 "/>
<path style=" stroke:none;fill-rule:nonzero;fill:rgb(0%,0%,100%);fill-opacity:0.00392157;" d="M 1.050781 71.503906 L 0.00390625 59.550781 L 119.546875 49.09375 L 120.59375 61.046875 Z M 1.050781 71.503906 "/>
<path style=" stroke:none;fill-rule:nonzero;fill:rgb(0%,0%,100%);fill-opacity:0.00392157;" d="M 0.863281 70.46875 L 0.0273438 58.5 L 119.734375 50.128906 L 120.570312 62.097656 Z M 0.863281 70.46875 "/>
<path style=" stroke:none;fill-rule:nonzero;fill:rgb(0%,0%,100%);fill-opacity:0.00392157;" d="M 0.695312 69.429688 L 0.0664062 57.445312 L 119.902344 51.167969 L 120.53125 63.148438 Z M 0.695312 69.429688 "/>
<path style=" stroke:none;fill-rule:nonzero;fill:rgb(0%,0%,100%);fill-opacity:0.00392157;" d="M 0.542969 68.390625 L 0.125 56.394531 L 120.050781 52.207031 L 120.472656 64.199219 Z M 0.542969 68.390625 "/>
<path style=" stroke:none;fill-rule:nonzero;fill:rgb(0%,0%,100%);fill-opacity:0.00392157;" d="M 0.414062 67.34375 L 0.203125 55.347656 L 120.183594 53.253906 L 120.394531 65.25 Z M 0.414062 67.34375 "/>
<path style=" stroke:none;fill-rule:nonzero;fill:rgb(0%,0%,100%);fill-opacity:0.00392157;" d="M 0.296875 66.296875 L 0.296875 54.296875 L 120.296875 54.296875 L 120.296875 66.296875 Z M 0.296875 66.296875 "/>
<path style=" stroke:none;fill-rule:nonzero;fill:rgb(0%,0%,100%);fill-opacity:0.00392157;" d="M 0.203125 65.25 L 0.414062 53.253906 L 120.394531 55.347656 L 120.183594 67.34375 Z M 0.203125 65.25 "/>
<path style=" stroke:none;fill-rule:nonzero;fill:rgb(0%,0%,100%);fill-opacity:0.00392157;" d="M 0.125 64.199219 L 0.542969 52.207031 L 120.472656 56.394531 L 120.050781 68.390625 Z M 0.125 64.199219 "/>
<path style=" stroke:none;fill-rule:nonzero;fill:rgb(0%,0%,100%);fill-opacity:0.00392157;" d="M 0.0664062 63.148438 L 0.695312 51.167969 L 120.53125 57.445312 L 119.902344 69.429688 Z M 0.0664062 63.148438 "/>
<path style=" stroke:none;fill-rule:nonzero;fill:rgb(0%,0%,100%);fill-opacity:0.00392157;" d="M 0.0273438 62.097656 L 0.863281 50.128906 L 120.570312 58.5 L 119.734375 70.46875 Z M 0.0273438 62.097656 "/>
<path style=" stroke:none;fill-rule:nonzero;fill:rgb(0%,0%,100%);fill-opacity:0.00392157;" d="M 0.00390625 61.046875 L 1.050781 49.09375 L 120.59375 59.550781 L 119.546875 71.503906 Z M 0.00390625 61.046875 "/>
<path style=" stroke:none;fill-rule:nonzero;fill:rgb(0%,0%,100%);fill-opacity:0.00392157;" d="M 0 59.992188 L 1.253906 48.058594 L 120.597656 60.601562 L 119.34375 72.539062 Z M 0 59.992188 "/>
<path style=" stroke:none;fill-rule:nonzero;fill:rgb(0%,0%,100%);fill-opacity:0.00392157;" d="M 0.015625 58.941406 L 1.476562 47.03125 L 120.582031 61.65625 L 119.121094 73.566406 Z M 0.015625 58.941406 "/>
<path style=" stroke:none;fill-rule:nonzero;fill:rgb(0%,0%,100%);fill-opacity:0.00392157;" d="M 0.046875 57.890625 L 1.71875 46.007812 L 120.550781 62.707031 L 118.878906 74.589844 Z M 0.046875 57.890625 "/>
<path style=" stroke:none;fill-rule:nonzero;fill:rgb(0%,0%,100%);fill-opacity:0.00392157;" d="M 0.0976562 56.839844 L 1.976562 44.984375 L 120.5 63.757812 L 118.621094 75.609375 Z M 0.0976562 56.839844 "/>
<path style=" stroke:none;fill-rule:nonzero;fill:rgb(0%,0%,100%);fill-opacity:0.00392157;" d="M 0.167969 55.789062 L 2.25 43.972656 L 120.429688 64.808594 L 118.34375 76.625 Z M 0.167969 55.789062 "/>
<path style=" stroke:none;fill-rule:nonzero;fill:rgb(0%,0%,100%);fill-opacity:0.00392157;" d="M 0.257812 54.738281 L 2.546875 42.960938 L 120.339844 65.855469 L 118.050781 77.636719 Z M 0.257812 54.738281 "/>
<path style=" stroke:none;fill-rule:nonzero;fill:rgb(0%,0%,100%);fill-opacity:0.00392157;" d="M 0.363281 53.691406 L 2.855469 41.953125 L 120.234375 66.90625 L 117.738281 78.640625 Z M 0.363281 53.691406 "/>
<path style=" stroke:none;fill-rule:nonzero;fill:rgb(0%,0%,100%);fill-opacity:0.00392157;" d="M 0.488281 52.648438 L 3.1875 40.957031 L 120.109375 67.949219 L 117.410156 79.640625 Z M 0.488281 52.648438 "/>
<path style=" stroke:none;fill-rule:nonzero;fill:rgb(0%,0%,100%);fill-opacity:0.00392157;" d="M 0.628906 51.605469 L 3.53125 39.960938 L 119.96875 68.992188 L 117.066406 80.636719 Z M 0.628906 51.605469 "/>
<path style=" stroke:none;fill-rule:nonzero;fill:rgb(0%,0%,100%);fill-opacity:0.00392157;" d="M 0.789062 50.566406 L 3.894531 38.972656 L 119.808594 70.03125 L 116.699219 81.625 Z M 0.789062 50.566406 "/>
<path style=" stroke:none;fill-rule:nonzero;fill:rgb(0%,0%,100%);fill-opacity:0.00392157;" d="M 0.96875 49.527344 L 4.277344 37.992188 L 119.628906 71.070312 L 116.320312 82.605469 Z M 0.96875 49.527344 "/>
<path style=" stroke:none;fill-rule:nonzero;fill:rgb(0%,0%,100%);fill-opacity:0.00392157;" d="M 1.164062 48.492188 L 4.675781 37.019531 L 119.429688 72.101562 L 115.921875 83.578125 Z M 1.164062 48.492188 "/>
<path style=" stroke:none;fill-rule:nonzero;fill:rgb(0%,0%,100%);fill-opacity:0.00392157;" d="M 1.382812 47.464844 L 5.089844 36.050781 L 119.214844 73.132812 L 115.507812 84.546875 Z M 1.382812 47.464844 "/>
<path style=" stroke:none;fill-rule:nonzero;fill:rgb(0%,0%,100%);fill-opacity:0.00392157;" d="M 1.613281 46.4375 L 5.519531 35.089844 L 118.984375 74.160156 L 115.078125 85.503906 Z M 1.613281 46.4375 "/>
<path style=" stroke:none;fill-rule:nonzero;fill:rgb(0%,0%,100%);fill-opacity:0.00392157;" d="M 1.863281 45.414062 L 5.96875 34.140625 L 118.730469 75.179688 L 114.628906 86.457031 Z M 1.863281 45.414062 "/>
<path style=" stroke:none;fill-rule:nonzero;fill:rgb(0%,0%,100%);fill-opacity:0.00392157;" d="M 2.132812 44.398438 L 6.433594 33.195312 L 118.464844 76.199219 L 114.164062 87.402344 Z M 2.132812 44.398438 "/>
<path style=" stroke:none;fill-rule:nonzero;fill:rgb(0%,0%,100%);fill-opacity:0.00392157;" d="M 2.417969 43.386719 L 6.914062 32.257812 L 118.175781 77.210938 L 113.683594 88.339844 Z M 2.417969 43.386719 "/>
<path style=" stroke:none;fill-rule:nonzero;fill:rgb(0%,0%,100%);fill-opacity:0.00392157;" d="M 2.722656 42.378906 L 7.414062 31.332031 L 117.875 78.21875 L 113.183594 89.265625 Z M 2.722656 42.378906 "/>
<path style=" stroke:none;fill-rule:nonzero;fill:rgb(0%,0%,100%);fill-opacity:0.00392157;" d="M 3.046875 41.375 L 7.925781 30.414062 L 117.550781 79.222656 L 112.671875 90.183594 Z M 3.046875 41.375 "/>
<path style=" stroke:none;fill-rule:nonzero;fill:rgb(0%,0%,100%);fill-opacity:0.00392157;" d="M 3.382812 40.378906 L 8.457031 29.503906 L 117.210938 80.21875 L 112.140625 91.09375 Z M 3.382812 40.378906 "/>
<path style=" stroke:none;fill-rule:nonzero;fill:rgb(0%,0%,100%);fill-opacity:0.00392157;" d="M 3.742188 39.390625 L 9 28.601562 L 116.855469 81.207031 L 111.597656 91.992188 Z M 3.742188 39.390625 "/>
<path style=" stroke:none;fill-rule:nonzero;fill:rgb(0%,0%,100%);fill-opacity:0.00392157;" d="M 4.113281 38.40625 L 9.5625 27.714844 L 116.484375 82.191406 L 111.035156 92.882812 Z M 4.113281 38.40625 "/>
<path style=" stroke:none;fill-rule:nonzero;fill:rgb(0%,0%,100%);fill-opacity:0.00392157;" d="M 4.503906 37.429688 L 10.136719 26.832031 L 116.09375 83.167969 L 110.457031 93.765625 Z M 4.503906 37.429688 "/>
<path style=" stroke:none;fill-rule:nonzero;fill:rgb(0%,0%,100%);fill-opacity:0.00392157;" d="M 4.914062 36.457031 L 10.730469 25.960938 L 115.683594 84.140625 L 109.867188 94.636719 Z M 4.914062 36.457031 "/>
<path style=" stroke:none;fill-rule:nonzero;fill:rgb(0%,0%,100%);fill-opacity:0.00392157;" d="M 5.335938 35.496094 L 11.335938 25.101562 L 115.261719 85.101562 L 109.261719 95.496094 Z M 5.335938 35.496094 "/>
<path style=" stroke:none;fill-rule:nonzero;fill:rgb(0%,0%,100%);fill-opacity:0.00392157;" d="M 5.777344 34.539062 L 11.957031 24.253906 L 114.820312 86.058594 L 108.636719 96.34375 Z M 5.777344 34.539062 "/>
<path style=" stroke:none;fill-rule:nonzero;fill:rgb(0%,0%,100%);fill-opacity:0.00392157;" d="M 6.234375 33.589844 L 12.59375 23.414062 L 114.359375 87.003906 L 108 97.183594 Z M 6.234375 33.589844 "/>
<path style=" stroke:none;fill-rule:nonzero;fill:rgb(0%,0%,100%);fill-opacity:0.00392157;" d="M 6.710938 32.652344 L 13.246094 22.589844 L 113.886719 87.945312 L 107.351562 98.007812 Z M 6.710938 32.652344 "/>
<path style=" stroke:none;fill-rule:nonzero;fill:rgb(0%,0%,100%);fill-opacity:0.00392157;" d="M 7.199219 31.722656 L 13.910156 21.773438 L 113.394531 88.875 L 106.6875 98.824219 Z M 7.199219 31.722656 "/>
<path style=" stroke:none;fill-rule:nonzero;fill:rgb(0%,0%,100%);fill-opacity:0.00392157;" d="M 7.707031 30.796875 L 14.589844 20.96875 L 112.890625 89.796875 L 106.007812 99.628906 Z M 7.707031 30.796875 "/>
<path style=" stroke:none;fill-rule:nonzero;fill:rgb(0%,0%,100%);fill-opacity:0.00392157;" d="M 8.230469 29.886719 L 15.285156 20.175781 L 112.367188 90.710938 L 105.3125 100.417969 Z M 8.230469 29.886719 "/>
<path style=" stroke:none;fill-rule:nonzero;fill:rgb(0%,0%,100%);fill-opacity:0.00392157;" d="M 8.769531 28.980469 L 15.992188 19.398438 L 111.828125 91.617188 L 104.605469 101.199219 Z M 8.769531 28.980469 "/>
<path style=" stroke:none;fill-rule:nonzero;fill:rgb(0%,0%,100%);fill-opacity:0.00392157;" d="M 9.324219 28.085938 L 16.710938 18.628906 L 111.273438 92.511719 L 103.886719 101.964844 Z M 9.324219 28.085938 "/>
<path style=" stroke:none;fill-rule:nonzero;fill:rgb(0%,0%,100%);fill-opacity:0.00392157;" d="M 9.894531 27.203125 L 17.445312 17.875 L 110.703125 93.394531 L 103.152344 102.71875 Z M 9.894531 27.203125 "/>
<path style=" stroke:none;fill-rule:nonzero;fill:rgb(0%,0%,100%);fill-opacity:0.00392157;" d="M 10.480469 26.328125 L 18.191406 17.136719 L 110.117188 94.269531 L 102.40625 103.460938 Z M 10.480469 26.328125 "/>
<path style=" stroke:none;fill-rule:nonzero;fill:rgb(0%,0%,100%);fill-opacity:0.00392157;" d="M 11.078125 25.464844 L 18.953125 16.40625 L 109.515625 95.132812 L 101.644531 104.191406 Z M 11.078125 25.464844 "/>
<path style=" stroke:none;fill-rule:nonzero;fill:rgb(0%,0%,100%);fill-opacity:0.00392157;" d="M 11.695312 24.609375 L 19.722656 15.691406 L 108.902344 95.988281 L 100.871094 104.90625 Z M 11.695312 24.609375 "/>
<path style=" stroke:none;fill-rule:nonzero;fill:rgb(0%,0%,100%);fill-opacity:0.00392157;" d="M 12.324219 23.765625 L 20.507812 14.992188 L 108.273438 96.832031 L 100.085938 105.605469 Z M 12.324219 23.765625 "/>
<path style=" stroke:none;fill-rule:nonzero;fill:rgb(0%,0%,100%);fill-opacity:0.00392157;" d="M 12.96875 22.933594 L 21.304688 14.304688 L 107.625 97.660156 L 99.289062 106.292969 Z M 12.96875 22.933594 "/>
<path style=" stroke:none;fill-rule:nonzero;fill:rgb(0%,0%,100%);fill-opacity:0.00392157;" d="M 13.628906 22.113281 L 22.113281 13.628906 L 106.96875 98.480469 L 98.480469 106.96875 Z M 13.628906 22.113281 "/>
<path style=" stroke:none;fill-rule:nonzero;fill:rgb(0%,0%,100%);fill-opacity:0.00392157;" d="M 14.304688 21.304688 L 22.933594 12.96875 L 106.292969 99.289062 L 97.660156 107.625 Z M 14.304688 21.304688 "/>
<path style=" stroke:none;fill-rule:nonzero;fill:rgb(0%,0%,100%);fill-opacity:0.00392157;" d="M 14.992188 20.507812 L 23.765625 12.324219 L 105.605469 100.085938 L 96.832031 108.273438 Z M 14.992188 20.507812 "/>
<path style=" stroke:none;fill-rule:nonzero;fill:rgb(0%,0%,100%);fill-opacity:0.00392157;" d="M 15.691406 19.722656 L 24.609375 11.695312 L 104.90625 100.871094 L 95.988281 108.902344 Z M 15.691406 19.722656 "/>
<path style=" stroke:none;fill-rule:nonzero;fill:rgb(0%,0%,100%);fill-opacity:0.00392157;" d="M 16.40625 18.953125 L 25.464844 11.078125 L 104.191406 101.644531 L 95.132812 109.515625 Z M 16.40625 18.953125 "/>
<path style=" stroke:none;fill-rule:nonzero;fill:rgb(0%,0%,100%);fill-opacity:0.00392157;" d="M 17.136719 18.191406 L 26.328125 10.480469 L 103.460938 102.40625 L 94.269531 110.117188 Z M 17.136719 18.191406 "/>
<path style=" stroke:none;fill-rule:nonzero;fill:rgb(0%,0%,100%);fill-opacity:0.00392157;" d="M 17.875 17.445312 L 27.203125 9.894531 L 102.71875 103.152344 L 93.394531 110.703125 Z M 17.875 17.445312 "/>
<path style=" stroke:none;fill-rule:nonzero;fill:rgb(0%,0%,100%);fill-opacity:0.00392157;" d="M 18.628906 16.710938 L 28.085938 9.324219 L 101.964844 103.886719 L 92.511719 111.273438 Z M 18.628906 16.710938 "/>
<path style=" stroke:none;fill-rule:nonzero;fill:rgb(0%,0%,100%);fill-opacity:0.00392157;" d="M 19.398438 15.992188 L 28.980469 8.769531 L 101.199219 104.605469 L 91.617188 111.828125 Z M 19.398438 15.992188 "/>
<path style=" stroke:none;fill-rule:nonzero;fill:rgb(0%,0%,100%);fill-opacity:0.00392157;" d="M 20.175781 15.285156 L 29.886719 8.230469 L 100.417969 105.3125 L 90.710938 112.367188 Z M 20.175781 15.285156 "/>
<path style=" stroke:none;fill-rule:nonzero;fill:rgb(0%,0%,100%);fill-opacity:0.00392157;" d="M 20.96875 14.589844 L 30.796875 7.707031 L 99.628906 106.007812 L 89.796875 112.890625 Z M 20.96875 14.589844 "/>
<path style=" stroke:none;fill-rule:nonzero;fill:rgb(0%,0%,100%);fill-opacity:0.00392157;" d="M 21.773438 13.910156 L 31.722656 7.199219 L 98.824219 106.6875 L 88.875 113.394531 Z M 21.773438 13.910156 "/>
<path style=" stroke:none;fill-rule:nonzero;fill:rgb(0%,0%,100%);fill-opacity:0.00392157;" d="M 22.589844 13.246094 L 32.652344 6.710938 L 98.007812 107.351562 L 87.945312 113.886719 Z M 22.589844 13.246094 "/>
<path style=" stroke:none;fill-rule:nonzero;fill:rgb(0%,0%,100%);fill-opacity:0.00392157;" d="M 23.414062 12.59375 L 33.589844 6.234375 L 97.183594 108 L 87.003906 114.359375 Z M 23.414062 12.59375 "/>
<path style=" stroke:none;fill-rule:nonzero;fill:rgb(0%,0%,100%);fill-opacity:0.00392157;" d="M 24.253906 11.957031 L 34.539062 5.777344 L 96.34375 108.636719 L 86.058594 114.820312 Z M 24.253906 11.957031 "/>
<path style=" stroke:none;fill-rule:nonzero;fill:rgb(0%,0%,100%);fill-opacity:0.00392157;" d="M 25.101562 11.335938 L 35.496094 5.335938 L 95.496094 109.261719 L 85.101562 115.261719 Z M 25.101562 11.335938 "/>
<path style=" stroke:none;fill-rule:nonzero;fill:rgb(0%,0%,100%);fill-opacity:0.00392157;" d="M 25.960938 10.730469 L 36.457031 4.914062 L 94.636719 109.867188 L 84.140625 115.683594 Z M 25.960938 10.730469 "/>
<path style=" stroke:none;fill-rule:nonzero;fill:rgb(0%,0%,100%);fill-opacity:0.00392157;" d="M 26.832031 10.136719 L 37.429688 4.503906 L 93.765625 110.457031 L 83.167969 116.09375 Z M 26.832031 10.136719 "/>
<path style=" stroke:none;fill-rule:nonzero;fill:rgb(0%,0%,100%);fill-opacity:0.00392157;" d="M 27.714844 9.5625 L 38.40625 4.113281 L 92.882812 111.035156 L 82.191406 116.484375 Z M 27.714844 9.5625 "/>
<path style=" stroke:none;fill-rule:nonzero;fill:rgb(0%,0%,100%);fill-opacity:0.00392157;" d="M 28.601562 9 L 39.390625 3.742188 L 91.992188 111.597656 L 81.207031 116.855469 Z M 28.601562 9 "/>
<path style=" stroke:none;fill-rule:nonzero;fill:rgb(0%,0%,100%);fill-opacity:0.00392157;" d="M 29.503906 8.457031 L 40.378906 3.382812 L 91.09375 112.140625 L 80.21875 117.210938 Z M 29.503906 8.457031 "/>
<path style=" stroke:none;fill-rule:nonzero;fill:rgb(0%,0%,100%);fill-opacity:0.00392157;" d="M 30.414062 7.925781 L 41.375 3.046875 L 90.183594 112.671875 L 79.222656 117.550781 Z M 30.414062 7.925781 "/>
<path style=" stroke:none;fill-rule:nonzero;fill:rgb(0%,0%,100%);fill-opacity:0.00392157;" d="M 31.332031 7.414062 L 42.378906 2.722656 L 89.265625 113.183594 L 78.21875 117.875 Z M 31.332031 7.414062 "/>
<path style=" stroke:none;fill-rule:nonzero;fill:rgb(0%,0%,100%);fill-opacity:0.00392157;" d="M 32.257812 6.914062 L 43.386719 2.417969 L 88.339844 113.683594 L 77.210938 118.175781 Z M 32.257812 6.914062 "/>
<path style=" stroke:none;fill-rule:nonzero;fill:rgb(0%,0%,100%);fill-opacity:0.00392157;" d="M 33.195312 6.433594 L 44.398438 2.132812 L 87.402344 114.164062 L 76.199219 118.464844 Z M 33.195312 6.433594 "/>
<path style=" stroke:none;fill-rule:nonzero;fill:rgb(0%,0%,100%);fill-opacity:0.00392157;" d="M 34.140625 5.96875 L 45.414062 1.863281 L 86.457031 114.628906 L 75.179688 118.730469 Z M 34.140625 5.96875 "/>
<path style=" stroke:none;fill-rule:nonzero;fill:rgb(0%,0%,100%);fill-opacity:0.00392157;" d="M 35.089844 5.519531 L 46.4375 1.613281 L 85.503906 115.078125 L 74.160156 118.984375 Z M 35.089844 5.519531 "/>
<path style=" stroke:none;fill-rule:nonzero;fill:rgb(0%,0%,100%);fill-opacity:0.00392157;" d="M 36.050781 5.089844 L 47.464844 1.382812 L 84.546875 115.507812 L 73.132812 119.214844 Z M 36.050781 5.089844 "/>
<path style=" stroke:none;fill-rule:nonzero;fill:rgb(0%,0%,100%);fill-opacity:0.00392157;" d="M 37.019531 4.675781 L 48.492188 1.164062 L 83.578125 115.921875 L 72.101562 119.429688 Z M 37.019531 4.675781 "/>
<path style=" stroke:none;fill-rule:nonzero;fill:rgb(0%,0%,100%);fill-opacity:0.00392157;" d="M 37.992188 4.277344 L 49.527344 0.96875 L 82.605469 116.320312 L 71.070312 119.628906 Z M 37.992188 4.277344 "/>
<path style=" stroke:none;fill-rule:nonzero;fill:rgb(0%,0%,100%);fill-opacity:0.00392157;" d="M 38.972656 3.894531 L 50.566406 0.789062 L 81.625 116.699219 L 70.03125 119.808594 Z M 38.972656 3.894531 "/>
<path style=" stroke:none;fill-rule:nonzero;fill:rgb(0%,0%,100%);fill-opacity:0.00392157;" d="M 39.960938 3.53125 L 51.605469 0.628906 L 80.636719 117.066406 L 68.992188 119.96875 Z M 39.960938 3.53125 "/>
<path style=" stroke:none;fill-rule:nonzero;fill:rgb(0%,0%,100%);fill-opacity:0.00392157;" d="M 40.957031 3.1875 L 52.648438 0.488281 L 79.640625 117.410156 L 67.949219 120.109375 Z M 40.957031 3.1875 "/>
<path style=" stroke:none;fill-rule:nonzero;fill:rgb(0%,0%,100%);fill-opacity:0.00392157;" d="M 41.953125 2.855469 L 53.691406 0.363281 L 78.640625 117.738281 L 66.90625 120.234375 Z M 41.953125 2.855469 "/>
<path style=" stroke:none;fill-rule:nonzero;fill:rgb(0%,0%,100%);fill-opacity:0.00392157;" d="M 42.960938 2.546875 L 54.738281 0.257812 L 77.636719 118.050781 L 65.855469 120.339844 Z M 42.960938 2.546875 "/>
<path style=" stroke:none;fill-rule:nonzero;fill:rgb(0%,0%,100%);fill-opacity:0.00392157;" d="M 43.972656 2.25 L 55.789062 0.167969 L 76.625 118.34375 L 64.808594 120.429688 Z M 43.972656 2.25 "/>
<path style=" stroke:none;fill-rule:nonzero;fill:rgb(0%,0%,100%);fill-opacity:0.00392157;" d="M 44.984375 1.976562 L 56.839844 0.0976562 L 75.609375 118.621094 L 63.757812 120.5 Z M 44.984375 1.976562 "/>
<path style=" stroke:none;fill-rule:nonzero;fill:rgb(0%,0%,100%);fill-opacity:0.00392157;" d="M 46.007812 1.71875 L 57.890625 0.046875 L 74.589844 118.878906 L 62.707031 120.550781 Z M 46.007812 1.71875 "/>
<path style=" stroke:none;fill-rule:nonzero;fill:rgb(0%,0%,100%);fill-opacity:0.00392157;" d="M 47.03125 1.476562 L 58.941406 0.015625 L 73.566406 119.121094 L 61.65625 120.582031 Z M 47.03125 1.476562 "/>
<path style=" stroke:none;fill-rule:nonzero;fill:rgb(0%,0%,100%);fill-opacity:0.00392157;" d="M 48.058594 1.253906 L 59.992188 0 L 72.539062 119.34375 L 60.601562 120.597656 Z M 48.058594 1.253906 "/>
<path style=" stroke:none;fill-rule:nonzero;fill:rgb(0%,0%,100%);fill-opacity:0.00392157;" d="M 49.09375 1.050781 L 61.046875 0.00390625 L 71.503906 119.546875 L 59.550781 120.59375 Z M 49.09375 1.050781 "/>
<path style=" stroke:none;fill-rule:nonzero;fill:rgb(0%,0%,100%);fill-opacity:0.00392157;" d="M 50.128906 0.863281 L 62.097656 0.0273438 L 70.46875 119.734375 L 58.5 120.570312 Z M 50.128906 0.863281 "/>
<path style=" stroke:none;fill-rule:nonzero;fill:rgb(0%,0%,100%);fill-opacity:0.00392157;" d="M 51.167969 0.695312 L 63.148438 0.0664062 L 69.429688 119.902344 L 57.445312 120.53125 Z M 51.167969 0.695312 "/>
<path style=" stroke:none;fill-rule:nonzero;fill:rgb(0%,0%,100%);fill-opacity:0.00392157;" d="M 52.207031 0.542969 L 64.199219 0.125 L 68.390625 120.050781 L 56.394531 120.472656 Z M 52.207031 0.542969 "/>
<path style=" stroke:none;fill-rule:nonzero;fill:rgb(0%,0%,100%);fill-opacity:0.00392157;" d="M 53.253906 0.414062 L 65.25 0.203125 L 67.34375 120.183594 L 55.347656 120.394531 Z M 53.253906 0.414062 "/>
<path style=" stroke:none;fill-rule:nonzero;fill:rgb(0%,0%,100%);fill-opacity:0.00392157;" d="M 54.296875 0.296875 L 66.296875 0.296875 L 66.296875 120.296875 L 54.296875 120.296875 Z M 54.296875 0.296875 "/>
<path style=" stroke:none;fill-rule:nonzero;fill:rgb(0%,0%,100%);fill-opacity:0.00392157;" d="M 54.296875 0.296875 L 66.296875 0.296875 L 66.296875 120.296875 L 54.296875 120.296875 Z M 54.296875 0.296875 "/>
</g>
</svg>
