<?xml version="1.0" encoding="UTF-8"?>
<svg xmlns="http://www.w3.org/2000/svg" xmlns:xlink="http://www.w3.org/1999/xlink" width="71pt" height="81pt" viewBox="0 0 71 81" version="1.1">
<g id="surface4682">
<path style=" stroke:none;fill-rule:evenodd;fill:rgb(0%,39.215686%,0%);fill-opacity:1;" d="M 10 70 C 10 75.523438 7.761719 80 5 80 C 2.238281 80 0 75.523438 0 70 C 0 64.476562 2.238281 60 5 60 C 7.761719 60 10 64.476562 10 70 Z M 10 70 "/>
<path style=" stroke:none;fill-rule:evenodd;fill:rgb(33.333333%,41.960784%,18.431373%);fill-opacity:1;" d="M 30 50 C 30 55.523438 23.285156 60 15 60 C 6.714844 60 0 55.523438 0 50 C 0 44.476562 6.714844 40 15 40 C 23.285156 40 30 44.476562 30 50 Z M 30 50 "/>
<path style=" stroke:none;fill-rule:evenodd;fill:rgb(41.960784%,55.686275%,13.72549%);fill-opacity:1;" d="M 50 30 C 50 35.523438 38.808594 40 25 40 C 11.191406 40 0 35.523438 0 30 C 0 24.476562 11.191406 20 25 20 C 38.808594 20 50 24.476562 50 30 Z M 50 30 "/>
<path style=" stroke:none;fill-rule:evenodd;fill:rgb(60.392157%,80.392157%,19.607843%);fill-opacity:1;" d="M 70 10 C 70 15.523438 54.328125 20 35 20 C 15.671875 20 0 15.523438 0 10 C 0 4.476562 15.671875 0 35 0 C 54.328125 0 70 4.476562 70 10 Z M 70 10 "/>
</g>
</svg>
