<?xml version="1.0" encoding="UTF-8"?>
<svg xmlns="http://www.w3.org/2000/svg" xmlns:xlink="http://www.w3.org/1999/xlink" width="61pt" height="61pt" viewBox="0 0 61 61" version="1.1">
<defs>
<clipPath id="clip1">
  <path d="M -12.265625 33.699219 L 26.300781 -12.265625 L 72.265625 26.300781 L 33.699219 72.265625 Z M -12.265625 33.699219 "/>
</clipPath>
<clipPath id="clip2">
  <path d="M -12.265625 26.300781 L 33.699219 -12.265625 L 72.265625 33.699219 L 26.300781 72.265625 Z M -12.265625 26.300781 "/>
</clipPath>
<clipPath id="clip3">
  <path d="M -10.980469 19.019531 L 40.980469 -10.980469 L 70.980469 40.980469 L 19.019531 70.980469 Z M -10.980469 19.019531 "/>
</clipPath>
<clipPath id="clip4">
  <path d="M -8.453125 12.070312 L 47.929688 -8.453125 L 68.453125 47.929688 L 12.070312 68.453125 Z M -8.453125 12.070312 "/>
</clipPath>
<clipPath id="clip5">
  <path d="M -4.753906 5.664062 L 54.335938 -4.753906 L 64.753906 54.335938 L 5.664062 64.753906 Z M -4.753906 5.664062 "/>
</clipPath>
<clipPath id="clip6">
  <path d="M 0 0 L 60 0 L 60 60 L 0 60 Z M 0 0 "/>
</clipPath>
</defs>
<g id="surface4107">
<g clip-path="url(#clip1)" clip-rule="evenodd">
<path style=" stroke:none;fill-rule:nonzero;fill:rgb(100%,0%,0%);fill-opacity:0.0980392;" d="M 26.984375 47.050781 L 46.265625 24.066406 L 16.722656 18.859375 Z M 26.984375 47.050781 "/>
</g>
<g clip-path="url(#clip2)" clip-rule="evenodd">
<path style=" stroke:none;fill-rule:nonzero;fill:rgb(100%,0%,0%);fill-opacity:0.196078;" d="M 24.066406 46.265625 L 47.050781 26.984375 L 18.859375 16.722656 Z M 24.066406 46.265625 "/>
</g>
<g clip-path="url(#clip3)" clip-rule="evenodd">
<path style=" stroke:none;fill-rule:nonzero;fill:rgb(100%,0%,0%);fill-opacity:0.294118;" d="M 21.332031 44.988281 L 47.3125 29.988281 L 21.332031 14.988281 Z M 21.332031 44.988281 "/>
</g>
<g clip-path="url(#clip4)" clip-rule="evenodd">
<path style=" stroke:none;fill-rule:nonzero;fill:rgb(100%,0%,0%);fill-opacity:0.392157;" d="M 18.863281 43.257812 L 47.054688 32.996094 L 24.070312 13.710938 Z M 18.863281 43.257812 "/>
</g>
<g clip-path="url(#clip5)" clip-rule="evenodd">
<path style=" stroke:none;fill-rule:nonzero;fill:rgb(100%,0%,0%);fill-opacity:0.490196;" d="M 16.730469 41.121094 L 46.273438 35.910156 L 26.988281 12.929688 Z M 16.730469 41.121094 "/>
</g>
<g clip-path="url(#clip6)" clip-rule="evenodd">
<path style=" stroke:none;fill-rule:nonzero;fill:rgb(100%,0%,0%);fill-opacity:1;" d="M 15 38.648438 L 45 38.648438 L 30 12.667969 Z M 15 38.648438 "/>
</g>
</g>
</svg>
