<?xml version="1.0" encoding="UTF-8"?>
<svg xmlns="http://www.w3.org/2000/svg" xmlns:xlink="http://www.w3.org/1999/xlink" width="71pt" height="81pt" viewBox="0 0 71 81" version="1.1">
<g id="surface4672">
<path style=" stroke:none;fill-rule:evenodd;fill:rgb(0%,0%,0%);fill-opacity:1;" d="M 40 70 C 40 75.523438 37.761719 80 35 80 C 32.238281 80 30 75.523438 30 70 C 30 64.476562 32.238281 60 35 60 C 37.761719 60 40 64.476562 40 70 Z M 40 70 "/>
<path style=" stroke:none;fill-rule:evenodd;fill:rgb(41.176471%,41.176471%,41.176471%);fill-opacity:1;" d="M 50 50 C 50 55.523438 43.285156 60 35 60 C 26.714844 60 20 55.523438 20 50 C 20 44.476562 26.714844 40 35 40 C 43.285156 40 50 44.476562 50 50 Z M 50 50 "/>
<path style=" stroke:none;fill-rule:evenodd;fill:rgb(66.27451%,66.27451%,66.27451%);fill-opacity:1;" d="M 60 30 C 60 35.523438 48.808594 40 35 40 C 21.191406 40 10 35.523438 10 30 C 10 24.476562 21.191406 20 35 20 C 48.808594 20 60 24.476562 60 30 Z M 60 30 "/>
<path style=" stroke:none;fill-rule:evenodd;fill:rgb(74.509804%,74.509804%,74.509804%);fill-opacity:1;" d="M 70 10 C 70 15.523438 54.328125 20 35 20 C 15.671875 20 0 15.523438 0 10 C 0 4.476562 15.671875 0 35 0 C 54.328125 0 70 4.476562 70 10 Z M 70 10 "/>
</g>
</svg>
