<?xml version="1.0" encoding="UTF-8"?>
<svg xmlns="http://www.w3.org/2000/svg" xmlns:xlink="http://www.w3.org/1999/xlink" width="171pt" height="171pt" viewBox="0 0 171 171" version="1.1">
<g id="surface4627">
<path style=" stroke:none;fill-rule:nonzero;fill:rgb(14.117647%,14.117647%,54.901961%);fill-opacity:1;" d="M 84.851562 0 L 169.707031 84.851562 L 84.851562 169.707031 L 0 84.851562 Z M 84.851562 0 "/>
<path style=" stroke:none;fill-rule:nonzero;fill:rgb(39.215686%,58.431373%,92.941176%);fill-opacity:1;" d="M 41.132812 85.550781 L 86.265625 56.546875 L 51.132812 16 L 16 56.546875 L 61.132812 85.550781 L 83.421875 36.75 L 31.945312 21.632812 L 24.308594 74.738281 L 77.957031 74.738281 L 70.324219 21.632812 L 18.847656 36.75 Z M 41.132812 85.550781 "/>
<path style=" stroke:none;fill-rule:nonzero;fill:rgb(39.215686%,58.431373%,92.941176%);fill-opacity:1;" d="M 108.570312 85.550781 L 153.707031 56.546875 L 118.570312 16 L 83.4375 56.546875 L 128.570312 85.550781 L 150.859375 36.75 L 99.382812 21.632812 L 91.746094 74.738281 L 145.398438 74.738281 L 137.761719 21.632812 L 86.285156 36.75 Z M 108.570312 85.550781 "/>
<path style=" stroke:none;fill-rule:nonzero;fill:rgb(39.215686%,58.431373%,92.941176%);fill-opacity:1;" d="M 41.132812 153.707031 L 86.265625 124.699219 L 51.132812 84.152344 L 16 124.699219 L 61.132812 153.707031 L 83.421875 104.902344 L 31.945312 89.789062 L 24.308594 142.894531 L 77.957031 142.894531 L 70.324219 89.789062 L 18.847656 104.902344 Z M 41.132812 153.707031 "/>
<path style=" stroke:none;fill-rule:nonzero;fill:rgb(39.215686%,58.431373%,92.941176%);fill-opacity:1;" d="M 108.570312 153.707031 L 153.707031 124.699219 L 118.570312 84.152344 L 83.4375 124.699219 L 128.570312 153.707031 L 150.859375 104.902344 L 99.382812 89.789062 L 91.746094 142.894531 L 145.398438 142.894531 L 137.761719 89.789062 L 86.285156 104.902344 Z M 108.570312 153.707031 "/>
</g>
</svg>
