<?xml version="1.0" encoding="UTF-8"?>
<svg xmlns="http://www.w3.org/2000/svg" xmlns:xlink="http://www.w3.org/1999/xlink" width="137pt" height="137pt" viewBox="0 0 137 137" version="1.1">
<g id="surface4622">
<path style=" stroke:none;fill-rule:nonzero;fill:rgb(14.117647%,14.117647%,54.901961%);fill-opacity:1;" d="M 53.136719 126.273438 L 108.339844 108.339844 L 126.273438 53.136719 L 92.160156 6.179688 L 34.117188 6.179688 L 0 53.136719 L 17.9375 108.339844 L 73.136719 126.273438 L 120.09375 92.160156 L 120.09375 34.117188 L 73.136719 0 L 17.9375 17.9375 L 0 73.136719 L 34.117188 120.09375 L 92.160156 120.09375 L 126.273438 73.136719 L 108.339844 17.9375 L 53.136719 0 L 6.179688 34.117188 L 6.179688 92.160156 Z M 53.136719 126.273438 "/>
<path style=" stroke:none;fill-rule:evenodd;fill:rgb(39.215686%,58.431373%,92.941176%);fill-opacity:1;" d="M 136.273438 106.273438 C 136.273438 122.84375 122.84375 136.273438 106.273438 136.273438 C 89.707031 136.273438 76.273438 122.84375 76.273438 106.273438 C 76.273438 89.707031 89.707031 76.273438 106.273438 76.273438 C 122.84375 76.273438 136.273438 89.707031 136.273438 106.273438 Z M 136.273438 106.273438 "/>
</g>
</svg>
