<?xml version="1.0" encoding="UTF-8"?>
<svg xmlns="http://www.w3.org/2000/svg" xmlns:xlink="http://www.w3.org/1999/xlink" width="121pt" height="121pt" viewBox="0 0 121 121" version="1.1">
<g id="surface4112">
<path style="fill:none;stroke-width:1;stroke-linecap:round;stroke-linejoin:miter;stroke:rgb(0%,0%,0%);stroke-opacity:1;stroke-miterlimit:10;" d="M 100.5 100.5 L 120.5 100.5 L 120.5 120.5 L 100.5 120.5 Z M 100.5 100.5 "/>
<path style="fill:none;stroke-width:1;stroke-linecap:round;stroke-linejoin:miter;stroke:rgb(0%,0%,0%);stroke-opacity:1;stroke-miterlimit:10;" d="M 80.5 100.5 L 100.5 100.5 L 100.5 120.5 L 80.5 120.5 Z M 80.5 100.5 "/>
<path style="fill:none;stroke-width:1;stroke-linecap:round;stroke-linejoin:miter;stroke:rgb(0%,0%,0%);stroke-opacity:1;stroke-miterlimit:10;" d="M 60.5 100.5 L 80.5 100.5 L 80.5 120.5 L 60.5 120.5 Z M 60.5 100.5 "/>
<path style="fill:none;stroke-width:1;stroke-linecap:round;stroke-linejoin:miter;stroke:rgb(0%,0%,0%);stroke-opacity:1;stroke-miterlimit:10;" d="M 40.5 100.5 L 60.5 100.5 L 60.5 120.5 L 40.5 120.5 Z M 40.5 100.5 "/>
<path style="fill:none;stroke-width:1;stroke-linecap:round;stroke-linejoin:miter;stroke:rgb(0%,0%,0%);stroke-opacity:1;stroke-miterlimit:10;" d="M 20.5 100.5 L 40.5 100.5 L 40.5 120.5 L 20.5 120.5 Z M 20.5 100.5 "/>
<path style="fill:none;stroke-width:1;stroke-linecap:round;stroke-linejoin:miter;stroke:rgb(0%,0%,0%);stroke-opacity:1;stroke-miterlimit:10;" d="M 0.5 100.5 L 20.5 100.5 L 20.5 120.5 L 0.5 120.5 Z M 0.5 100.5 "/>
<path style="fill:none;stroke-width:1;stroke-linecap:round;stroke-linejoin:miter;stroke:rgb(0%,0%,0%);stroke-opacity:1;stroke-miterlimit:10;" d="M 100.5 80.5 L 120.5 80.5 L 120.5 100.5 L 100.5 100.5 Z M 100.5 80.5 "/>
<path style="fill:none;stroke-width:1;stroke-linecap:round;stroke-linejoin:miter;stroke:rgb(0%,0%,0%);stroke-opacity:1;stroke-miterlimit:10;" d="M 80.5 80.5 L 100.5 80.5 L 100.5 100.5 L 80.5 100.5 Z M 80.5 80.5 "/>
<path style="fill:none;stroke-width:1;stroke-linecap:round;stroke-linejoin:miter;stroke:rgb(0%,0%,0%);stroke-opacity:1;stroke-miterlimit:10;" d="M 60.5 80.5 L 80.5 80.5 L 80.5 100.5 L 60.5 100.5 Z M 60.5 80.5 "/>
<path style="fill:none;stroke-width:1;stroke-linecap:round;stroke-linejoin:miter;stroke:rgb(0%,0%,0%);stroke-opacity:1;stroke-miterlimit:10;" d="M 40.5 80.5 L 60.5 80.5 L 60.5 100.5 L 40.5 100.5 Z M 40.5 80.5 "/>
<path style="fill:none;stroke-width:1;stroke-linecap:round;stroke-linejoin:miter;stroke:rgb(0%,0%,0%);stroke-opacity:1;stroke-miterlimit:10;" d="M 20.5 80.5 L 40.5 80.5 L 40.5 100.5 L 20.5 100.5 Z M 20.5 80.5 "/>
<path style="fill:none;stroke-width:1;stroke-linecap:round;stroke-linejoin:miter;stroke:rgb(0%,0%,0%);stroke-opacity:1;stroke-miterlimit:10;" d="M 0.5 80.5 L 20.5 80.5 L 20.5 100.5 L 0.5 100.5 Z M 0.5 80.5 "/>
<path style="fill:none;stroke-width:1;stroke-linecap:round;stroke-linejoin:miter;stroke:rgb(0%,0%,0%);stroke-opacity:1;stroke-miterlimit:10;" d="M 100.5 60.5 L 120.5 60.5 L 120.5 80.5 L 100.5 80.5 Z M 100.5 60.5 "/>
<path style="fill:none;stroke-width:1;stroke-linecap:round;stroke-linejoin:miter;stroke:rgb(0%,0%,0%);stroke-opacity:1;stroke-miterlimit:10;" d="M 80.5 60.5 L 100.5 60.5 L 100.5 80.5 L 80.5 80.5 Z M 80.5 60.5 "/>
<path style="fill:none;stroke-width:1;stroke-linecap:round;stroke-linejoin:miter;stroke:rgb(0%,0%,0%);stroke-opacity:1;stroke-miterlimit:10;" d="M 60.5 60.5 L 80.5 60.5 L 80.5 80.5 L 60.5 80.5 Z M 60.5 60.5 "/>
<path style="fill:none;stroke-width:1;stroke-linecap:round;stroke-linejoin:miter;stroke:rgb(0%,0%,0%);stroke-opacity:1;stroke-miterlimit:10;" d="M 40.5 60.5 L 60.5 60.5 L 60.5 80.5 L 40.5 80.5 Z M 40.5 60.5 "/>
<path style="fill:none;stroke-width:1;stroke-linecap:round;stroke-linejoin:miter;stroke:rgb(0%,0%,0%);stroke-opacity:1;stroke-miterlimit:10;" d="M 20.5 60.5 L 40.5 60.5 L 40.5 80.5 L 20.5 80.5 Z M 20.5 60.5 "/>
<path style="fill:none;stroke-width:1;stroke-linecap:round;stroke-linejoin:miter;stroke:rgb(0%,0%,0%);stroke-opacity:1;stroke-miterlimit:10;" d="M 0.5 60.5 L 20.5 60.5 L 20.5 80.5 L 0.5 80.5 Z M 0.5 60.5 "/>
<path style="fill:none;stroke-width:1;stroke-linecap:round;stroke-linejoin:miter;stroke:rgb(0%,0%,0%);stroke-opacity:1;stroke-miterlimit:10;" d="M 100.5 40.5 L 120.5 40.5 L 120.5 60.5 L 100.5 60.5 Z M 100.5 40.5 "/>
<path style="fill:none;stroke-width:1;stroke-linecap:round;stroke-linejoin:miter;stroke:rgb(0%,0%,0%);stroke-opacity:1;stroke-miterlimit:10;" d="M 80.5 40.5 L 100.5 40.5 L 100.5 60.5 L 80.5 60.5 Z M 80.5 40.5 "/>
<path style="fill:none;stroke-width:1;stroke-linecap:round;stroke-linejoin:miter;stroke:rgb(0%,0%,0%);stroke-opacity:1;stroke-miterlimit:10;" d="M 60.5 40.5 L 80.5 40.5 L 80.5 60.5 L 60.5 60.5 Z M 60.5 40.5 "/>
<path style="fill:none;stroke-width:1;stroke-linecap:round;stroke-linejoin:miter;stroke:rgb(0%,0%,0%);stroke-opacity:1;stroke-miterlimit:10;" d="M 40.5 40.5 L 60.5 40.5 L 60.5 60.5 L 40.5 60.5 Z M 40.5 40.5 "/>
<path style="fill:none;stroke-width:1;stroke-linecap:round;stroke-linejoin:miter;stroke:rgb(0%,0%,0%);stroke-opacity:1;stroke-miterlimit:10;" d="M 20.5 40.5 L 40.5 40.5 L 40.5 60.5 L 20.5 60.5 Z M 20.5 40.5 "/>
<path style="fill:none;stroke-width:1;stroke-linecap:round;stroke-linejoin:miter;stroke:rgb(0%,0%,0%);stroke-opacity:1;stroke-miterlimit:10;" d="M 0.5 40.5 L 20.5 40.5 L 20.5 60.5 L 0.5 60.5 Z M 0.5 40.5 "/>
<path style="fill:none;stroke-width:1;stroke-linecap:round;stroke-linejoin:miter;stroke:rgb(0%,0%,0%);stroke-opacity:1;stroke-miterlimit:10;" d="M 100.5 20.5 L 120.5 20.5 L 120.5 40.5 L 100.5 40.5 Z M 100.5 20.5 "/>
<path style="fill:none;stroke-width:1;stroke-linecap:round;stroke-linejoin:miter;stroke:rgb(0%,0%,0%);stroke-opacity:1;stroke-miterlimit:10;" d="M 80.5 20.5 L 100.5 20.5 L 100.5 40.5 L 80.5 40.5 Z M 80.5 20.5 "/>
<path style="fill:none;stroke-width:1;stroke-linecap:round;stroke-linejoin:miter;stroke:rgb(0%,0%,0%);stroke-opacity:1;stroke-miterlimit:10;" d="M 60.5 20.5 L 80.5 20.5 L 80.5 40.5 L 60.5 40.5 Z M 60.5 20.5 "/>
<path style="fill:none;stroke-width:1;stroke-linecap:round;stroke-linejoin:miter;stroke:rgb(0%,0%,0%);stroke-opacity:1;stroke-miterlimit:10;" d="M 40.5 20.5 L 60.5 20.5 L 60.5 40.5 L 40.5 40.5 Z M 40.5 20.5 "/>
<path style="fill:none;stroke-width:1;stroke-linecap:round;stroke-linejoin:miter;stroke:rgb(0%,0%,0%);stroke-opacity:1;stroke-miterlimit:10;" d="M 20.5 20.5 L 40.5 20.5 L 40.5 40.5 L 20.5 40.5 Z M 20.5 20.5 "/>
<path style="fill:none;stroke-width:1;stroke-linecap:round;stroke-linejoin:miter;stroke:rgb(0%,0%,0%);stroke-opacity:1;stroke-miterlimit:10;" d="M 0.5 20.5 L 20.5 20.5 L 20.5 40.5 L 0.5 40.5 Z M 0.5 20.5 "/>
<path style="fill:none;stroke-width:1;stroke-linecap:round;stroke-linejoin:miter;stroke:rgb(0%,0%,0%);stroke-opacity:1;stroke-miterlimit:10;" d="M 100.5 0.5 L 120.5 0.5 L 120.5 20.5 L 100.5 20.5 Z M 100.5 0.5 "/>
<path style="fill:none;stroke-width:1;stroke-linecap:round;stroke-linejoin:miter;stroke:rgb(0%,0%,0%);stroke-opacity:1;stroke-miterlimit:10;" d="M 80.5 0.5 L 100.5 0.5 L 100.5 20.5 L 80.5 20.5 Z M 80.5 0.5 "/>
<path style="fill:none;stroke-width:1;stroke-linecap:round;stroke-linejoin:miter;stroke:rgb(0%,0%,0%);stroke-opacity:1;stroke-miterlimit:10;" d="M 60.5 0.5 L 80.5 0.5 L 80.5 20.5 L 60.5 20.5 Z M 60.5 0.5 "/>
<path style="fill:none;stroke-width:1;stroke-linecap:round;stroke-linejoin:miter;stroke:rgb(0%,0%,0%);stroke-opacity:1;stroke-miterlimit:10;" d="M 40.5 0.5 L 60.5 0.5 L 60.5 20.5 L 40.5 20.5 Z M 40.5 0.5 "/>
<path style="fill:none;stroke-width:1;stroke-linecap:round;stroke-linejoin:miter;stroke:rgb(0%,0%,0%);stroke-opacity:1;stroke-miterlimit:10;" d="M 20.5 0.5 L 40.5 0.5 L 40.5 20.5 L 20.5 20.5 Z M 20.5 0.5 "/>
<path style="fill:none;stroke-width:1;stroke-linecap:round;stroke-linejoin:miter;stroke:rgb(0%,0%,0%);stroke-opacity:1;stroke-miterlimit:10;" d="M 0.5 0.5 L 20.5 0.5 L 20.5 20.5 L 0.5 20.5 Z M 0.5 0.5 "/>
</g>
</svg>
