<?xml version="1.0" encoding="UTF-8"?>
<svg xmlns="http://www.w3.org/2000/svg" xmlns:xlink="http://www.w3.org/1999/xlink" width="141pt" height="41pt" viewBox="0 0 141 41" version="1.1">
<g id="surface4542">
<path style=" stroke:none;fill-rule:evenodd;fill:rgb(100%,54.901961%,0%);fill-opacity:1;" d="M 140 20 C 140 31.046875 131.046875 40 120 40 C 108.953125 40 100 31.046875 100 20 C 100 8.953125 108.953125 0 120 0 C 131.046875 0 140 8.953125 140 20 Z M 140 20 "/>
<path style=" stroke:none;fill-rule:evenodd;fill:rgb(100%,54.901961%,0%);fill-opacity:1;" d="M 40 20 C 40 31.046875 31.046875 40 20 40 C 8.953125 40 0 31.046875 0 20 C 0 8.953125 8.953125 0 20 0 C 31.046875 0 40 8.953125 40 20 Z M 40 20 "/>
<path style=" stroke:none;fill-rule:nonzero;fill:rgb(0%,0%,0%);fill-opacity:1;" d="M 40 10 L 100 10 L 100 30 L 40 30 Z M 40 10 "/>
</g>
</svg>
